<svg width="66" height="265" viewBox="0 0 66 265" fill="none" xmlns="http://www.w3.org/2000/svg">
<g opacity="0.5">
<path fill-rule="evenodd" clip-rule="evenodd" d="M1.07622 239.25C-0.358558 237.816 -0.358558 235.664 1.07622 234.946L3.94574 232.077C5.38052 230.642 5.38052 228.49 3.94574 227.055L1.07622 224.185C-0.358558 222.751 -0.358558 220.598 1.07622 219.881C2.51101 218.446 4.66311 218.446 5.3805 219.881C6.81528 221.316 6.81535 221.316 8.25013 222.751C9.68491 224.185 11.8371 224.185 13.2718 222.751L16.1414 219.881C17.5761 218.446 19.7284 218.446 20.4458 219.881C21.8805 221.316 21.8805 223.468 20.4458 224.185L17.5762 227.055C16.1415 228.49 16.1415 230.642 17.5762 232.077L20.4458 234.946C21.8805 236.381 21.8805 238.533 20.4458 239.25C19.011 240.685 16.8588 240.685 16.1414 239.25L13.2718 236.381C11.8371 234.946 9.68491 234.946 8.25013 236.381L6.09794 239.25C4.66316 240.685 2.511 240.685 1.07622 239.25Z" fill="url(#paint0_radial_30_18314)"/>
<path fill-rule="evenodd" clip-rule="evenodd" d="M1.07609 190.469C-0.358695 189.034 -0.358695 186.882 1.07609 186.165L3.94561 183.295C5.38039 181.861 5.38039 179.708 3.94561 178.274L1.07609 175.404C-0.358695 173.969 -0.358695 171.817 1.07609 171.1C2.51087 169.665 4.66297 169.665 5.38036 171.1C6.81515 172.534 6.81521 172.534 8.24999 173.969C9.68477 175.404 11.8369 175.404 13.2717 173.969L16.1412 171.1C17.576 169.665 19.7282 169.665 20.4456 171.1C21.8804 172.534 21.8804 174.687 20.4456 175.404L17.5761 178.274C16.1413 179.708 16.1413 181.861 17.5761 183.295L20.4456 186.165C21.8804 187.6 21.8804 189.752 20.4456 190.469C19.0108 191.904 16.8586 191.904 16.1412 190.469L13.2717 187.6C11.8369 186.165 9.68477 186.165 8.24999 187.6L5.38036 190.469C4.66297 191.904 2.51087 191.904 1.07609 190.469Z" fill="url(#paint1_radial_30_18314)"/>
<path fill-rule="evenodd" clip-rule="evenodd" d="M1.07609 142.403C-0.358695 140.968 -0.358695 138.816 1.07609 138.098L3.94561 135.229C5.38039 133.794 5.38039 131.642 3.94561 130.207L1.07609 127.337C-0.358695 125.903 -0.358695 123.75 1.07609 123.033C2.51087 121.598 4.66297 121.598 5.38036 123.033C6.81515 124.468 6.81521 124.468 8.24999 125.903C9.68477 127.337 11.8369 127.337 13.2717 125.903L16.1412 123.033C17.576 121.598 19.7282 121.598 20.4456 123.033C21.8804 124.468 21.8804 126.62 20.4456 127.337L17.5761 130.207C16.1413 131.642 16.1413 133.794 17.5761 135.229L20.4456 138.098C21.8804 139.533 21.8804 141.685 20.4456 142.403C19.0108 143.837 16.8586 143.837 16.1412 142.403L13.2717 139.533C11.8369 138.098 9.68477 138.098 8.24999 139.533L6.0978 142.403C4.66302 143.12 2.51087 143.12 1.07609 142.403Z" fill="url(#paint2_radial_30_18314)"/>
<path fill-rule="evenodd" clip-rule="evenodd" d="M1.07609 93.6215C-0.358695 92.1867 -0.358695 90.0345 1.07609 89.3171L3.94561 86.4475C5.38039 85.0128 5.38039 82.8606 3.94561 81.4258L1.07609 78.5562C-0.358695 77.1215 -0.358695 74.9693 1.07609 74.2519C2.51087 72.8171 4.66297 72.8171 5.38036 74.2519C6.81515 75.6867 6.81521 75.6867 8.24999 77.1215C9.68477 78.5562 11.8369 78.5562 13.2717 77.1215L16.1412 74.2519C17.576 72.8171 19.7282 72.8171 20.4456 74.2519C21.8804 75.6867 21.8804 77.8389 20.4456 78.5562L17.5761 81.4258C16.1413 82.8606 16.1413 85.0128 17.5761 86.4475L20.4456 89.3171C21.8804 90.7519 21.8804 92.9041 20.4456 93.6215C19.0108 95.0562 16.8586 95.0562 16.1412 93.6215L13.2717 90.7519C11.8369 89.3171 9.68477 89.3171 8.24999 90.7519L5.38036 93.6215C4.66297 95.0562 2.51087 95.0562 1.07609 93.6215Z" fill="url(#paint3_radial_30_18314)"/>
<path fill-rule="evenodd" clip-rule="evenodd" d="M1.07609 44.8368C-0.358695 43.402 -0.358695 41.2499 1.07609 40.5325L3.94561 37.6629C5.38039 36.2281 5.38039 34.076 3.94561 32.6412L1.07609 29.7716C-0.358695 28.3368 -0.358695 26.1847 1.07609 25.4673C2.51087 24.0325 4.66297 24.0325 5.38036 25.4673C6.81515 26.9021 6.81521 26.902 8.24999 28.3368C9.68477 29.7716 11.8369 29.7716 13.2717 28.3368L16.1412 25.4673C17.576 24.0325 19.7282 24.0325 20.4456 25.4673C21.8804 26.9021 21.8804 29.0542 20.4456 29.7716L17.5761 32.6412C16.1413 34.076 16.1413 36.2281 17.5761 37.6629L20.4456 40.5325C21.8804 41.9673 21.8804 44.1194 20.4456 44.8368C19.0108 46.2716 16.8586 46.2716 16.1412 44.8368L13.2717 41.9673C11.8369 40.5325 9.68477 40.5325 8.24999 41.9673L5.38036 44.8368C4.66297 46.2716 2.51087 46.2716 1.07609 44.8368Z" fill="url(#paint4_radial_30_18314)"/>
<path fill-rule="evenodd" clip-rule="evenodd" d="M45.5538 263.64C44.119 262.206 44.119 260.053 45.5538 259.336L48.4233 256.466C49.8581 255.032 49.8581 252.88 48.4233 251.445L45.5538 248.575C44.119 247.14 44.119 244.988 45.5538 244.271C46.9886 242.836 49.1408 242.836 49.8582 244.271C51.293 245.706 51.2929 245.706 52.7277 247.14C54.1625 248.575 56.3146 248.575 57.7494 247.14L60.619 244.271C62.0538 242.836 64.2059 242.836 64.9233 244.271C66.3581 245.706 66.3581 247.858 64.9233 248.575L62.0538 251.445C60.619 252.88 60.619 255.032 62.0538 256.466L64.9233 259.336C66.3581 260.771 66.3581 262.923 64.9233 263.64C63.4885 265.075 61.3364 265.075 60.619 263.64L57.7494 260.771C56.3146 259.336 54.1625 259.336 52.7277 260.771L49.8582 263.64C49.1408 264.358 46.9886 264.358 45.5538 263.64Z" fill="url(#paint5_radial_30_18314)"/>
<path fill-rule="evenodd" clip-rule="evenodd" d="M45.5537 214.859C44.1189 213.424 44.1189 211.272 45.5537 210.555L48.4232 207.685C49.858 206.251 49.858 204.098 48.4232 202.664L45.5537 199.794C44.1189 198.359 44.1189 196.207 45.5537 195.49C46.9885 194.055 49.1407 194.055 49.8581 195.49C51.2929 196.924 51.2928 196.924 52.7276 198.359C54.1624 199.794 56.3146 199.794 57.7493 198.359L60.619 195.49C62.0537 194.055 64.2059 194.055 64.9232 195.49C66.358 196.924 66.358 199.077 64.9232 199.794L62.0537 202.664C60.6189 204.098 60.6189 206.251 62.0537 207.685L64.9232 210.555C66.358 211.99 66.358 214.142 64.9232 214.859C63.4885 216.294 61.3364 216.294 60.619 214.859L57.7493 211.99C56.3146 210.555 54.1624 210.555 52.7276 211.99L49.8581 214.859C49.1407 216.294 46.9885 216.294 45.5537 214.859Z" fill="url(#paint6_radial_30_18314)"/>
<path fill-rule="evenodd" clip-rule="evenodd" d="M45.5537 166.075C44.1189 164.64 44.1189 162.488 45.5537 161.77L48.4232 158.901C49.858 157.466 49.858 155.314 48.4232 153.879L45.5537 151.009C44.1189 149.575 44.1189 147.422 45.5537 146.705C46.9885 145.27 49.1407 145.27 49.8581 146.705C51.2929 148.14 51.2928 148.14 52.7276 149.575C54.1624 151.009 56.3146 151.009 57.7493 149.575L60.619 146.705C62.0537 145.27 64.2059 145.27 64.9232 146.705C66.358 148.14 66.358 150.292 64.9232 151.009L62.0537 153.879C60.6189 155.314 60.6189 157.466 62.0537 158.901L64.9232 161.77C66.358 163.205 66.358 165.357 64.9232 166.075C63.4885 167.509 61.3364 167.509 60.619 166.075L57.7493 163.205C56.3146 161.77 54.1624 161.77 52.7276 163.205L49.8581 166.075C49.1407 167.509 46.9885 167.509 45.5537 166.075Z" fill="url(#paint7_radial_30_18314)"/>
<path fill-rule="evenodd" clip-rule="evenodd" d="M45.5537 118.011C44.1189 116.577 44.1189 114.425 45.5537 113.707L48.4232 110.838C49.858 109.403 49.858 107.251 48.4232 105.816L45.5537 102.946C44.1189 101.512 44.1189 99.3593 45.5537 98.6419C46.9885 97.2072 49.1407 97.2072 49.8581 98.6419C51.2929 100.077 51.2928 100.077 52.7276 101.512C54.1624 102.946 56.3146 102.946 57.7493 101.512L60.619 98.6419C62.0537 97.2072 64.2059 97.2072 64.9232 98.6419C66.358 100.077 66.358 102.229 64.9232 102.946L62.0537 105.816C60.6189 107.251 60.6189 109.403 62.0537 110.838L64.9232 113.707C66.358 115.142 66.358 117.294 64.9232 118.011C63.4885 119.446 61.3364 119.446 60.619 118.011L57.7493 115.142C56.3146 113.707 54.1624 113.707 52.7276 115.142L49.8581 118.011C49.1407 118.729 46.9885 118.729 45.5537 118.011Z" fill="url(#paint8_radial_30_18314)"/>
<path fill-rule="evenodd" clip-rule="evenodd" d="M45.5537 69.2268C44.1189 67.792 44.1189 65.6399 45.5537 64.9225L48.4232 62.0529C49.858 60.6181 49.858 58.466 48.4232 57.0312L45.5537 54.1616C44.1189 52.7269 44.1189 50.5747 45.5537 49.8573C46.9885 48.4225 49.1407 48.4225 49.8581 49.8573C51.2929 51.2921 51.2928 51.2921 52.7276 52.7268C54.1624 54.1616 56.3146 54.1616 57.7493 52.7268L60.619 49.8573C62.0537 48.4225 64.2059 48.4225 64.9232 49.8573C66.358 51.2921 66.358 53.4442 64.9232 54.1616L62.0537 57.0312C60.6189 58.466 60.6189 60.6181 62.0537 62.0529L64.9232 64.9225C66.358 66.3573 66.358 68.5094 64.9232 69.2268C63.4885 70.6616 61.3364 70.6616 60.619 69.2268L57.7493 66.3573C56.3146 64.9225 54.1624 64.9225 52.7276 66.3573L49.8581 69.2268C49.1407 70.6616 46.9885 70.6616 45.5537 69.2268Z" fill="url(#paint9_radial_30_18314)"/>
<path fill-rule="evenodd" clip-rule="evenodd" d="M45.5537 20.4456C44.1189 19.0109 44.1189 16.8587 45.5537 16.1413L48.4232 13.2717C49.858 11.837 49.858 9.68478 48.4232 8.24999L45.5537 5.38045C44.1189 3.94567 44.1189 1.79348 45.5537 1.07609C46.9885 -0.358694 49.1407 -0.358694 49.8581 1.07609C51.2929 2.51087 51.2928 2.51088 52.7276 3.94566C54.1624 5.38044 56.3146 5.38044 57.7493 3.94566L60.619 1.07609C62.0537 -0.358694 64.2059 -0.358694 64.9232 1.07609C66.358 2.51087 66.358 4.66306 64.9232 5.38045L62.0537 8.24999C60.6189 9.68478 60.6189 11.837 62.0537 13.2717L64.9232 16.1413C66.358 17.5761 66.358 19.7283 64.9232 20.4456C63.4885 21.8804 61.3364 21.8804 60.619 20.4456L57.7493 17.5761C56.3146 16.1413 54.1624 16.1413 52.7276 17.5761L49.8581 20.4456C49.1407 21.8804 46.9885 21.8804 45.5537 20.4456Z" fill="url(#paint10_radial_30_18314)"/>
</g>
<defs>
<radialGradient id="paint0_radial_30_18314" cx="0" cy="0" r="1" gradientUnits="userSpaceOnUse" gradientTransform="translate(5.24632 229.946) rotate(-90) scale(8.51715 16.92)">
<stop stop-color="#5B2AA4"/>
<stop offset="0.9944" stop-color="#481A72"/>
</radialGradient>
<radialGradient id="paint1_radial_30_18314" cx="0" cy="0" r="1" gradientUnits="userSpaceOnUse" gradientTransform="translate(5.24618 181.165) rotate(-90) scale(8.51715 16.92)">
<stop stop-color="#5B2AA4"/>
<stop offset="0.9944" stop-color="#481A72"/>
</radialGradient>
<radialGradient id="paint2_radial_30_18314" cx="0" cy="0" r="1" gradientUnits="userSpaceOnUse" gradientTransform="translate(5.24618 133.098) rotate(-90) scale(8.51715 16.92)">
<stop stop-color="#5B2AA4"/>
<stop offset="0.9944" stop-color="#481A72"/>
</radialGradient>
<radialGradient id="paint3_radial_30_18314" cx="0" cy="0" r="1" gradientUnits="userSpaceOnUse" gradientTransform="translate(5.24618 84.3168) rotate(-90) scale(8.51715 16.92)">
<stop stop-color="#5B2AA4"/>
<stop offset="0.9944" stop-color="#481A72"/>
</radialGradient>
<radialGradient id="paint4_radial_30_18314" cx="0" cy="0" r="1" gradientUnits="userSpaceOnUse" gradientTransform="translate(5.24618 35.5322) rotate(-90) scale(8.51715 16.92)">
<stop stop-color="#5B2AA4"/>
<stop offset="0.9944" stop-color="#481A72"/>
</radialGradient>
<radialGradient id="paint5_radial_30_18314" cx="0" cy="0" r="1" gradientUnits="userSpaceOnUse" gradientTransform="translate(49.7239 254.336) rotate(-90) scale(8.51715 16.92)">
<stop stop-color="#5B2AA4"/>
<stop offset="0.9944" stop-color="#481A72"/>
</radialGradient>
<radialGradient id="paint6_radial_30_18314" cx="0" cy="0" r="1" gradientUnits="userSpaceOnUse" gradientTransform="translate(49.7238 205.555) rotate(-90) scale(8.51715 16.92)">
<stop stop-color="#5B2AA4"/>
<stop offset="0.9944" stop-color="#481A72"/>
</radialGradient>
<radialGradient id="paint7_radial_30_18314" cx="0" cy="0" r="1" gradientUnits="userSpaceOnUse" gradientTransform="translate(49.7238 156.77) rotate(-90) scale(8.51715 16.92)">
<stop stop-color="#5B2AA4"/>
<stop offset="0.9944" stop-color="#481A72"/>
</radialGradient>
<radialGradient id="paint8_radial_30_18314" cx="0" cy="0" r="1" gradientUnits="userSpaceOnUse" gradientTransform="translate(49.7238 108.707) rotate(-90) scale(8.51715 16.92)">
<stop stop-color="#5B2AA4"/>
<stop offset="0.9944" stop-color="#481A72"/>
</radialGradient>
<radialGradient id="paint9_radial_30_18314" cx="0" cy="0" r="1" gradientUnits="userSpaceOnUse" gradientTransform="translate(49.7238 59.9222) rotate(-90) scale(8.51715 16.92)">
<stop stop-color="#5B2AA4"/>
<stop offset="0.9944" stop-color="#481A72"/>
</radialGradient>
<radialGradient id="paint10_radial_30_18314" cx="0" cy="0" r="1" gradientUnits="userSpaceOnUse" gradientTransform="translate(49.7238 11.141) rotate(-90) scale(8.51715 16.92)">
<stop stop-color="#5B2AA4"/>
<stop offset="0.9944" stop-color="#481A72"/>
</radialGradient>
</defs>
</svg>
