<svg width="57" height="57" viewBox="0 0 57 57" fill="none" xmlns="http://www.w3.org/2000/svg">
<path opacity="0.5" d="M54.4934 34.7009L41.7176 25.5677L50.574 13.179C51.9578 11.2433 51.5163 8.5876 49.5806 7.20378L41.0633 1.11498C39.1276 -0.268843 36.472 0.172684 35.0881 2.10842L25.9549 14.8843L13.1791 5.75105C11.2433 4.36723 8.58769 4.80876 7.20387 6.7445L1.11506 15.2617C-0.268759 17.1975 0.172777 19.8531 2.10851 21.2369L14.8844 30.3702L5.75114 43.146C4.36732 45.0817 4.80886 47.7374 6.74459 49.1212L15.2618 55.21C17.1975 56.5938 19.8532 56.1523 21.237 54.2166L30.9238 40.6664L43.6996 49.7996C45.6353 51.1835 48.291 50.7419 49.6748 48.8062L55.4869 40.6761C56.4835 38.4636 56.4291 36.0847 54.4934 34.7009Z" fill="url(#paint0_linear_30_18340)"/>
<defs>
<linearGradient id="paint0_linear_30_18340" x1="11.0639" y1="52.0011" x2="45.3111" y2="4.09488" gradientUnits="userSpaceOnUse">
<stop stop-color="#FFD328"/>
<stop offset="1" stop-color="#FFA700"/>
</linearGradient>
</defs>
</svg>
