<svg width="166" height="104" viewBox="0 0 166 104" fill="none" xmlns="http://www.w3.org/2000/svg">
<g opacity="0.5">
<path d="M160.859 55.2225L142.896 33.2733C141.83 31.9383 139.664 32.0781 137.901 33.3797L119.256 47.541L107.688 33.6018C106.622 32.2668 104.457 32.4066 102.693 33.7082L84.0481 47.8695L72.8121 34.0168C71.7462 32.6818 69.5807 32.8216 67.8174 34.1232L49.1722 48.2845L38.1106 33.7727C36.9575 32.7673 34.5473 32.4909 33.1158 33.879L3.47197 56.0931C1.70869 57.3947 1.18569 59.3721 2.25163 60.7071L7.09196 66.5498C8.1579 67.8848 10.3234 67.7451 12.0867 66.4434L30.6447 52.6117L41.8807 66.4644C42.4572 66.9671 43.3657 67.5564 44.1165 67.3999C45.1993 67.33 45.9502 67.1736 46.8754 66.358L65.4334 52.5263L76.6694 66.3789C77.246 66.8816 78.1544 67.4709 78.9053 67.3145C79.988 67.2446 80.7389 67.0882 81.6641 66.2726L100.222 52.4408L111.458 66.2935C112.035 66.7962 112.943 67.3855 113.694 67.229C114.777 67.1592 115.528 67.0027 116.453 66.1871L135.011 52.3554L146.753 65.6355C147.819 66.9705 149.985 66.8307 151.748 65.5291L159.639 59.8366C161.07 58.4484 161.593 56.471 160.859 55.2225Z" fill="url(#paint0_radial_30_18310)"/>
</g>
<defs>
<radialGradient id="paint0_radial_30_18310" cx="0" cy="0" r="1" gradientUnits="userSpaceOnUse" gradientTransform="translate(84.7908 34.6088) rotate(14.6199) scale(60.8399 53.0183)">
<stop stop-color="#5B2AA4"/>
<stop offset="0.9944" stop-color="#481A72"/>
</radialGradient>
</defs>
</svg>
