<svg style="display: none;" aria-hidden="true" xmlns="http://www.w3.org/2000/svg" xmlns:xlink="http://www.w3.org/1999/xlink"><symbol viewBox="0 0 30 30" fill="none" id="svg-advantages"><path d="M30 8.82353L26.6912 4.41176L30 0H18.5294V15.8824H15.8824V17.6471H10.5882V19.4118H5.29412V21.1765H0V30H22.9412V15.8824H20.2941V8.82353H30ZM12.3529 19.4118H15.8824V28.2353H12.3529C12.3529 27.1289 12.3529 20.5046 12.3529 19.4118ZM7.05882 21.1765H10.5882V28.2353H7.05882C7.05882 27.6026 7.05882 22.1659 7.05882 21.1765ZM1.76471 22.9412H5.29412V28.2353H1.76471V22.9412ZM21.1765 28.2353H17.6471C17.6471 27.7645 17.6471 18.1086 17.6471 17.6471H21.1765V28.2353ZM20.2941 1.76471H26.4706L24.4853 4.41176L26.4706 7.05882H20.2941V1.76471Z" fill="#fff"/><path d="M8.94348 10.5443L10.8106 12.4113L15 8.28449V9.99596H16.7647V5.29443H12.0631V7.05914H13.7292L10.82 9.92496L8.94348 8.04855L1.43701 15.555L2.68484 16.8028L8.94348 10.5443Z" fill="#fff"/></symbol><symbol viewBox="0 0 26 14" fill="none" id="svg-arrow-down"><path d="M2.00017 0.499861C2.42853 0.499023 2.84366 0.648211 3.1735 0.921527L13.0002 9.13486L22.8452 1.21486C23.0327 1.06258 23.2485 0.94885 23.4801 0.880226C23.7117 0.8116 23.9546 0.789429 24.1948 0.814984C24.4351 0.84054 24.6679 0.913317 24.8799 1.02914C25.0919 1.14495 25.2789 1.30153 25.4302 1.48986C25.5825 1.67739 25.6962 1.89317 25.7648 2.12479C25.8334 2.35641 25.8556 2.59931 25.83 2.83953C25.8045 3.07975 25.7317 3.31255 25.6159 3.52455C25.5001 3.73655 25.3435 3.92357 25.1552 4.07486L14.1552 12.9299C13.8271 13.1995 13.4156 13.3469 12.991 13.3469C12.5664 13.3469 12.1549 13.1995 11.8268 12.9299L0.826833 3.76319C0.641192 3.60929 0.487737 3.42027 0.375258 3.20697C0.26278 2.99366 0.193484 2.76027 0.171346 2.52014C0.149207 2.28002 0.174659 2.03788 0.24624 1.80761C0.317823 1.57734 0.434127 1.36345 0.588498 1.17819C0.759095 0.967886 0.974168 0.797983 1.21825 0.680696C1.46233 0.563409 1.72937 0.501652 2.00017 0.499861Z" fill="url(#abpaint0_linear_30_10940)"/><defs><linearGradient id="abpaint0_linear_30_10940" x1="25.84" y1="6.923" x2=".164" y2="6.923" gradientUnits="userSpaceOnUse"><stop stop-color="#6A11CB"/><stop offset="1" stop-color="#2575FC"/></linearGradient></defs></symbol><symbol viewBox="0 0 30 30" fill="none" id="svg-assistance"><g clip-path="url(#acclip0_30_18733)"><mask id="aca" maskUnits="userSpaceOnUse" x="-.883" y="-.414" width="32" height="31" fill="#000"><path fill="#fff" d="M-0.883 -0.414H31.117V30.586H-0.883z"/><path d="M29.9999 13.2853C29.9999 10.775 28.3699 8.63963 26.1134 7.87795C25.6588 6.03578 24.125 4.64025 22.2406 4.31207C22.1575 3.44318 21.7947 2.62771 21.1848 1.96114C20.3853 1.08715 19.2376 0.585938 18.0362 0.585938C16.6049 0.585938 15.3385 1.28514 14.5744 2.35134C13.8104 1.28514 12.544 0.585938 11.1126 0.585938C9.91124 0.585938 8.76362 1.08715 7.96405 1.96107C7.35463 2.62725 6.9919 3.44219 6.90843 4.31032C5.63192 4.52764 4.50972 5.22821 3.75801 6.29746C3.03019 7.33291 2.75565 8.57062 2.96909 9.77819C1.2167 10.7022 0.116943 12.4751 0.116943 14.459C0.116943 16.2003 0.964377 17.786 2.37808 18.7767C1.56474 20.0594 1.44231 21.6034 2.07258 23.0566C2.84521 24.8377 4.57789 25.9887 6.48673 25.9887C6.63534 25.9887 6.78478 25.9818 6.93468 25.9682C7.05278 26.7591 7.4044 27.5095 7.95431 28.1148C8.75457 28.9956 9.90576 29.5008 11.1126 29.5008C12.544 29.5008 13.8104 28.8016 14.5744 27.7354C15.3385 28.8016 16.6049 29.5008 18.0362 29.5008C19.2432 29.5008 20.3943 28.9956 21.1945 28.1149C21.7445 27.5095 22.0961 26.759 22.2141 25.9681C24.0605 26.1339 25.7843 25.28 26.7728 23.6446C27.7785 21.9808 27.6912 20.0246 26.5869 18.5093C28.5943 17.6243 29.9999 15.6164 29.9999 13.2853ZM13.8135 25.3797C13.8135 26.8129 12.6019 27.9789 11.1126 27.9789C10.3337 27.9789 9.5931 27.6555 9.0807 27.0916C8.69841 26.6709 8.47303 26.1584 8.42311 25.6145C9.79512 25.0697 10.1496 24.1397 10.4156 23.4395C10.6391 22.8514 10.7512 22.5563 11.3879 22.3855C11.7939 22.2767 12.0348 21.8595 11.926 21.4535C11.8172 21.0477 11.4 20.8066 10.9941 20.9156C9.60512 21.2878 9.25129 22.219 8.99296 22.899C8.73273 23.584 8.56076 24.0365 7.4693 24.329C7.46824 24.3293 7.46732 24.3297 7.46633 24.33C7.46565 24.3302 7.46489 24.3302 7.4642 24.3304C7.13541 24.421 6.80654 24.4669 6.48688 24.4669C5.18473 24.4669 4.00005 23.6757 3.46886 22.451C2.96064 21.2794 3.18291 20.0183 4.06336 19.0775C4.22909 18.9004 4.30046 18.6548 4.25549 18.4166C4.21052 18.1782 4.05461 17.9755 3.8357 17.871C2.48066 17.2238 1.63893 15.9165 1.63893 14.459C1.63893 12.8868 2.61785 11.4974 4.13291 10.9193C4.51382 10.774 4.7125 10.3542 4.58337 9.96743C4.26721 9.02062 4.42023 8.00191 5.00317 7.17266C5.61472 6.30271 6.58824 5.78871 7.67498 5.76147C8.96975 5.76428 9.25548 6.28094 9.65032 6.99544C10.0099 7.64626 10.5023 8.53752 11.8265 8.53752C12.2467 8.53752 12.5874 8.19678 12.5874 7.7766C12.5874 7.35642 12.2467 7.01568 11.8265 7.01568C11.4344 7.01568 11.3317 6.89173 10.9824 6.25948C10.5955 5.55929 10.036 4.54796 8.44548 4.29761C8.52431 3.81572 8.74277 3.36481 9.08709 2.98838C9.59888 2.42873 10.3373 2.10777 11.1126 2.10777C12.6018 2.10777 13.8134 3.2738 13.8134 4.70706V14.999C12.0268 14.8253 11.5804 14.0085 11.0333 13.0043C10.4978 12.0215 9.83149 10.7984 7.82876 10.5866C7.41117 10.5412 7.03619 10.8452 6.99198 11.2633C6.94777 11.6812 7.25077 12.0558 7.66866 12.1C8.87715 12.2278 9.20328 12.8263 9.69689 13.7324C9.87555 14.0603 10.0662 14.4091 10.3087 14.7457C9.90781 15.1531 9.30303 15.5751 8.61676 15.9152C8.24026 16.1019 8.08633 16.5584 8.27298 16.9349C8.40576 17.2029 8.67528 17.3581 8.9553 17.3581C9.06883 17.3581 9.18403 17.3326 9.29269 17.2788C10.1454 16.8561 10.8782 16.339 11.4046 15.7999C11.9803 16.1673 12.7476 16.4378 13.8135 16.5247V25.3797ZM25.4704 22.8574C24.869 23.8523 23.5165 24.8347 21.6847 24.3304C21.684 24.3302 21.6832 24.3301 21.6825 24.33C21.6815 24.3297 21.6806 24.3293 21.6796 24.329C20.5881 24.0365 20.4162 23.584 20.1559 22.899C19.8975 22.219 19.5438 21.2877 18.1548 20.9156C17.7488 20.8068 17.3316 21.0477 17.2229 21.4535C17.1141 21.8595 17.355 22.2767 17.7609 22.3855C18.3977 22.5562 18.5099 22.8514 18.7334 23.4395C18.9994 24.1397 19.3538 25.0697 20.7258 25.6144C20.6758 26.1584 20.4505 26.6709 20.0682 27.0916C19.5557 27.6555 18.8151 27.9789 18.0362 27.9789C16.547 27.9789 15.3354 26.8129 15.3354 25.3797V19.9357C15.3358 18.5653 16.0569 17.8837 16.7319 17.7028C17.5693 17.4787 18.4465 17.9147 18.9661 18.8145C19.1762 19.1783 19.6415 19.3031 20.0055 19.093C20.3694 18.8828 20.4941 18.4175 20.284 18.0535C19.4232 16.5628 17.8374 15.8311 16.338 16.2328C15.9704 16.3313 15.6345 16.4903 15.3355 16.6996V4.70706C15.3355 3.2738 16.5471 2.10777 18.0363 2.10777C18.8118 2.10777 19.5501 2.42873 20.0621 2.9883C20.4064 3.36473 20.6249 3.81565 20.7037 4.29754C19.1132 4.54788 18.5537 5.55921 18.1668 6.25941C17.8175 6.89165 17.7148 7.01561 17.3227 7.01561C16.9025 7.01561 16.5618 7.35635 16.5618 7.77652C16.5618 8.1967 16.9025 8.53744 17.3227 8.53744C18.6468 8.53744 19.1393 7.64618 19.4989 6.99537C19.8937 6.28071 20.1795 5.76405 21.475 5.76139C22.7455 5.79365 23.8568 6.51789 24.3912 7.58089C24.3585 7.58028 24.326 7.57838 24.2932 7.57838C21.1464 7.57838 18.5863 10.1385 18.5863 13.2853C18.5863 16.432 21.1464 18.9921 24.2932 18.9921C24.5288 18.9921 24.7605 18.9761 24.9886 18.9482C25.0157 18.9938 25.0479 19.0372 25.0856 19.0775C26.2814 20.3553 26.0685 21.8679 25.4704 22.8574ZM24.293 17.4704C21.9854 17.4704 20.108 15.593 20.108 13.2853C20.108 10.9777 21.9854 9.10029 24.293 9.10029C26.6007 9.10029 28.4781 10.9777 28.4781 13.2853C28.4781 15.593 26.6007 17.4704 24.293 17.4704Z"/></mask><path d="M29.9999 13.2853C29.9999 10.775 28.3699 8.63963 26.1134 7.87795C25.6588 6.03578 24.125 4.64025 22.2406 4.31207C22.1575 3.44318 21.7947 2.62771 21.1848 1.96114C20.3853 1.08715 19.2376 0.585938 18.0362 0.585938C16.6049 0.585938 15.3385 1.28514 14.5744 2.35134C13.8104 1.28514 12.544 0.585938 11.1126 0.585938C9.91124 0.585938 8.76362 1.08715 7.96405 1.96107C7.35463 2.62725 6.9919 3.44219 6.90843 4.31032C5.63192 4.52764 4.50972 5.22821 3.75801 6.29746C3.03019 7.33291 2.75565 8.57062 2.96909 9.77819C1.2167 10.7022 0.116943 12.4751 0.116943 14.459C0.116943 16.2003 0.964377 17.786 2.37808 18.7767C1.56474 20.0594 1.44231 21.6034 2.07258 23.0566C2.84521 24.8377 4.57789 25.9887 6.48673 25.9887C6.63534 25.9887 6.78478 25.9818 6.93468 25.9682C7.05278 26.7591 7.4044 27.5095 7.95431 28.1148C8.75457 28.9956 9.90576 29.5008 11.1126 29.5008C12.544 29.5008 13.8104 28.8016 14.5744 27.7354C15.3385 28.8016 16.6049 29.5008 18.0362 29.5008C19.2432 29.5008 20.3943 28.9956 21.1945 28.1149C21.7445 27.5095 22.0961 26.759 22.2141 25.9681C24.0605 26.1339 25.7843 25.28 26.7728 23.6446C27.7785 21.9808 27.6912 20.0246 26.5869 18.5093C28.5943 17.6243 29.9999 15.6164 29.9999 13.2853ZM13.8135 25.3797C13.8135 26.8129 12.6019 27.9789 11.1126 27.9789C10.3337 27.9789 9.5931 27.6555 9.0807 27.0916C8.69841 26.6709 8.47303 26.1584 8.42311 25.6145C9.79512 25.0697 10.1496 24.1397 10.4156 23.4395C10.6391 22.8514 10.7512 22.5563 11.3879 22.3855C11.7939 22.2767 12.0348 21.8595 11.926 21.4535C11.8172 21.0477 11.4 20.8066 10.9941 20.9156C9.60512 21.2878 9.25129 22.219 8.99296 22.899C8.73273 23.584 8.56076 24.0365 7.4693 24.329C7.46824 24.3293 7.46732 24.3297 7.46633 24.33C7.46565 24.3302 7.46489 24.3302 7.4642 24.3304C7.13541 24.421 6.80654 24.4669 6.48688 24.4669C5.18473 24.4669 4.00005 23.6757 3.46886 22.451C2.96064 21.2794 3.18291 20.0183 4.06336 19.0775C4.22909 18.9004 4.30046 18.6548 4.25549 18.4166C4.21052 18.1782 4.05461 17.9755 3.8357 17.871C2.48066 17.2238 1.63893 15.9165 1.63893 14.459C1.63893 12.8868 2.61785 11.4974 4.13291 10.9193C4.51382 10.774 4.7125 10.3542 4.58337 9.96743C4.26721 9.02062 4.42023 8.00191 5.00317 7.17266C5.61472 6.30271 6.58824 5.78871 7.67498 5.76147C8.96975 5.76428 9.25548 6.28094 9.65032 6.99544C10.0099 7.64626 10.5023 8.53752 11.8265 8.53752C12.2467 8.53752 12.5874 8.19678 12.5874 7.7766C12.5874 7.35642 12.2467 7.01568 11.8265 7.01568C11.4344 7.01568 11.3317 6.89173 10.9824 6.25948C10.5955 5.55929 10.036 4.54796 8.44548 4.29761C8.52431 3.81572 8.74277 3.36481 9.08709 2.98838C9.59888 2.42873 10.3373 2.10777 11.1126 2.10777C12.6018 2.10777 13.8134 3.2738 13.8134 4.70706V14.999C12.0268 14.8253 11.5804 14.0085 11.0333 13.0043C10.4978 12.0215 9.83149 10.7984 7.82876 10.5866C7.41117 10.5412 7.03619 10.8452 6.99198 11.2633C6.94777 11.6812 7.25077 12.0558 7.66866 12.1C8.87715 12.2278 9.20328 12.8263 9.69689 13.7324C9.87555 14.0603 10.0662 14.4091 10.3087 14.7457C9.90781 15.1531 9.30303 15.5751 8.61676 15.9152C8.24026 16.1019 8.08633 16.5584 8.27298 16.9349C8.40576 17.2029 8.67528 17.3581 8.9553 17.3581C9.06883 17.3581 9.18403 17.3326 9.29269 17.2788C10.1454 16.8561 10.8782 16.339 11.4046 15.7999C11.9803 16.1673 12.7476 16.4378 13.8135 16.5247V25.3797ZM25.4704 22.8574C24.869 23.8523 23.5165 24.8347 21.6847 24.3304C21.684 24.3302 21.6832 24.3301 21.6825 24.33C21.6815 24.3297 21.6806 24.3293 21.6796 24.329C20.5881 24.0365 20.4162 23.584 20.1559 22.899C19.8975 22.219 19.5438 21.2877 18.1548 20.9156C17.7488 20.8068 17.3316 21.0477 17.2229 21.4535C17.1141 21.8595 17.355 22.2767 17.7609 22.3855C18.3977 22.5562 18.5099 22.8514 18.7334 23.4395C18.9994 24.1397 19.3538 25.0697 20.7258 25.6144C20.6758 26.1584 20.4505 26.6709 20.0682 27.0916C19.5557 27.6555 18.8151 27.9789 18.0362 27.9789C16.547 27.9789 15.3354 26.8129 15.3354 25.3797V19.9357C15.3358 18.5653 16.0569 17.8837 16.7319 17.7028C17.5693 17.4787 18.4465 17.9147 18.9661 18.8145C19.1762 19.1783 19.6415 19.3031 20.0055 19.093C20.3694 18.8828 20.4941 18.4175 20.284 18.0535C19.4232 16.5628 17.8374 15.8311 16.338 16.2328C15.9704 16.3313 15.6345 16.4903 15.3355 16.6996V4.70706C15.3355 3.2738 16.5471 2.10777 18.0363 2.10777C18.8118 2.10777 19.5501 2.42873 20.0621 2.9883C20.4064 3.36473 20.6249 3.81565 20.7037 4.29754C19.1132 4.54788 18.5537 5.55921 18.1668 6.25941C17.8175 6.89165 17.7148 7.01561 17.3227 7.01561C16.9025 7.01561 16.5618 7.35635 16.5618 7.77652C16.5618 8.1967 16.9025 8.53744 17.3227 8.53744C18.6468 8.53744 19.1393 7.64618 19.4989 6.99537C19.8937 6.28071 20.1795 5.76405 21.475 5.76139C22.7455 5.79365 23.8568 6.51789 24.3912 7.58089C24.3585 7.58028 24.326 7.57838 24.2932 7.57838C21.1464 7.57838 18.5863 10.1385 18.5863 13.2853C18.5863 16.432 21.1464 18.9921 24.2932 18.9921C24.5288 18.9921 24.7605 18.9761 24.9886 18.9482C25.0157 18.9938 25.0479 19.0372 25.0856 19.0775C26.2814 20.3553 26.0685 21.8679 25.4704 22.8574ZM24.293 17.4704C21.9854 17.4704 20.108 15.593 20.108 13.2853C20.108 10.9777 21.9854 9.10029 24.293 9.10029C26.6007 9.10029 28.4781 10.9777 28.4781 13.2853C28.4781 15.593 26.6007 17.4704 24.293 17.4704Z" fill="#fff"/><path d="M29.9999 13.2853C29.9999 10.775 28.3699 8.63963 26.1134 7.87795C25.6588 6.03578 24.125 4.64025 22.2406 4.31207C22.1575 3.44318 21.7947 2.62771 21.1848 1.96114C20.3853 1.08715 19.2376 0.585938 18.0362 0.585938C16.6049 0.585938 15.3385 1.28514 14.5744 2.35134C13.8104 1.28514 12.544 0.585938 11.1126 0.585938C9.91124 0.585938 8.76362 1.08715 7.96405 1.96107C7.35463 2.62725 6.9919 3.44219 6.90843 4.31032C5.63192 4.52764 4.50972 5.22821 3.75801 6.29746C3.03019 7.33291 2.75565 8.57062 2.96909 9.77819C1.2167 10.7022 0.116943 12.4751 0.116943 14.459C0.116943 16.2003 0.964377 17.786 2.37808 18.7767C1.56474 20.0594 1.44231 21.6034 2.07258 23.0566C2.84521 24.8377 4.57789 25.9887 6.48673 25.9887C6.63534 25.9887 6.78478 25.9818 6.93468 25.9682C7.05278 26.7591 7.4044 27.5095 7.95431 28.1148C8.75457 28.9956 9.90576 29.5008 11.1126 29.5008C12.544 29.5008 13.8104 28.8016 14.5744 27.7354C15.3385 28.8016 16.6049 29.5008 18.0362 29.5008C19.2432 29.5008 20.3943 28.9956 21.1945 28.1149C21.7445 27.5095 22.0961 26.759 22.2141 25.9681C24.0605 26.1339 25.7843 25.28 26.7728 23.6446C27.7785 21.9808 27.6912 20.0246 26.5869 18.5093C28.5943 17.6243 29.9999 15.6164 29.9999 13.2853ZM13.8135 25.3797C13.8135 26.8129 12.6019 27.9789 11.1126 27.9789C10.3337 27.9789 9.5931 27.6555 9.0807 27.0916C8.69841 26.6709 8.47303 26.1584 8.42311 25.6145C9.79512 25.0697 10.1496 24.1397 10.4156 23.4395C10.6391 22.8514 10.7512 22.5563 11.3879 22.3855C11.7939 22.2767 12.0348 21.8595 11.926 21.4535C11.8172 21.0477 11.4 20.8066 10.9941 20.9156C9.60512 21.2878 9.25129 22.219 8.99296 22.899C8.73273 23.584 8.56076 24.0365 7.4693 24.329C7.46824 24.3293 7.46732 24.3297 7.46633 24.33C7.46565 24.3302 7.46489 24.3302 7.4642 24.3304C7.13541 24.421 6.80654 24.4669 6.48688 24.4669C5.18473 24.4669 4.00005 23.6757 3.46886 22.451C2.96064 21.2794 3.18291 20.0183 4.06336 19.0775C4.22909 18.9004 4.30046 18.6548 4.25549 18.4166C4.21052 18.1782 4.05461 17.9755 3.8357 17.871C2.48066 17.2238 1.63893 15.9165 1.63893 14.459C1.63893 12.8868 2.61785 11.4974 4.13291 10.9193C4.51382 10.774 4.7125 10.3542 4.58337 9.96743C4.26721 9.02062 4.42023 8.00191 5.00317 7.17266C5.61472 6.30271 6.58824 5.78871 7.67498 5.76147C8.96975 5.76428 9.25548 6.28094 9.65032 6.99544C10.0099 7.64626 10.5023 8.53752 11.8265 8.53752C12.2467 8.53752 12.5874 8.19678 12.5874 7.7766C12.5874 7.35642 12.2467 7.01568 11.8265 7.01568C11.4344 7.01568 11.3317 6.89173 10.9824 6.25948C10.5955 5.55929 10.036 4.54796 8.44548 4.29761C8.52431 3.81572 8.74277 3.36481 9.08709 2.98838C9.59888 2.42873 10.3373 2.10777 11.1126 2.10777C12.6018 2.10777 13.8134 3.2738 13.8134 4.70706V14.999C12.0268 14.8253 11.5804 14.0085 11.0333 13.0043C10.4978 12.0215 9.83149 10.7984 7.82876 10.5866C7.41117 10.5412 7.03619 10.8452 6.99198 11.2633C6.94777 11.6812 7.25077 12.0558 7.66866 12.1C8.87715 12.2278 9.20328 12.8263 9.69689 13.7324C9.87555 14.0603 10.0662 14.4091 10.3087 14.7457C9.90781 15.1531 9.30303 15.5751 8.61676 15.9152C8.24026 16.1019 8.08633 16.5584 8.27298 16.9349C8.40576 17.2029 8.67528 17.3581 8.9553 17.3581C9.06883 17.3581 9.18403 17.3326 9.29269 17.2788C10.1454 16.8561 10.8782 16.339 11.4046 15.7999C11.9803 16.1673 12.7476 16.4378 13.8135 16.5247V25.3797ZM25.4704 22.8574C24.869 23.8523 23.5165 24.8347 21.6847 24.3304C21.684 24.3302 21.6832 24.3301 21.6825 24.33C21.6815 24.3297 21.6806 24.3293 21.6796 24.329C20.5881 24.0365 20.4162 23.584 20.1559 22.899C19.8975 22.219 19.5438 21.2877 18.1548 20.9156C17.7488 20.8068 17.3316 21.0477 17.2229 21.4535C17.1141 21.8595 17.355 22.2767 17.7609 22.3855C18.3977 22.5562 18.5099 22.8514 18.7334 23.4395C18.9994 24.1397 19.3538 25.0697 20.7258 25.6144C20.6758 26.1584 20.4505 26.6709 20.0682 27.0916C19.5557 27.6555 18.8151 27.9789 18.0362 27.9789C16.547 27.9789 15.3354 26.8129 15.3354 25.3797V19.9357C15.3358 18.5653 16.0569 17.8837 16.7319 17.7028C17.5693 17.4787 18.4465 17.9147 18.9661 18.8145C19.1762 19.1783 19.6415 19.3031 20.0055 19.093C20.3694 18.8828 20.4941 18.4175 20.284 18.0535C19.4232 16.5628 17.8374 15.8311 16.338 16.2328C15.9704 16.3313 15.6345 16.4903 15.3355 16.6996V4.70706C15.3355 3.2738 16.5471 2.10777 18.0363 2.10777C18.8118 2.10777 19.5501 2.42873 20.0621 2.9883C20.4064 3.36473 20.6249 3.81565 20.7037 4.29754C19.1132 4.54788 18.5537 5.55921 18.1668 6.25941C17.8175 6.89165 17.7148 7.01561 17.3227 7.01561C16.9025 7.01561 16.5618 7.35635 16.5618 7.77652C16.5618 8.1967 16.9025 8.53744 17.3227 8.53744C18.6468 8.53744 19.1393 7.64618 19.4989 6.99537C19.8937 6.28071 20.1795 5.76405 21.475 5.76139C22.7455 5.79365 23.8568 6.51789 24.3912 7.58089C24.3585 7.58028 24.326 7.57838 24.2932 7.57838C21.1464 7.57838 18.5863 10.1385 18.5863 13.2853C18.5863 16.432 21.1464 18.9921 24.2932 18.9921C24.5288 18.9921 24.7605 18.9761 24.9886 18.9482C25.0157 18.9938 25.0479 19.0372 25.0856 19.0775C26.2814 20.3553 26.0685 21.8679 25.4704 22.8574ZM24.293 17.4704C21.9854 17.4704 20.108 15.593 20.108 13.2853C20.108 10.9777 21.9854 9.10029 24.293 9.10029C26.6007 9.10029 28.4781 10.9777 28.4781 13.2853C28.4781 15.593 26.6007 17.4704 24.293 17.4704Z" stroke="#fff" stroke-width=".4" mask="url(#aca)"/><path d="M26.0243 12.5247H25.0541V11.0201C25.0541 10.5999 24.7134 10.2592 24.2931 10.2592C23.8729 10.2592 23.5322 10.5999 23.5322 11.0201V13.2856C23.5322 13.7058 23.8729 14.0465 24.2931 14.0465H26.0243C26.4446 14.0465 26.7852 13.7058 26.7852 13.2856C26.7852 12.8654 26.4446 12.5247 26.0243 12.5247Z" fill="#fff"/><path d="M26.0243 12.5247H25.0541V11.0201C25.0541 10.5999 24.7134 10.2592 24.2931 10.2592C23.8729 10.2592 23.5322 10.5999 23.5322 11.0201V13.2856C23.5322 13.7058 23.8729 14.0465 24.2931 14.0465H26.0243C26.4446 14.0465 26.7852 13.7058 26.7852 13.2856C26.7852 12.8654 26.4446 12.5247 26.0243 12.5247Z" stroke="#fff"/></g><defs><clipPath id="acclip0_30_18733"><path fill="#fff" d="M0 0H30V30H0z"/></clipPath></defs></symbol><symbol viewBox="0 0 30 30" fill="none" id="svg-availability"><path d="M27.0625 23.9211C28.9694 21.3541 30 18.2563 30 15 30 10.9934 28.4398 7.22654 25.6066 4.39336 22.7735 1.56029 19.0066 0 15 0V1.75781C18.5371 1.75781 21.8626 3.13523 24.3636 5.63637 26.8648 8.1375 28.2422 11.4629 28.2422 15 28.2422 17.8572 27.3429 20.576 25.6792 22.834L25.4777 20.5307 23.7265 20.6839 24.1862 25.9372 29.4396 25.4776 29.2864 23.7265 27.0625 23.9211zM1.75781 15.0002C1.75781 12.143 2.65705 9.42426 4.32082 7.16623L4.52232 9.46949 6.27346 9.31633 5.81385 4.06299.560449 4.52254.713613 6.27367 2.93742 6.07914C1.03061 8.64607 0 11.7439 0 15.0002 0 19.0069 1.56023 22.7737 4.39336 25.6069 7.22654 28.4399 10.9934 30.0002 15 30.0002V28.2424C11.4629 28.2424 8.13744 26.865 5.63637 24.3638 3.13523 21.8627 1.75781 18.5373 1.75781 15.0002zM15 17.6953C16.4886 17.6953 17.6953 16.4886 17.6953 15 17.6953 13.5114 16.4886 12.3047 15 12.3047 13.5114 12.3047 12.3047 13.5114 12.3047 15 12.3047 16.4886 13.5114 17.6953 15 17.6953z" fill="#fff"/><path d="M23.1432 11.4301L21.4186 11.9904C21.0334 11.1724 20.4965 10.4395 19.8442 9.82811L20.9118 8.35869L19.4896 7.32545L18.4234 8.79311C17.6514 8.36566 16.792 8.07797 15.8791 7.96459V6.15234H14.1213V7.96459C13.2084 8.07797 12.3489 8.36572 11.577 8.79311L10.5107 7.32545L9.08861 8.35869L10.1562 9.82811C9.50387 10.4395 8.96691 11.1724 8.58184 11.9904L6.85719 11.4301L6.31396 13.1018L8.03756 13.6618C7.95441 14.0954 7.91035 14.5426 7.91035 15C7.91035 15.4574 7.95441 15.9046 8.03756 16.3382L6.31396 16.8982L6.85719 18.5699L8.58184 18.0096C8.96697 18.8276 9.50387 19.5605 10.1562 20.1719L9.08861 21.6413L10.5107 22.6746L11.577 21.2069C12.3489 21.6343 13.2084 21.922 14.1213 22.0354V23.8477H15.8791V22.0354C16.792 21.922 17.6514 21.6343 18.4234 21.2069L19.4896 22.6746L20.9118 21.6413L19.8442 20.1719C20.4965 19.5605 21.0335 18.8276 21.4186 18.0096L23.1432 18.5699L23.6864 16.8982L21.9628 16.3382C22.046 15.9046 22.09 15.4574 22.09 15C22.09 14.5426 22.046 14.0954 21.9628 13.6618L23.6864 13.1018L23.1432 11.4301ZM19.4533 15C19.4533 17.4554 17.4557 19.4531 15.0002 19.4531C12.5447 19.4531 10.5471 17.4554 10.5471 15C10.5471 12.5446 12.5447 10.5469 15.0002 10.5469C17.4557 10.5469 19.4533 12.5446 19.4533 15Z" fill="#fff"/></symbol><symbol viewBox="0 0 24 25" fill="none" id="svg-brackets"><path d="M24 6.39755V2.86814C24 1.70046 23.0537 0.750488 21.8906 0.750488H2.10938C0.946266 0.750488 0 1.70046 0 2.86814V6.39755H24ZM16.2188 3.57402H20.4375C20.8258 3.57402 21.1406 3.89006 21.1406 4.2799C21.1406 4.66974 20.8258 4.98578 20.4375 4.98578H16.2188C15.8304 4.98578 15.5156 4.66974 15.5156 4.2799C15.5156 3.89006 15.8304 3.57402 16.2188 3.57402ZM9.1875 3.57402C9.57581 3.57402 9.89062 3.89006 9.89062 4.2799C9.89062 4.66974 9.57581 4.98578 9.1875 4.98578C8.79919 4.98578 8.48438 4.66974 8.48438 4.2799C8.48438 3.89006 8.79919 3.57402 9.1875 3.57402ZM6.375 3.57402C6.76331 3.57402 7.07812 3.89006 7.07812 4.2799C7.07812 4.66974 6.76331 4.98578 6.375 4.98578C5.98669 4.98578 5.67188 4.66974 5.67188 4.2799C5.67188 3.89006 5.98669 3.57402 6.375 3.57402ZM3.5625 3.57402C3.95081 3.57402 4.26562 3.89006 4.26562 4.2799C4.26562 4.66974 3.95081 4.98578 3.5625 4.98578C3.17419 4.98578 2.85938 4.66974 2.85938 4.2799C2.85938 3.89006 3.17419 3.57402 3.5625 3.57402Z" fill="url(#aepaint0_linear_30_17273)"/><path d="M0 7.80933V22.6329C0 23.8005 0.946266 24.7505 2.10938 24.7505H21.8906C23.0537 24.7505 24 23.8005 24 22.6329V7.80933H0ZM8.22047 17.8464C8.52375 18.0899 8.57288 18.5341 8.3303 18.8385C8.08777 19.1429 7.64522 19.1923 7.34203 18.9487L3.82641 16.1252C3.47489 15.843 3.47466 15.3052 3.82641 15.0228L7.34203 12.1993C7.64513 11.9557 8.08767 12.005 8.3303 12.3095C8.57288 12.6139 8.52375 13.0581 8.22047 13.3016L5.39119 15.574L8.22047 17.8464ZM14.7556 10.9109L10.5369 20.7933C10.3839 21.1515 9.97069 21.3177 9.61364 21.164C9.25673 21.0105 9.09136 20.5954 9.24436 20.2371L13.4631 10.3548C13.6161 9.99648 14.0295 9.8305 14.3864 9.98406C14.7433 10.1376 14.9086 10.5526 14.7556 10.9109ZM20.1736 16.1252L16.658 18.9488C16.3552 19.192 15.9127 19.1434 15.6697 18.8385C15.4271 18.5341 15.4763 18.0899 15.7795 17.8464L18.6088 15.574L15.7795 13.3017C15.4763 13.0582 15.4271 12.614 15.6697 12.3096C15.9122 12.0051 16.3547 11.9558 16.658 12.1993L20.1736 15.0229C20.5251 15.3051 20.5253 15.8428 20.1736 16.1252Z" fill="url(#aepaint1_linear_30_17273)"/><defs><linearGradient id="aepaint0_linear_30_17273" x1="0" y1="3.574" x2="24" y2="3.574" gradientUnits="userSpaceOnUse"><stop stop-color="#6A11CB"/><stop offset="1" stop-color="#2575FC"/></linearGradient><linearGradient id="aepaint1_linear_30_17273" x1="0" y1="16.28" x2="24" y2="16.28" gradientUnits="userSpaceOnUse"><stop stop-color="#6A11CB"/><stop offset="1" stop-color="#2575FC"/></linearGradient></defs></symbol><symbol viewBox="0 0 16 16" fill="none" id="svg-close"><path d="M13.9716 14.57L1.36141 1.95975M1.36133 14.5702L13.9716 1.95996" stroke="#000" stroke-width="1.513" stroke-linecap="round"/></symbol><symbol viewBox="0 0 24 24" fill="none" id="svg-compas"><path d="M12 0C5.37003 0 0 5.37003 0 12C0 18.624 5.37003 24 12 24C18.63 24 24 18.624 24 12C24.0001 5.37003 18.63 0 12 0ZM14.628 14.628L4.79999 19.2L9.372 9.372L19.2 4.79999L14.628 14.628Z" fill="url(#agpaint0_linear_30_17171)"/><defs><linearGradient id="agpaint0_linear_30_17171" x1="0" y1="12" x2="24" y2="12" gradientUnits="userSpaceOnUse"><stop stop-color="#6A11CB"/><stop offset="1" stop-color="#2575FC"/></linearGradient></defs></symbol><symbol viewBox="0 0 24 25" fill="none" id="svg-constant_confidence"><g clip-path="url(#ahclip0_30_17086)"><path d="M15.4911 13.4536C15.1644 15.0563 13.6974 16.2661 11.9997 16.2661C10.3021 16.2661 8.88194 15.0563 8.55527 13.4536H7.14893C7.49378 15.8325 9.52685 17.6724 11.9997 17.6724C14.4726 17.6724 16.5526 15.8325 16.8974 13.4536H15.4911Z" fill="url(#ahpaint0_linear_30_17086)"/><path d="M18.3039 13.4536C17.949 16.609 15.2488 19.0786 12 19.0786C8.75123 19.0786 6.09792 16.609 5.74294 13.4536H0V14.1567C0 14.4596 0.194344 14.7287 0.481359 14.8241L3.37439 15.7683C3.49594 16.113 3.62433 16.4268 3.76167 16.7165L2.42681 19.3986C2.29223 19.6691 2.34577 19.9953 2.55933 20.2088L4.54167 22.1912C4.75659 22.4061 5.08205 22.4569 5.35191 22.3237L8.03395 20.9888C8.32373 21.1262 8.63752 21.2546 8.98219 21.3761L9.92634 24.2691C10.0218 24.5561 10.2909 24.7505 10.5938 24.7505H13.4531C13.7559 24.7505 14.0251 24.5561 14.1205 24.2691L15.0647 21.3761C15.4094 21.2546 15.7232 21.1262 16.0129 20.9888L18.695 22.3237C18.9648 22.4576 19.291 22.4061 19.5052 22.1912L21.4875 20.2088C21.7011 19.9953 21.7546 19.6691 21.6201 19.3986L20.2852 16.7165C20.4225 16.4268 20.5509 16.113 20.6725 15.7683L23.5186 14.8241C23.8057 14.7287 24 14.4596 24 14.1567V13.4536H18.3039Z" fill="url(#ahpaint1_linear_30_17086)"/><path d="M10.02 13.4536C10.3113 14.2703 11.0844 14.8599 11.9999 14.8599C12.9153 14.8599 13.7354 14.2703 14.0266 13.4536H10.02Z" fill="url(#ahpaint2_linear_30_17086)"/><path d="M12 0.750488C10.4489 0.750488 9.1875 2.01185 9.1875 3.56299C9.1875 5.11413 10.4489 6.37549 12 6.37549C13.5511 6.37549 14.8594 5.11413 14.8594 3.56299C14.8594 2.01185 13.5511 0.750488 12 0.750488Z" fill="url(#ahpaint3_linear_30_17086)"/><path d="M19.0781 0.750488C17.527 0.750488 16.2656 2.01185 16.2656 3.56299C16.2656 5.11413 17.527 6.37549 19.0781 6.37549C20.6293 6.37549 21.8906 5.11413 21.8906 3.56299C21.8906 2.01185 20.6293 0.750488 19.0781 0.750488Z" fill="url(#ahpaint4_linear_30_17086)"/><path d="M4.96875 0.750488C3.41761 0.750488 2.15625 2.01185 2.15625 3.56299C2.15625 5.11413 3.41761 6.37549 4.96875 6.37549C6.51989 6.37549 7.78125 5.11413 7.78125 3.56299C7.78125 2.01185 6.51989 0.750488 4.96875 0.750488Z" fill="url(#ahpaint5_linear_30_17086)"/><path d="M21.4764 7.02649C20.7945 7.50035 19.9697 7.78197 19.0781 7.78197C18.1902 7.78197 17.368 7.50335 16.6876 7.0331C16.3792 7.21015 16.0828 7.40922 15.8145 7.64927C17.1818 8.67143 18.1312 10.2678 18.332 12.0476H24V11.3445C24 9.5059 22.9743 7.87141 21.4764 7.02649Z" fill="url(#ahpaint6_linear_30_17086)"/><path d="M12.0002 7.78174C9.52481 7.78174 7.47037 9.66541 7.12842 12.0474H16.9188C16.5769 9.66541 14.4756 7.78174 12.0002 7.78174Z" fill="url(#ahpaint7_linear_30_17086)"/><path d="M7.35923 7.0331C6.67884 7.50335 5.85666 7.78197 4.96875 7.78197C4.07714 7.78197 3.25237 7.50035 2.57039 7.02649C1.07255 7.87141 0 9.5059 0 11.3445V12.0476H5.71481C5.91562 10.2678 6.86498 8.67143 8.23237 7.64927C7.96397 7.40922 7.66762 7.21015 7.35923 7.0331Z" fill="url(#ahpaint8_linear_30_17086)"/></g><defs><linearGradient id="ahpaint0_linear_30_17086" x1="7.149" y1="15.563" x2="16.897" y2="15.563" gradientUnits="userSpaceOnUse"><stop stop-color="#6A11CB"/><stop offset="1" stop-color="#2575FC"/></linearGradient><linearGradient id="ahpaint1_linear_30_17086" x1="0" y1="19.102" x2="24" y2="19.102" gradientUnits="userSpaceOnUse"><stop stop-color="#6A11CB"/><stop offset="1" stop-color="#2575FC"/></linearGradient><linearGradient id="ahpaint2_linear_30_17086" x1="10.02" y1="14.157" x2="14.027" y2="14.157" gradientUnits="userSpaceOnUse"><stop stop-color="#6A11CB"/><stop offset="1" stop-color="#2575FC"/></linearGradient><linearGradient id="ahpaint3_linear_30_17086" x1="9.188" y1="3.563" x2="14.859" y2="3.563" gradientUnits="userSpaceOnUse"><stop stop-color="#6A11CB"/><stop offset="1" stop-color="#2575FC"/></linearGradient><linearGradient id="ahpaint4_linear_30_17086" x1="16.266" y1="3.563" x2="21.891" y2="3.563" gradientUnits="userSpaceOnUse"><stop stop-color="#6A11CB"/><stop offset="1" stop-color="#2575FC"/></linearGradient><linearGradient id="ahpaint5_linear_30_17086" x1="2.156" y1="3.563" x2="7.781" y2="3.563" gradientUnits="userSpaceOnUse"><stop stop-color="#6A11CB"/><stop offset="1" stop-color="#2575FC"/></linearGradient><linearGradient id="ahpaint6_linear_30_17086" x1="15.815" y1="9.537" x2="24" y2="9.537" gradientUnits="userSpaceOnUse"><stop stop-color="#6A11CB"/><stop offset="1" stop-color="#2575FC"/></linearGradient><linearGradient id="ahpaint7_linear_30_17086" x1="7.128" y1="9.915" x2="16.919" y2="9.915" gradientUnits="userSpaceOnUse"><stop stop-color="#6A11CB"/><stop offset="1" stop-color="#2575FC"/></linearGradient><linearGradient id="ahpaint8_linear_30_17086" x1="0" y1="9.537" x2="8.232" y2="9.537" gradientUnits="userSpaceOnUse"><stop stop-color="#6A11CB"/><stop offset="1" stop-color="#2575FC"/></linearGradient><clipPath id="ahclip0_30_17086"><path fill="#fff" transform="translate(0 .75)" d="M0 0H24V24H0z"/></clipPath></defs></symbol><symbol viewBox="0 0 91 91" fill="none" id="svg-develop"><path d="M67.4362 83.7129C67.8719 82.0443 67.5652 80.2525 66.5413 78.8004L55.6309 63.3249L61.7861 54.8275C62.0847 54.4152 62.5423 54.209 63 54.209C63.4577 54.209 63.9153 54.4152 64.2141 54.8275L83.4276 81.3521C84.1413 82.3373 83.4339 83.7129 82.2135 83.7129H67.4362Z" fill="#000"/><path d="M37.1263 38.9238V31.1244H55.8145C56.6289 31.1244 57.3794 30.6843 57.7748 29.975C58.1703 29.2657 58.1488 28.3982 57.7186 27.7091L53.8046 21.4405L57.7186 15.1719C58.1489 14.4828 58.1704 13.6155 57.7748 12.906C57.3793 12.1966 56.629 11.7566 55.8145 11.7566H37.1263V9.52186C37.1263 8.28768 36.1222 7.28711 34.8837 7.28711C33.6452 7.28711 32.6411 8.28768 32.6411 9.52186V38.9238C33.9228 37.5214 35.815 37.4933 37.1263 38.9238Z" fill="url(#aipaint0_linear_30_10766)"/><path d="M22.9892 59.3633L28.3418 64.3521C28.7723 64.7533 29.3212 64.954 29.8702 64.954C30.4193 64.954 30.9681 64.7533 31.3986 64.3521L35.2809 60.7337L39.1625 64.3519C40.0236 65.1547 41.3584 65.1547 42.2195 64.3519L47.5713 59.3633L62.9996 81.3585C63.6947 82.3495 62.9862 83.7129 61.776 83.7129H43.9436H8.78456C7.57437 83.7129 6.86583 82.3495 7.56091 81.3585L22.9892 59.3633Z" fill="#000"/><path d="M40.6671 59.7186L36.8027 56.0981C35.9455 55.2949 34.6167 55.2948 33.7593 56.0979L29.8939 59.7188L25.5938 55.7822L34.062 43.6486C34.3583 43.2241 34.8192 43.0117 35.2803 43.0117C35.7412 43.0117 36.2022 43.2241 36.4985 43.6486L44.9668 55.7822L40.6671 59.7186Z" fill="#000"/><defs><linearGradient id="aipaint0_linear_30_10766" x1="32.641" y1="23.105" x2="58.057" y2="23.105" gradientUnits="userSpaceOnUse"><stop stop-color="#6A11CB"/><stop offset="1" stop-color="#2575FC"/></linearGradient></defs></symbol><symbol viewBox="0 0 30 30" fill="none" id="svg-experiences"><g clip-path="url(#ajclip0_30_18690)" fill="#fff"><path d="M17.0789 30H12.9214C11.9064 30 11.0426 29.3062 10.8201 28.3137L10.2926 25.9725C9.43388 25.6087 8.61638 25.1337 7.85013 24.555L5.57263 25.2738C4.59512 25.575 3.53262 25.1612 3.04262 24.2887L0.970124 20.7038C0.473874 19.8162 0.641374 18.7225 1.37262 18.035L3.13762 16.4125C3.08387 15.9375 3.05637 15.4637 3.05637 15C3.05637 14.5363 3.08262 14.0625 3.13637 13.5875L1.38012 11.9725C0.641374 11.2775 0.472624 10.185 0.963874 9.30875L3.04887 5.7025C3.53387 4.84 4.59512 4.4225 5.57012 4.72625L7.85013 5.445C8.61638 4.86625 9.43513 4.39125 10.2926 4.0275L10.8201 1.685C11.0426 0.69375 11.9064 0 12.9214 0H17.0789C18.0939 0 18.9576 0.69375 19.1801 1.68625L19.7076 4.0275C20.5664 4.39125 21.3839 4.86625 22.1501 5.445L24.4276 4.72625C25.4026 4.42125 26.4664 4.83875 26.9576 5.71125L29.0301 9.29625C29.5264 10.1838 29.3589 11.2775 28.6276 11.965L26.8626 13.5875C26.9164 14.0625 26.9426 14.5363 26.9426 15C26.9426 15.4637 26.9164 15.9375 26.8626 16.4125L28.6201 18.0275C28.6226 18.03 28.6251 18.0325 28.6276 18.035C29.3589 18.7225 29.5276 19.815 29.0364 20.6912L26.9514 24.2975C26.4651 25.16 25.4039 25.5775 24.4301 25.2738L22.1489 24.5537C21.3826 25.1325 20.5639 25.6075 19.7064 25.9713L19.1789 28.3137C18.9576 29.3062 18.0939 30 17.0789 30ZM8.04263 22.5737C8.25763 22.5737 8.46888 22.6475 8.64013 22.7875C9.49638 23.4937 10.4339 24.0375 11.4251 24.4038C11.7226 24.5138 11.9451 24.7675 12.0151 25.0775L12.6514 27.9025C12.6801 28.0312 12.7951 28.125 12.9239 28.125H17.0814C17.2101 28.125 17.3239 28.0312 17.3539 27.9037L17.9901 25.0788C18.0601 24.7687 18.2814 24.515 18.5801 24.405C19.5714 24.0387 20.5089 23.4938 21.3651 22.7888C21.6101 22.5863 21.9389 22.5212 22.2439 22.6175L24.9951 23.4862C25.1251 23.5262 25.2651 23.4812 25.3264 23.37L27.4114 19.765C27.4739 19.6537 27.4514 19.5012 27.3501 19.4037L25.2401 17.4637C25.0101 17.2525 24.9014 16.9425 24.9489 16.6338C25.0314 16.0837 25.0739 15.5337 25.0739 15C25.0739 14.4663 25.0326 13.9175 24.9489 13.3663C24.9026 13.0575 25.0114 12.7475 25.2401 12.5363L27.3551 10.5912C27.4501 10.5012 27.4751 10.3475 27.4051 10.2238L25.3326 6.64C25.2651 6.52125 25.1301 6.475 24.9926 6.515L22.2451 7.3825C21.9401 7.47875 21.6114 7.41375 21.3664 7.21125C20.5101 6.505 19.5726 5.96125 18.5814 5.595C18.2839 5.485 18.0614 5.23125 17.9914 4.92125L17.3551 2.09625C17.3214 1.96875 17.2076 1.875 17.0789 1.875H12.9214C12.7926 1.875 12.6789 1.96875 12.6489 2.09625L12.0126 4.9225C11.9439 5.2325 11.7214 5.485 11.4239 5.59625C10.4326 5.9625 9.49512 6.50625 8.63888 7.2125C8.39388 7.415 8.06513 7.47875 7.76013 7.38375L5.00887 6.515C4.87887 6.475 4.73887 6.52125 4.67762 6.63125L2.59262 10.235C2.52887 10.3475 2.55387 10.5013 2.65637 10.5988L4.76512 12.5363C4.99512 12.7475 5.10387 13.0575 5.05637 13.3663C4.97387 13.9163 4.93137 14.4663 4.93137 15C4.93137 15.5337 4.97262 16.0825 5.05637 16.6338C5.10262 16.9425 4.99387 17.2525 4.76512 17.4637L2.65012 19.4088C2.55512 19.4988 2.53012 19.6525 2.60012 19.7763L4.67262 23.36C4.74137 23.48 4.87762 23.5287 5.01262 23.485L7.76013 22.6175C7.85263 22.5875 7.94763 22.5737 8.04263 22.5737Z"/><path d="M14.0639 20C13.9926 20 13.9226 19.9925 13.8514 19.9763 13.3476 19.86 13.0326 19.3563 13.1489 18.8525L15.0239 10.7275C15.1401 10.2213 15.6501 9.91003 16.1476 10.0238 16.6514 10.14 16.9664 10.6438 16.8501 11.1475L14.9751 19.2725C14.8751 19.7075 14.4901 20 14.0639 20zM19.0625 18.75C18.8063 18.75 18.5513 18.6462 18.365 18.44 18.0188 18.055 18.05 17.4625 18.435 17.115L20.7863 15 18.435 12.885C18.05 12.5387 18.0188 11.9462 18.365 11.56 18.7125 11.1762 19.305 11.145 19.69 11.49L22.815 14.3025C23.0125 14.4812 23.125 14.735 23.125 15 23.125 15.265 23.0125 15.5187 22.815 15.6975L19.69 18.51C19.51 18.6712 19.2863 18.75 19.0625 18.75zM10.9375 18.7502C10.7137 18.7502 10.49 18.6714 10.31 18.5102L7.185 15.6977C6.9875 15.5189 6.875 15.2652 6.875 15.0002 6.875 14.7352 6.9875 14.4814 7.185 14.3027L10.31 11.4902C10.695 11.1439 11.2862 11.1752 11.635 11.5602 11.9812 11.9452 11.95 12.5377 11.565 12.8852L9.21375 15.0002 11.565 17.1152C11.95 17.4614 11.9812 18.0539 11.635 18.4402 11.4487 18.6464 11.1937 18.7502 10.9375 18.7502z"/></g><defs><clipPath id="ajclip0_30_18690"><path fill="#fff" d="M0 0H30V30H0z"/></clipPath></defs></symbol><symbol viewBox="0 0 44 44" fill="none" id="svg-expertise"><path d="M30.1046 9.99018L30.1048 9.99036C30.2713 10.1615 30.3826 10.3168 30.3826 10.4888C30.3826 10.6612 30.2708 10.814 30.1044 10.9803C29.8366 11.2576 29.5679 11.5334 29.2995 11.8091C28.7629 12.3601 28.227 12.9105 27.6993 13.47C27.6102 13.5665 27.5009 13.6421 27.3792 13.6915C27.2582 13.7406 27.1278 13.7626 26.9974 13.7558H26.9899H26.9798H26.9698H26.9597H26.9496H26.9395H26.9294H26.9193H26.9092H26.8991H26.889H26.879H26.8689H26.8588H26.8487H26.8386H26.8285H26.8184H26.8083H26.7982H26.7881H26.7781H26.768H26.7579H26.7478H26.7377H26.7276H26.7175H26.7074H26.6973H26.6872H26.6772H26.6671H26.657H26.6469H26.6368H26.6267H26.6166H26.6065H26.5964H26.5863H26.5763H26.5662H26.5561H26.546H26.5359H26.5258H26.5157H26.5056H26.4955H26.4854H26.4754H26.4653H26.4552H26.4451H26.435H26.4249H26.4148H26.4047H26.3946H26.3845H26.3745H26.3644H26.3543H26.3442H26.3341H26.324H26.3139H26.3038H26.2937H26.2836H26.2736H26.2635H26.2534H26.2433H26.2332H26.2231H26.213H26.2029H26.1928H26.1828H26.1727H26.1626H26.1525H26.1424H26.1323H26.1222H26.1121H26.102H26.0919H26.0819H26.0718H26.0617H26.0516H26.0415H26.0314H26.0213H26.0112H26.0011H25.991H25.981H25.9709H25.9608H25.9507H25.9406H25.9305H25.9204H25.9103H25.9002H25.8901H25.8801H25.87H25.8599H25.8498H25.8397H25.8296H25.8195H25.8094H25.7993H25.7892H25.7792H25.7691H25.759H25.7489H25.7388H25.7287H25.7186H25.7085H25.6984H25.6883H25.6783H25.6682H25.6581H25.648H25.6379H25.6278H25.6177H25.6076H25.5975H25.5875H25.5774H25.5673H25.5572H25.5471H25.537H25.5269H25.5168H25.5067H25.4966H25.4866H25.4765H25.4664H25.4563H25.4462H25.4361H25.426H25.4159H25.4058H25.3957H25.3857H25.3756H25.3655H25.3554H25.3453H25.3352H25.3251H25.315H25.3049H25.2948H25.2848H25.2747H25.2646H25.2545H25.2444H25.2343H25.2242H25.2141H25.204H25.1939H25.1839H25.1738H25.1637H25.1536H25.1435H25.1334H25.1233H25.1132H25.1031H25.093H25.083H25.0729H25.0628H25.0527H25.0426H25.0325H25.0224H25.0123H25.0022H24.9921H24.9821H24.972H24.9619H24.9518H24.9417H24.9316H24.9215H24.9114H24.9013H24.8913H24.8812H24.8711H24.861H24.8509H24.8408H24.8307H24.8206H24.8105H24.8004H24.7904H24.7803H24.7702H24.7601H24.75H24.7399H24.7298H24.7197H24.7096H24.6995H24.6895H24.6794H24.6693H24.6592H24.6491H24.639H24.6289H24.6188H24.6087H24.5986H24.5886H24.5785H24.5684H24.5583H24.5482H24.5381H24.528H24.5179H24.5078H24.4977H24.4877H24.4776H24.4675H24.4574H24.4473H24.4372H24.4271H24.417H24.4069H24.3968H24.3868H24.3767H24.3666H24.3565H24.3464H24.3363H24.3262H24.3161H24.306H24.2959H24.2859H24.2758H24.2657H24.2556H24.2455H24.2354H24.2253H24.2152H24.2051H24.1951H24.185H24.1749H24.1648H24.1547H24.1446H24.1345H24.1244H24.1143H24.1042H24.0942H24.0841H24.074H24.0639H24.0538H24.0437H24.0336H24.0235H24.0134H24.0033H23.9933H23.9832H23.9731H23.963H23.9529H23.9428H23.9327H23.9226H23.9125H23.9024H23.8924H23.8823H23.8722H23.8621H23.852H23.8419H23.8318H23.8217H23.8116H23.8015H23.7915H23.7814H23.7713H23.7612H23.7511H23.741H23.7309H23.7208H23.7107H23.7006H23.6906H23.6805H23.6704H23.6603H23.6502H23.6401H23.63H23.6199H23.6098H23.5998H23.5897H23.5796H23.5695H23.5594H23.5493H23.5392H23.5291H23.519H23.5089H23.4989H23.4888H23.4787H23.4686H23.4585H23.4484H23.4383H23.4282H23.4181H23.408H23.398H23.3879H23.3778H23.3677H23.3576H23.3475H23.3374H23.3273H23.3172H23.3071H23.2971H23.287H23.2769H23.2668H23.2567H23.2466H23.2365H23.2264H23.2163H23.2062H23.1962H23.1861H23.176H23.1659H23.1558H23.1457H23.1356H23.1255H23.1154H23.1053H23.0953H23.0852H23.0751H23.065H23.0549H23.0448H23.0347H23.0246H23.0145H23.0044H22.9944H22.9843H22.9742H22.9641H22.954H22.9439H22.9338H22.9237H22.9136H22.9036H22.8935H22.8834H22.8733H22.8632H22.8531H22.843H22.8329H22.8228H22.8127H22.8027H22.7926H22.7825H22.7724H22.7623H22.7522H22.7421H22.732H22.7219H22.7118H22.7018H22.6917H22.6816H22.6715H22.6614H22.6513H22.6412H22.6311H22.621H22.6109H22.6009H22.5908H22.5807H22.5706H22.5605H22.5504H22.5403H22.5302H22.5201H22.51H22.5H22.4899H22.4798H22.4697H22.4596H22.4495H22.4394H22.4293H22.4192H22.4091H22.3991H22.389H22.3789H22.3688H22.3587H22.3486H22.3385H22.3284H22.3183H22.3083H22.2982H22.2881H22.278H22.2679H22.2578H22.2477H22.2376H22.2275H22.2174H22.2074H22.1973H22.1872H22.1771H22.167H22.1569H22.1468H22.1367H22.1266H22.1165H22.1065H22.0964H22.0863H22.0762H22.0661H22.056H22.0459H22.0358H22.0257H22.0156H22.0056H21.9955H21.9854H21.9753H21.9652H21.9551H21.945H21.9349H21.9248H21.9147H21.9047H21.8946H21.8845H21.8744H21.8643H21.8542H21.8441H21.834H21.5525V15.6008C21.5622 15.65 21.5824 15.6965 21.6118 15.7372L21.6162 15.7433L21.6196 15.7499L26.8835 25.971L26.936 25.834L30.1046 9.99018ZM30.1046 9.99018C29.3026 9.16976 28.5014 8.35007 27.71 7.511C27.6302 7.41987 27.531 7.34771 27.4196 7.29978L27.3801 7.3916L27.4196 7.29978C27.3083 7.25186 27.1877 7.22938 27.0666 7.23396H21.1981C21.0639 7.23396 20.949 7.24065 20.8533 7.26122C20.7565 7.28201 20.6728 7.31829 20.6073 7.38198C20.4783 7.50754 20.4523 7.70866 20.4523 7.96908V7.98356V7.99804V8.01253V8.02701V8.0415V8.05598V8.07047V8.08495V8.09944V8.11392V8.12841V8.14289V8.15738V8.17186V8.18635V8.20083V8.21532V8.2298V8.24429V8.25877V8.27326V8.28774V8.30223V8.31671V8.3312V8.34568V8.36017V8.37465V8.38914V8.40362V8.41811V8.43259V8.44708V8.46156V8.47604V8.49053V8.50501V8.5195V8.53398V8.54847V8.56295V8.57744V8.59192V8.60641V8.62089V8.63538V8.64986V8.66435V8.67883V8.69332V8.7078V8.72229V8.73677V8.75126V8.76574V8.78023V8.79471V8.8092V8.82368V8.83817V8.85265V8.86714V8.88162V8.89611V8.91059V8.92507V8.93956V8.95404V8.96853V8.98301V8.9975V9.01198V9.02647V9.04095V9.05544V9.06992V9.08441V9.09889V9.11338V9.12786V9.14235V9.15683V9.17132V9.1858V9.20029V9.21477V9.22926V9.24374V9.25823V9.27271V9.2872V9.30168V9.31617V9.33065V9.34514V9.35962V9.37411V9.38859V9.40307V9.41756V9.43204V9.44653V9.46101V9.4755V9.48998V9.50447V9.51895V9.53344V9.54792V9.56241V9.57689V9.59138V9.60586V9.62035V9.63483V9.64932V9.6638V9.67829V9.69277V9.70726V9.72174V9.73623V9.75071V9.7652V9.77968V9.79417V9.80865V9.82314V9.83762V9.85211V9.86659V9.88107V9.89556V9.91004V9.92453V9.93901V9.9535V9.96798V9.98247V9.99695V10.0114V10.0259V10.0404V10.0549V10.0694V10.0839V10.0983V10.1128V10.1273V10.1418V10.1563V10.1708V10.1853V10.1997V10.2142V10.2287V10.2432V10.2577V10.2722V10.2867V10.3011V10.3156V10.3301V10.3446V10.3591V10.3736V10.388V10.4025V10.417V10.4315V10.446V10.4605V10.475V10.4894V10.5039V10.5184V10.5329V10.5474V10.5619V10.5763V10.5908V10.6053V10.6198V10.6343V10.6488V10.6633V10.6777V10.6922V10.7067V10.7212V10.7357V10.7502V10.7647V10.7791V10.7936V10.8081V10.8226V10.8371V10.8516V10.866V10.8805V10.895V10.9095V10.924V10.9385V10.953V10.9674V10.9819V10.9964V11.0109V11.0254V11.0399V11.0543V11.0688V11.0833V11.0978V11.1123V11.1268V11.1413V11.1557V11.1702V11.1847V11.1992V11.2137V11.2282V11.2427V11.2571V11.2716V11.2861V11.3006V11.3151V11.3296V11.344V11.3585V11.373V11.3875V11.402V11.4165V11.431V11.4454V11.4599V11.4744V11.4889V11.5034V11.5179V11.5323V11.5468V11.5613V11.5758V11.5903V11.6048V11.6193V11.6337V11.6482V11.6627V11.6772V11.6917V11.7062V11.7207V11.7351V11.7496V11.7641V11.7786V11.7931V11.8076V11.822V11.8365V11.851V11.8655V11.88V11.8945V11.909V11.9234V11.9379V11.9524V11.9669V11.9814V11.9959V12.0103V12.0248V12.0393V12.0538V12.0683V12.0828V12.0973V12.1117V12.1262V12.1407V12.1552V12.1697V12.1842V12.1987V12.2131V12.2276V12.2421V12.2566V12.2711V12.2856V12.3V12.3145V12.329V12.3435V12.358V12.3725V12.387V12.4014V12.4159V12.4304V12.4449V12.4594V12.4739V12.4883V12.5028V12.5173V12.5318V12.5463V12.5608V12.5753V12.5897V12.6042V12.6187V12.6332V12.6477V12.6622V12.6767V12.6911V12.7056V12.7201V12.7346V12.7491V12.7636V12.778V12.7925V12.807V12.8215V12.836V12.8505V12.865V12.8794V12.8939V12.9084V12.9229V12.9374V12.9519V12.9663V12.9808V12.9953V13.0098V13.0243V13.0388V13.0533V13.0677V13.0822V13.0967V13.1112V13.1257V13.1402V13.1547V13.1691V13.1836V13.1981V13.2126V13.2271V13.2416V13.256V13.2705V13.285V13.2995V13.314V13.3285V13.343V13.3574V13.3719V13.3864V13.4009V13.4154V13.4299V13.4443V13.4588V13.4733V13.4878V13.5023V13.5168V13.5313V13.5457V13.5602V13.5747V13.5892V13.6037V13.6182V13.6327V13.6471V13.6616V13.6761V13.6906V13.7051V13.7196V13.734V13.7485V13.763V13.7775V13.792V13.8065V13.821V13.8354V13.8499V13.8644V13.8789V13.8934V13.9079V13.9223V13.9368V13.9513V13.9658V13.9803V13.9948V14.0093V14.0237V14.0382V14.0527V14.0672V14.0817V14.0962V14.1107V14.1251V14.1396V14.1541V14.1686V14.1831V14.1976V14.212V14.2265V14.241V14.2555V14.27V14.2845V14.299V14.3134V14.3279V14.3424V14.3569V14.3714V14.3859V14.4003V14.4148V14.4293V14.4438V14.4583V14.4728V14.4873V14.5017V14.5162V14.5307V14.5452V14.5597V14.5742V14.5887V14.6031V14.6176V14.6321V14.6466V14.6611V14.6756V14.69V14.7045V14.719V14.7335V14.748V14.7625V14.777V14.7914V14.8059V14.8204V14.8349V14.8494V14.8639V14.8783V14.8928V14.9073V14.9218V14.9363V14.9508V14.9653V14.9797V14.9942V15.0087V15.0232V15.0377V15.0522V15.0667V15.0811V15.0956V15.1101V15.1246V15.1391V15.1536V15.168V15.1825V15.197V15.2115V15.226V15.2405V15.255V15.2694V15.2839V15.2984V15.3129V15.3274V15.3419V15.3563V15.3708V15.3841C20.4485 15.5417 20.412 15.6968 20.3451 15.8396C19.9252 16.6589 19.5036 17.4785 19.0816 18.2988C18.4424 19.5414 17.8023 20.7856 17.166 22.0331L15.1756 25.9149M30.1046 9.99018L15.1756 25.9149M15.1756 25.9149C15.1232 25.8232 15.0886 25.7582 15.0579 25.6846L15.0573 25.6833C14.6759 24.8041 14.2944 23.9153 13.9228 23.0362L13.9228 23.0362L13.9217 23.0337C13.9179 23.0254 13.9141 23.0171 13.9103 23.0086C13.8669 22.9128 13.8184 22.8053 13.7452 22.7229C13.6586 22.6254 13.5407 22.5648 13.3708 22.5648C13.2017 22.5648 13.0798 22.6247 12.9896 22.721C12.9048 22.8115 12.8525 22.9301 12.8089 23.0366C11.6546 25.746 10.4937 28.4554 9.32633 31.1648C8.63474 32.7416 7.96273 34.3151 7.31028 35.8855C7.21045 36.1217 7.20294 36.3462 7.31555 36.5156C7.4282 36.6852 7.63914 36.7667 7.90149 36.7667H36.0405C36.3206 36.7667 36.5527 36.7083 36.677 36.5422C36.8035 36.3733 36.7876 36.1359 36.6819 35.8594C36.6819 35.8593 36.6819 35.8592 36.6818 35.8591L30.5181 19.4442C30.4744 19.3281 30.4247 19.2076 30.341 19.118C30.2513 19.0221 30.1307 18.969 29.9646 18.969C29.8008 18.969 29.6733 19.0179 29.5733 19.1085C29.477 19.1959 29.4138 19.3154 29.363 19.4422L29.3623 19.4441C28.5535 21.5871 27.7447 23.717 26.936 25.8339L15.1756 25.9149ZM27.1329 12.4927L27.1335 12.4921L28.8938 10.6658L29.1487 10.388C28.9815 10.232 28.8164 10.0773 28.6526 9.92378C28.1331 9.43672 27.6274 8.96266 27.1108 8.50405C26.9983 8.41004 26.859 8.3536 26.7127 8.34267L27.1329 12.4927ZM27.1329 12.4927C27.0605 12.5692 26.963 12.617 26.8583 12.6276H26.8527H26.8424H26.8321H26.8218H26.8115H26.8011H26.7908H26.7805H26.7702H26.7599H26.7495H26.7392H26.7289H26.7186H26.7083H26.6979H26.6876H26.6773H26.667H26.6567H26.6463H26.636H26.6257H26.6154H26.6051H26.5948H26.5844H26.5741H26.5638H26.5535H26.5432H26.5328H26.5225H26.5122H26.5019H26.4916H26.4812H26.4709H26.4606H26.4503H26.44H26.4296H26.4193H26.409H26.3987H26.3884H26.378H26.3677H26.3574H26.3471H26.3368H26.3265H26.3161H26.3058H26.2955H26.2852H26.2749H26.2645H26.2542H26.2439H26.2336H26.2233H26.2129H26.2026H26.1923H26.182H26.1717H26.1613H26.151H26.1407H26.1304H26.1201H26.1098H26.0994H26.0891H26.0788H26.0685H26.0582H26.0478H26.0375H26.0272H26.0169H26.0066H25.9962H25.9859H25.9756H25.9653H25.955H25.9446H25.9343H25.924H25.9137H25.9034H25.893H25.8827H25.8724H25.8621H25.8518H25.8415H25.8311H25.8208H25.8105H25.8002H25.7899H25.7795H25.7692H25.7589H25.7486H25.7383H25.7279H25.7176H25.7073H25.697H25.6867H25.6763H25.666H25.6557H25.6454H25.6351H25.6248H25.6144H25.6041H25.5938H25.5835H25.5732H25.5628H25.5525H25.5422H25.5319H25.5216H25.5112H25.5009H25.4906H25.4803H25.47H25.4596H25.4493H25.439H25.4287H25.4184H25.408H25.3977H25.3874H25.3771H25.3668H25.3565H25.3461H25.3358H25.3255H25.3152H25.3049H25.2945H25.2842H25.2739H25.2636H25.2533H25.2429H25.2326H25.2223H25.212H25.2017H25.1913H25.181H25.1707H25.1604H25.1501H25.1397H25.1294H25.1191H25.1088H25.0985H25.0882H25.0778H25.0675H25.0572H25.0469H25.0366H25.0262H25.0159H25.0056H24.9953H24.985H24.9746H24.9643H24.954H24.9437H24.9334H24.923H24.9127H24.9024H24.8921H24.8818H24.8715H24.8611H24.8508H24.8405H24.8302H24.8199H24.8095H24.7992H24.7889H24.7786H24.7683H24.7579H24.7476H24.7373H24.727H24.7167H24.7063H24.696H24.6857H24.6754H24.6651H24.6548H24.6444H24.6341H24.6238H24.6135H24.6032H24.5928H24.5825H24.5722H24.5619H24.5516H24.5412H24.5309H24.5206H24.5103H24.5H24.4896H24.4793H24.469H24.4587H24.4484H24.438H24.4277H24.4174H24.4071H24.3968H24.3865H24.3761H24.3658H24.3555H24.3452H24.3349H24.3245H24.3142H24.3039H24.2936H24.2833H24.2729H24.2626H24.2523H24.242H24.2317H24.2213H24.211H24.2007H24.1904H24.1801H24.1698H24.1594H24.1491H24.1388H24.1285H24.1182H24.1078H24.0975H24.0872H24.0769H24.0666H24.0562H24.0459H24.0356H24.0253H24.015H24.0046H23.9943H23.984H23.9737H23.9634H23.953H23.9427H23.9324H23.9221H23.9118H23.9015H23.8911H23.8808H23.8705H23.8602H23.8499H23.8395H23.8292H23.8189H23.8086H23.7983H23.7879H23.7776H23.7673H23.757H23.7467H23.7363H23.726H23.7157H23.7054H23.6951H23.6847H23.6744H23.6641H23.6538H23.6435H23.6332H23.6228H23.6125H23.6022H23.5919H23.5816H23.5712H23.5609H23.5506H23.5403H23.53H23.5196H23.5093H23.499H23.4887H23.4784H23.468H23.4577H23.4474H23.4371H23.4268H23.4165H23.4061H23.3958H23.3855H23.3752H23.3649H23.3545H23.3442H23.3339H23.3236H23.3133H23.3029H23.2926H23.2823H23.272H23.2617H23.2513H23.241H23.2307H23.2204H23.2101H23.1997H23.1894H23.1791H23.1688H23.1585H23.1482H23.1378H23.1275H23.1172H23.1069H23.0966H23.0862H23.0759H23.0656H23.0553H23.045H23.0346H23.0243H23.014H23.0037H22.9934H22.983H22.9727H22.9624H22.9521H22.9418H22.9315H22.9211H22.9108H22.9005H22.8902H22.8799H22.8695H22.8592H22.8489H22.8386H22.8283H22.8179H22.8076H22.7973H22.787H22.7767H22.7663H22.756H22.7457H22.7354H22.7251H22.7148H22.7044H22.6941H22.6838H22.6735H22.6632H22.6528H22.6425H22.6322H22.6219H22.6116H22.6012H22.5909H22.5806H22.5703H22.56H22.5496H22.5393H22.529H22.5187H22.5084H22.498H22.4877H22.4774H22.4671H22.4568H22.4465H22.4361H22.4258H22.4155H22.4052H22.3949H22.3845H22.3742H22.3639H22.3536H22.3433H22.3329H22.3226H22.3123H22.302H22.2917H22.2813H22.271H22.2607H22.2504H22.2401H22.2298H22.2194H22.2091H22.1988H22.1885H22.1782H22.1678H22.1575H22.1472H22.1369H22.1266H22.1162H22.1059H22.0956H22.0853H22.075H22.0646H22.0543H22.044H22.0337H22.0234H22.013H22.0027H21.9924H21.9821H21.9718H21.9615H21.9511H21.9408H21.9305H21.9202H21.9099H21.8995H21.8892H21.8789H21.8686H21.8583H21.8479H21.8376H21.8273H21.817H21.8067H21.7963H21.786H21.7757H21.7654H21.7551H21.7448H21.7344H21.7241H21.7138H21.7035H21.6932H21.6828H21.6725H21.6622H21.6519H21.6416H21.6312H21.6209H21.6106H21.6003H21.59H21.5796H21.5427V8.32777L27.1329 12.4927ZM21.046 16.9326L30.6717 35.6873H19.5348V35.6863L19.5209 35.6883C19.4494 35.6983 19.3767 35.6823 19.316 35.6432C19.2554 35.6042 19.2108 35.5447 19.1904 35.4756L19.1909 35.4755L19.1869 35.4658L15.8603 27.4047L15.8598 27.4035C15.8361 27.348 15.8238 27.2882 15.8238 27.2279C15.8238 27.1685 15.8357 27.1098 15.8586 27.0551C17.5731 23.6828 19.2974 20.317 21.0314 16.9576L21.046 16.9326ZM27.6294 27.1905L27.6296 27.1906L27.6318 27.1847C28.3944 25.1444 29.1661 23.1041 29.9643 20.994L35.4755 35.6584L31.9697 35.6677C31.9381 35.6613 31.9083 35.6483 31.882 35.6297C31.854 35.6099 31.8307 35.5842 31.8138 35.5543C30.4122 32.8394 29.0171 30.1245 27.6285 27.4095C27.6135 27.3753 27.6058 27.3384 27.6058 27.3011C27.6058 27.263 27.6139 27.2253 27.6294 27.1905ZM8.65937 35.658L13.4001 24.5225L18.1409 35.658H8.65937Z" fill="#fff" stroke="#fff" stroke-width=".2"/><path d="M26.9466 33.6653L26.979 33.6222L26.9608 33.5714C26.9043 33.4141 26.8407 33.26 26.77 33.11L26.77 33.11L26.7693 33.1086L21.9996 23.387C21.9625 23.2952 21.9156 23.2086 21.8597 23.1291C21.7825 23.0137 21.6666 22.9329 21.5337 22.908C21.4016 22.8832 21.2673 22.9166 21.1587 22.9982C21.0459 23.0705 20.9637 23.1855 20.9249 23.3186C20.8857 23.4531 20.8929 23.5991 20.9454 23.7285L20.9454 23.7285L20.9467 23.7314C20.9568 23.7541 20.9693 23.7749 20.98 23.7918C20.9849 23.7996 20.9892 23.8061 20.9931 23.8121C20.999 23.8212 21.0041 23.8291 21.0098 23.8386C21.0279 23.8686 21.0316 23.8828 21.0316 23.8908V23.9139L21.0418 23.9346C22.6258 27.1828 24.2191 30.4205 25.8218 33.6477C25.831 33.6686 25.8404 33.693 25.8512 33.7212L25.8546 33.7299C25.8666 33.7612 25.8803 33.7964 25.8954 33.8289C25.91 33.8604 25.9288 33.8957 25.9533 33.9245C25.972 33.9466 26.0027 33.9746 26.0456 33.9851C26.1995 34.0776 26.3761 34.1161 26.5518 34.0938L26.5646 34.0922L26.5765 34.0874C26.6712 34.0494 26.7417 33.964 26.7948 33.8896C26.8199 33.8545 26.8441 33.8173 26.8668 33.7825C26.8693 33.7786 26.8718 33.7748 26.8743 33.771C26.8997 33.732 26.9231 33.6965 26.9466 33.6653Z" fill="#fff" stroke="#fff" stroke-width=".2"/><path d="M24.3315 10.9011C24.5916 10.6705 24.8463 10.4413 25.0987 10.2142C25.4938 9.85865 25.8833 9.50816 26.2795 9.16489C26.3736 9.0648 26.499 9.00601 26.6313 9C26.7072 9.00579 26.7799 9.03493 26.8408 9.08395C26.9018 9.13296 26.9483 9.19978 26.9749 9.27644C27.0016 9.35311 27.0071 9.43638 26.9909 9.51635C26.9748 9.59631 26.9376 9.66959 26.8838 9.72746C26.7142 9.91447 26.5334 10.0894 26.3427 10.2512C26.1221 10.454 25.903 10.6582 25.6842 10.8622C25.3482 11.1754 25.0128 11.488 24.6742 11.7935C24.3495 12.0941 24.1421 12.065 23.8715 11.7159L23.141 10.7459C23.0966 10.7032 23.0611 10.6508 23.0368 10.5923C23.0126 10.5338 23 10.4705 23 10.4064C23 10.3424 23.0126 10.279 23.0368 10.2205C23.0611 10.162 23.0966 10.1097 23.141 10.0669C23.3123 9.90205 23.5649 9.95055 23.7633 10.193L24.3315 10.9011Z" fill="#fff"/><path d="M24.3315 10.9011C24.5916 10.6705 24.8463 10.4413 25.0987 10.2142C25.4938 9.85865 25.8833 9.50816 26.2795 9.16489C26.3736 9.0648 26.499 9.00601 26.6313 9C26.7072 9.00579 26.7799 9.03493 26.8408 9.08395C26.9018 9.13296 26.9483 9.19978 26.9749 9.27644C27.0016 9.35311 27.0071 9.43638 26.9909 9.51635C26.9748 9.59631 26.9376 9.66959 26.8838 9.72746C26.7142 9.91447 26.5334 10.0894 26.3427 10.2512C26.1221 10.454 25.903 10.6582 25.6842 10.8622C25.3482 11.1754 25.0128 11.488 24.6742 11.7935C24.3495 12.0941 24.1421 12.065 23.8715 11.7159L23.141 10.7459C23.0966 10.7032 23.0611 10.6508 23.0368 10.5923C23.0126 10.5338 23 10.4705 23 10.4064C23 10.3424 23.0126 10.279 23.0368 10.2205C23.0611 10.162 23.0966 10.1097 23.141 10.0669C23.3123 9.90205 23.5649 9.95055 23.7633 10.193L24.3315 10.9011Z" stroke="#fff"/></symbol><symbol viewBox="0 0 26 26" fill="none" id="svg-facebook"><path d="M23.2143 0H2.78571C2.0469 0 1.33834 0.293494 0.815917 0.815917C0.293494 1.33834 0 2.0469 0 2.78571L0 23.2143C0 23.9531 0.293494 24.6617 0.815917 25.1841C1.33834 25.7065 2.0469 26 2.78571 26H10.7511V17.1606H7.09487V13H10.7511V9.82893C10.7511 6.22201 12.8984 4.22964 16.1873 4.22964C17.7624 4.22964 19.4095 4.51054 19.4095 4.51054V8.05071H17.5947C15.8066 8.05071 15.2489 9.16036 15.2489 10.2984V13H19.2406L18.6022 17.1606H15.2489V26H23.2143C23.9531 26 24.6617 25.7065 25.1841 25.1841C25.7065 24.6617 26 23.9531 26 23.2143V2.78571C26 2.0469 25.7065 1.33834 25.1841 0.815917C24.6617 0.293494 23.9531 0 23.2143 0Z" fill="#fff"/></symbol><symbol viewBox="0 0 24 25" fill="none" id="svg-fundraising"><g clip-path="url(#amclip0_30_17341)"><path d="M18.6865 13.4651C18.8216 14.747 18.6475 16.0734 18.114 17.3263V17.3268L19.9657 19.7183C20.1315 19.9324 20.4422 19.9618 20.6474 19.7852C22.3102 18.3543 23.4104 16.2888 23.5734 13.9646C23.5924 13.694 23.3747 13.4652 23.1035 13.4652H18.6865V13.4651Z" fill="url(#ampaint0_linear_30_17341)"/><path d="M14.0369 1.31182V7.15964C15.6056 7.83856 16.9079 9.02079 17.7394 10.501H23.1153C23.3811 10.501 23.5962 10.281 23.586 10.0154C23.3946 5.0442 19.4311 1.09011 14.5276 0.841425C14.2601 0.827866 14.0369 1.04397 14.0369 1.31182Z" fill="url(#ampaint1_linear_30_17341)"/><path d="M11.0413 22.0646C6.76121 22.1088 3.22417 18.6386 3.18957 14.3585C3.15468 10.0448 6.65395 6.52412 10.9597 6.52412V4.23071C10.9597 3.96234 10.7357 3.74764 10.4676 3.75993C4.87195 4.017 0.413377 8.63504 0.41333 14.2946C0.41333 20.1304 5.19328 24.8783 11.029 24.8407C13.2297 24.8266 15.2698 24.1387 16.9539 22.973C17.1755 22.8197 17.2221 22.511 17.0571 22.2979L15.6528 20.484C14.3679 21.4602 12.7717 22.0467 11.0413 22.0646Z" fill="url(#ampaint2_linear_30_17341)"/><path d="M4.60156 14.2943C4.60156 17.8 7.45379 20.6523 10.9595 20.6523C14.4649 20.6523 17.3175 17.8006 17.3175 14.2943C17.3175 10.7887 14.4649 7.93637 10.9595 7.93637C7.45379 7.93637 4.60156 10.7886 4.60156 14.2943ZM11.6657 10.0706V10.7443C12.3898 10.7443 13.0307 11.0523 13.4826 11.5344C13.7491 11.8188 13.7345 12.266 13.4502 12.5325C13.1675 12.7973 12.7224 12.7872 12.452 12.5C12.2496 12.2844 11.9737 12.1592 11.6945 12.1568C11.123 12.1568 10.7367 12.1568 10.1676 12.1568C9.77178 12.1568 9.45195 12.4775 9.45195 12.8724C9.45195 13.267 9.77305 13.5881 10.1681 13.5881H11.7514C12.9247 13.5881 13.8795 14.5429 13.8795 15.7162C13.8795 16.8126 13.0363 17.8448 11.6657 17.8448V18.518C11.6657 18.9079 11.3498 19.2243 10.9595 19.2243C10.5697 19.2243 10.2533 18.9079 10.2533 18.518V17.8448C9.75582 17.8448 9.26569 17.7909 8.69158 17.3928C8.37142 17.1706 8.29185 16.7303 8.51408 16.4102C8.7363 16.0896 9.17652 16.01 9.49668 16.2322C9.66617 16.3509 9.87668 16.4296 10.0861 16.4323H11.7514C12.1447 16.4323 12.4671 16.1148 12.4671 15.7162C12.4671 15.3217 12.146 15.0006 11.7514 15.0006C11.0508 15.0006 10.9064 15.0006 10.1681 15.0006C8.99431 15.0006 8.03949 14.0457 8.03949 12.8724C8.03949 11.7727 8.88579 10.7443 10.2533 10.7443V10.0706C10.2533 9.68076 10.5697 9.36437 10.9595 9.36437C11.3498 9.36437 11.6657 9.68076 11.6657 10.0706Z" fill="url(#ampaint3_linear_30_17341)"/></g><defs><linearGradient id="ampaint0_linear_30_17341" x1="18.114" y1="16.683" x2="23.575" y2="16.683" gradientUnits="userSpaceOnUse"><stop stop-color="#6A11CB"/><stop offset="1" stop-color="#2575FC"/></linearGradient><linearGradient id="ampaint1_linear_30_17341" x1="14.037" y1="5.671" x2="23.586" y2="5.671" gradientUnits="userSpaceOnUse"><stop stop-color="#6A11CB"/><stop offset="1" stop-color="#2575FC"/></linearGradient><linearGradient id="ampaint2_linear_30_17341" x1=".413" y1="14.3" x2="17.156" y2="14.3" gradientUnits="userSpaceOnUse"><stop stop-color="#6A11CB"/><stop offset="1" stop-color="#2575FC"/></linearGradient><linearGradient id="ampaint3_linear_30_17341" x1="4.602" y1="14.294" x2="17.317" y2="14.294" gradientUnits="userSpaceOnUse"><stop stop-color="#6A11CB"/><stop offset="1" stop-color="#2575FC"/></linearGradient><clipPath id="amclip0_30_17341"><path fill="#fff" transform="translate(0 .84)" d="M0 0H24V24H0z"/></clipPath></defs></symbol><symbol viewBox="0 0 22 22" fill="none" id="svg-language"><path d="M11 21C16.5228 21 21 16.5228 21 11 21 5.47715 16.5228 1 11 1 5.47715 1 1 5.47715 1 11 1 16.5228 5.47715 21 11 21zM1 11H21" stroke="#53F" stroke-width="2" stroke-linecap="round" stroke-linejoin="round"/><path d="M11 1C13.5013 3.73835 14.9228 7.29203 15 11C14.9228 14.708 13.5013 18.2616 11 21C8.49872 18.2616 7.07725 14.708 7 11C7.07725 7.29203 8.49872 3.73835 11 1V1Z" stroke="#53F" stroke-width="2" stroke-linecap="round" stroke-linejoin="round"/></symbol><symbol viewBox="0 0 92 91" fill="none" id="svg-launch"><path d="M47.1089 53.498C51.2316 53.498 54.5737 50.1957 54.5737 46.1221C54.5737 42.0484 51.2316 38.7461 47.1089 38.7461C42.9862 38.7461 39.644 42.0484 39.644 46.1221C39.644 50.1957 42.9862 53.498 47.1089 53.498Z" fill="#000"/><path d="M83.586 37.8164C81.7456 35.9753 78.7618 35.9753 76.9215 37.8164L57.5385 57.2077C56.9493 57.7971 56.1502 58.1284 55.317 58.1284H38.9008C38.0675 58.1284 37.2685 57.7973 36.6793 57.2077L17.2963 37.8164C15.4559 35.9753 12.4721 35.9753 10.6317 37.8164C8.79137 39.6576 8.79137 42.6426 10.6317 44.4838L32.9713 66.833V83.2593L61.2466 83.3574V66.833L83.5862 44.4838C85.4264 42.6426 85.4264 39.6576 83.586 37.8164Z" fill="#000"/><path d="M39.3021 24.0245L38.1984 30.4626C38.0556 31.2956 38.398 32.1375 39.0814 32.6345C39.7647 33.131 40.6708 33.1969 41.4188 32.8035L47.1977 29.7638L52.9766 32.8035C53.3014 32.9742 53.656 33.0586 54.0092 33.0586C54.4694 33.0586 54.9273 32.9156 55.3139 32.6346C55.9974 32.1378 56.3397 31.2958 56.1969 30.4628L55.0933 24.0246L59.7686 19.465C60.3736 18.875 60.5914 17.9926 60.3302 17.1888C60.0692 16.3848 59.3747 15.7989 58.5387 15.6775L52.0776 14.7381L49.1877 8.8803C48.8139 8.12236 48.0424 7.64258 47.1975 7.64258C46.3527 7.64258 45.5812 8.12236 45.2073 8.8803L42.3179 14.7379L35.8568 15.6773C35.0208 15.7987 34.3261 16.3846 34.0653 17.1886C33.8041 17.9925 34.0219 18.8749 34.6269 19.4648L39.3021 24.0245Z" fill="url(#aopaint0_linear_30_10817)"/><defs><linearGradient id="aopaint0_linear_30_10817" x1="33.956" y1="20.351" x2="60.439" y2="20.351" gradientUnits="userSpaceOnUse"><stop stop-color="#6A11CB"/><stop offset="1" stop-color="#2575FC"/></linearGradient></defs></symbol><symbol viewBox="0 0 26 26" fill="none" id="svg-linkedIn"><path d="M24.0754 0H1.91953C0.858203 0 0 0.837891 0 1.87383V24.1211C0 25.157 0.858203 26 1.91953 26H24.0754C25.1367 26 26 25.157 26 24.1262V1.87383C26 0.837891 25.1367 0 24.0754 0ZM7.71367 22.1559H3.8543V9.74492H7.71367V22.1559ZM5.78398 8.05391C4.54492 8.05391 3.54453 7.05352 3.54453 5.81953C3.54453 4.58555 4.54492 3.58516 5.78398 3.58516C7.01797 3.58516 8.01836 4.58555 8.01836 5.81953C8.01836 7.04844 7.01797 8.05391 5.78398 8.05391ZM22.1559 22.1559H18.3016V16.123C18.3016 14.6859 18.2762 12.8324 16.2957 12.8324C14.2898 12.8324 13.9852 14.4016 13.9852 16.0215V22.1559H10.1359V9.74492H13.8328V11.441H13.8836C14.3965 10.466 15.6559 9.43516 17.5297 9.43516C21.4348 9.43516 22.1559 12.0047 22.1559 15.3461V22.1559Z" fill="#fff"/></symbol><symbol viewBox="0 0 17 22" fill="none" id="svg-location"><path d="M7.62639 21.5602C1.19378 12.5053 0 11.5767 0 8.25008C0 3.69328 3.80517 0 8.5 0C13.1948 0 17 3.69328 17 8.25008C17 11.5767 15.8062 12.5034 9.37361 21.5565C9.27592 21.6931 9.1457 21.8047 8.99401 21.8819C8.84233 21.9591 8.67368 21.9996 8.5024 22C8.33113 22.0004 8.16229 21.9606 8.01027 21.884C7.85824 21.8074 7.72752 21.6963 7.62922 21.5602L7.62733 21.5565L7.62639 21.5602ZM8.5 11.6876C9.43931 11.6876 10.3401 11.3254 11.0043 10.6808C11.6685 10.0361 12.0417 9.16177 12.0417 8.25008C12.0417 7.33839 11.6685 6.46404 11.0043 5.81937C10.3401 5.17471 9.43931 4.81254 8.5 4.81254C7.56069 4.81254 6.65985 5.17471 5.99566 5.81937C5.33147 6.46404 4.95833 7.33839 4.95833 8.25008C4.95833 9.16177 5.33147 10.0361 5.99566 10.6808C6.65985 11.3254 7.56069 11.6876 8.5 11.6876Z" fill="url(#aqpaint0_linear_30_10731)"/><defs><linearGradient id="aqpaint0_linear_30_10731" x1="0" y1="11" x2="17" y2="11" gradientUnits="userSpaceOnUse"><stop stop-color="#6A11CB"/><stop offset="1" stop-color="#2575FC"/></linearGradient></defs></symbol><symbol viewBox="0 0 91 91" fill="none" id="svg-mvp"><path d="M82.2317 56.3117L74.1959 44.4349L82.2317 32.558C82.6073 31.9915 82.6986 31.2844 82.4799 30.6411C82.2592 29.9978 81.7539 29.493 81.1108 29.2801L54.8822 20.5557C53.9439 20.2382 52.9293 20.5961 52.3859 21.414L45.4998 31.7785L38.6137 21.414C38.0661 20.5919 37.0429 20.2361 36.1174 20.5557L9.88878 29.2801C9.24567 29.4931 8.74037 29.998 8.51967 30.6411C8.30101 31.2844 8.3923 31.9915 8.76805 32.5581L16.8038 44.435L8.76819 56.3117C8.39244 56.8782 8.30115 57.5855 8.51982 58.2288C8.74052 58.872 9.24581 59.3769 9.88892 59.5898L36.1175 68.3142C37.0406 68.6257 38.0674 68.278 38.6138 67.4559L45.4999 57.0914L52.386 67.4559C52.9329 68.2789 53.9603 68.6255 54.8824 68.3142L81.111 59.5898C81.7541 59.3768 82.2594 58.8719 82.4801 58.2288C82.6987 57.5855 82.6074 56.8784 82.2317 56.3117ZM45.4999 50.8611L26.2874 44.435L45.4999 38.0089L64.7124 44.435L45.4999 50.8611Z" fill="#000"/><path d="M56.732 72.4952C53.8755 73.4534 50.6458 72.4142 48.9128 69.8137L45.4999 64.6949L42.0866 69.8137C40.3571 72.4092 37.1312 73.4579 34.2563 72.4906L15.9961 66.4051V79.653C15.9961 80.6302 16.6211 81.4968 17.5475 81.8048L44.7684 90.8774C44.8504 90.9061 44.9324 90.9284 45.0144 90.9461C45.0144 90.9461 45.0167 90.9461 45.0167 90.9484H45.0189C45.1786 90.9816 45.3403 90.9993 45.4999 90.9993C45.6706 90.9993 45.839 90.9794 46.0074 90.9417C46.0827 90.924 46.1558 90.904 46.229 90.8797L73.4522 81.805C74.3784 81.4968 75.0034 80.6302 75.0034 79.653V66.4054L56.732 72.4952Z" fill="#000"/><path d="M51.5688 17.0557C50.8775 16.3644 50.8648 15.2583 51.5404 14.5826L58.8744 7.24867C59.55 6.57304 60.6561 6.58576 61.3474 7.27709C62.0388 7.96843 62.0515 9.07456 61.3759 9.75018L54.0419 17.0842C53.3663 17.7598 52.2601 17.7471 51.5688 17.0557Z" fill="url(#arpaint0_linear_30_10748)"/><path d="M43.7032 12.7961L43.7032 2.44047C43.7032 1.4872 44.4754 0.714946 45.4287 0.71495C46.382 0.714955 47.1542 1.48722 47.1542 2.44049L47.1543 12.7959C47.1543 13.7492 46.382 14.5215 45.4288 14.5215C44.4754 14.5215 43.7032 13.7494 43.7032 12.7961Z" fill="url(#arpaint1_linear_30_10748)"/><path d="M36.816 17.0842L29.482 9.75018C28.8064 9.07456 28.8191 7.96843 29.5105 7.27709C30.2018 6.58576 31.3079 6.57304 31.9836 7.24867L39.3175 14.5826C39.9932 15.2583 39.9804 16.3644 39.2891 17.0557C38.5978 17.7471 37.4916 17.7598 36.816 17.0842Z" fill="url(#arpaint2_linear_30_10748)"/><defs><linearGradient id="arpaint0_linear_30_10748" x1="55.207" y1="10.916" x2="57.709" y2="13.417" gradientUnits="userSpaceOnUse"><stop stop-color="#6A11CB"/><stop offset="1" stop-color="#2575FC"/></linearGradient><linearGradient id="arpaint1_linear_30_10748" x1="41.62" y1="3.809" x2="49.238" y2="11.427" gradientUnits="userSpaceOnUse"><stop stop-color="#6A11CB"/><stop offset="1" stop-color="#2575FC"/></linearGradient><linearGradient id="arpaint2_linear_30_10748" x1="29.511" y1="7.277" x2="39.289" y2="17.056" gradientUnits="userSpaceOnUse"><stop stop-color="#6A11CB"/><stop offset="1" stop-color="#2575FC"/></linearGradient></defs></symbol><symbol viewBox="0 0 24 25" fill="none" id="svg-ongoing"><g clip-path="url(#asclip0_30_17154)"><path d="M23.9999 17.0831C23.9999 14.1048 22.2913 11.4469 19.7324 10.154C19.653 15.8643 15.0233 20.4939 9.31299 20.5734C10.6059 23.1323 13.2639 24.8409 16.2421 24.8409C17.6384 24.8409 18.9963 24.469 20.1895 23.7624L23.966 24.807L22.9214 21.0304C23.628 19.8373 23.9999 18.4794 23.9999 17.0831Z" fill="url(#aspaint0_linear_30_17154)"/><path d="M18.3281 10.0049C18.3281 4.95172 14.2172 0.84082 9.16406 0.84082C4.1109 0.84082 0 4.95172 0 10.0049C0 11.6517 0.438354 13.2552 1.27075 14.6629L0.0336914 19.1351L4.50604 17.8982C5.91376 18.7306 7.51721 19.1689 9.16406 19.1689C14.2172 19.1689 18.3281 15.058 18.3281 10.0049ZM7.75781 7.87207H6.35156C6.35156 6.32117 7.61316 5.05957 9.16406 5.05957C10.715 5.05957 11.9766 6.32117 11.9766 7.87207C11.9766 8.65924 11.6433 9.41583 11.062 9.94757L9.86719 11.0411V12.1377H8.46094V10.4218L10.1125 8.9101C10.4077 8.64001 10.5703 8.27142 10.5703 7.87207C10.5703 7.09662 9.93951 6.46582 9.16406 6.46582C8.38861 6.46582 7.75781 7.09662 7.75781 7.87207ZM8.46094 13.5439H9.86719V14.9502H8.46094V13.5439Z" fill="url(#aspaint1_linear_30_17154)"/></g><defs><linearGradient id="aspaint0_linear_30_17154" x1="9.313" y1="17.497" x2="24" y2="17.497" gradientUnits="userSpaceOnUse"><stop stop-color="#6A11CB"/><stop offset="1" stop-color="#2575FC"/></linearGradient><linearGradient id="aspaint1_linear_30_17154" x1="0" y1="10.005" x2="18.328" y2="10.005" gradientUnits="userSpaceOnUse"><stop stop-color="#6A11CB"/><stop offset="1" stop-color="#2575FC"/></linearGradient><clipPath id="asclip0_30_17154"><path fill="#fff" transform="translate(0 .84)" d="M0 0H24V24H0z"/></clipPath></defs></symbol><symbol viewBox="0 0 24 25" fill="none" id="svg-paint"><path d="M7.07803 20.4846C7.07803 18.9335 5.81669 17.6721 4.26557 17.6721C2.71445 17.6721 1.45311 18.9335 1.45311 20.4846V21.8908C1.45311 22.666 0.775208 23.3439 0 23.3439V24.7501H2.85934C5.18566 24.7501 7.07803 22.8109 7.07803 20.4846Z" fill="url(#atpaint0_linear_30_17055)"/><path d="M11.7685 6.63766C11.3933 6.73858 11.1703 7.12286 11.2714 7.4987C11.3683 7.8603 11.7394 8.09814 12.1325 7.99581C12.5103 7.89419 12.7296 7.50803 12.6296 7.13477C12.528 6.75756 12.1397 6.53758 11.7685 6.63766Z" fill="url(#atpaint1_linear_30_17055)"/><path d="M7.79077 11.9737C8.16389 12.0726 8.54996 11.8555 8.65182 11.4766C8.75335 11.0977 8.52736 10.7155 8.15536 10.6155H8.15466C7.95521 10.5617 7.9013 10.6022 7.76025 10.6482C7.76822 11.072 7.7738 11.5116 7.77675 11.9668C7.78191 11.9683 7.78552 11.9723 7.79077 11.9737Z" fill="url(#atpaint2_linear_30_17055)"/><path d="M15.541 18.0009C15.4393 17.6229 15.0512 17.4043 14.6799 17.5045C14.2982 17.6072 14.0836 17.9966 14.1828 18.3655C14.2831 18.7397 14.6649 18.9609 15.0439 18.8627C15.4191 18.7617 15.6421 18.3775 15.541 18.0016V18.0009Z" fill="url(#atpaint3_linear_30_17055)"/><path d="M17.8805 9.27056C18.1545 8.99592 18.1545 8.54958 17.8805 8.2756C17.6064 8.00147 17.1609 8.00035 16.8856 8.2756C16.6116 8.54958 16.6116 8.99658 16.8863 9.27056C17.1596 9.54385 17.6059 9.54385 17.8805 9.27056Z" fill="url(#atpaint4_linear_30_17055)"/><path d="M13.4472 2.16631C11.1374 2.24956 9.01716 3.16262 7.32715 4.32183C7.51657 5.61125 7.65039 7.21618 7.72164 9.20107C7.98489 9.16967 8.25414 9.18631 8.5178 9.25723C9.64457 9.55849 10.3125 10.7136 10.0099 11.8403C9.75477 12.7934 8.89383 13.4045 7.97603 13.4045C7.90848 13.4045 7.84117 13.3842 7.77363 13.3777C7.76514 14.5023 7.73964 15.615 7.69113 16.6776C8.41131 16.9768 8.97417 17.3754 9.34171 17.8917C10.086 18.9374 9.88761 20.1638 9.80933 20.5153C9.54857 21.6831 10.2371 22.8719 11.4167 23.0991C12.0835 23.2269 12.7537 23.29 13.419 23.29C19.2018 23.29 24.0467 18.5927 23.9996 12.6657C23.9503 6.65439 18.7483 1.96658 13.4472 2.16631ZM15.8909 7.28105C16.7149 6.45845 18.0524 6.45845 18.875 7.28105C19.6976 8.10365 19.6976 9.44191 18.875 10.2645V10.2652C18.0525 11.0863 16.7142 11.0864 15.8916 10.2652C15.0697 9.44186 15.0697 8.10365 15.8909 7.28105ZM9.91302 7.86192C9.61373 6.75034 10.2665 5.58364 11.4044 5.27947C12.5229 4.97943 13.6854 5.64682 13.9875 6.77082C14.2895 7.89529 13.6231 9.05225 12.4961 9.35393C11.372 9.65519 10.2151 8.99164 9.91302 7.86192ZM15.4075 20.2207C14.2836 20.5218 13.1258 19.8524 12.8244 18.7294C12.5224 17.6049 13.1887 16.4479 14.3157 16.1463C15.4475 15.8452 16.5982 16.5138 16.8988 17.6383C17.2017 18.7645 16.5321 19.92 15.4075 20.2207ZM20.8765 14.7517C20.5753 15.8784 19.4175 16.5453 18.2934 16.243C17.1696 15.9422 16.4988 14.7888 16.802 13.6599C17.1064 12.5228 18.2711 11.87 19.3852 12.1685C20.5092 12.4699 21.178 13.629 20.8765 14.7517Z" fill="url(#atpaint5_linear_30_17055)"/><path d="M19.0211 13.5269C18.6528 13.4275 18.2628 13.6421 18.1601 14.024C18.0585 14.4028 18.2845 14.785 18.6565 14.885C19.0416 14.9845 19.4185 14.7588 19.5183 14.3879C19.6185 14.0137 19.3953 13.6271 19.0211 13.5269Z" fill="url(#atpaint6_linear_30_17055)"/><path d="M6.36646 13.4534C6.36842 13.2182 6.37494 12.9866 6.37494 12.7503C6.37494 7.29776 6.00895 0.750488 4.26559 0.750488C2.52224 0.750488 2.15625 7.29776 2.15625 12.7503C2.15625 12.9866 2.16277 13.2182 2.16473 13.4534H6.36646Z" fill="url(#atpaint7_linear_30_17055)"/><path d="M4.26578 16.2658C4.99843 16.2658 5.67769 16.4703 6.27866 16.8001C6.30904 16.1691 6.33224 15.5191 6.34846 14.8596H2.18311C2.19932 15.5191 2.22248 16.1691 2.2529 16.8001C2.85388 16.4703 3.53313 16.2658 4.26578 16.2658Z" fill="url(#atpaint8_linear_30_17055)"/><defs><linearGradient id="atpaint0_linear_30_17055" x1="0" y1="21.211" x2="7.078" y2="21.211" gradientUnits="userSpaceOnUse"><stop stop-color="#6A11CB"/><stop offset="1" stop-color="#2575FC"/></linearGradient><linearGradient id="atpaint1_linear_30_17055" x1="11.247" y1="7.317" x2="12.654" y2="7.317" gradientUnits="userSpaceOnUse"><stop stop-color="#6A11CB"/><stop offset="1" stop-color="#2575FC"/></linearGradient><linearGradient id="atpaint2_linear_30_17055" x1="7.76" y1="11.294" x2="8.676" y2="11.294" gradientUnits="userSpaceOnUse"><stop stop-color="#6A11CB"/><stop offset="1" stop-color="#2575FC"/></linearGradient><linearGradient id="atpaint3_linear_30_17055" x1="14.159" y1="18.183" x2="15.565" y2="18.183" gradientUnits="userSpaceOnUse"><stop stop-color="#6A11CB"/><stop offset="1" stop-color="#2575FC"/></linearGradient><linearGradient id="atpaint4_linear_30_17055" x1="16.68" y1="8.773" x2="18.086" y2="8.773" gradientUnits="userSpaceOnUse"><stop stop-color="#6A11CB"/><stop offset="1" stop-color="#2575FC"/></linearGradient><linearGradient id="atpaint5_linear_30_17055" x1="7.327" y1="12.725" x2="24" y2="12.725" gradientUnits="userSpaceOnUse"><stop stop-color="#6A11CB"/><stop offset="1" stop-color="#2575FC"/></linearGradient><linearGradient id="atpaint6_linear_30_17055" x1="18.136" y1="14.206" x2="19.542" y2="14.206" gradientUnits="userSpaceOnUse"><stop stop-color="#6A11CB"/><stop offset="1" stop-color="#2575FC"/></linearGradient><linearGradient id="atpaint7_linear_30_17055" x1="2.156" y1="7.102" x2="6.375" y2="7.102" gradientUnits="userSpaceOnUse"><stop stop-color="#6A11CB"/><stop offset="1" stop-color="#2575FC"/></linearGradient><linearGradient id="atpaint8_linear_30_17055" x1="2.183" y1="15.83" x2="6.348" y2="15.83" gradientUnits="userSpaceOnUse"><stop stop-color="#6A11CB"/><stop offset="1" stop-color="#2575FC"/></linearGradient></defs></symbol><symbol viewBox="0 0 24 24" fill="none" id="svg-phone"><path d="M17.4 22.0001C13.3173 21.9948 9.40331 20.3706 6.5164 17.4837C3.62949 14.5968 2.00529 10.6828 2 6.60011C2 5.38012 2.48464 4.21009 3.34731 3.34742C4.20998 2.48476 5.38 2.00011 6.6 2.00011C6.85834 1.99815 7.11625 2.02159 7.37 2.07011C7.61531 2.10641 7.85647 2.1667 8.09 2.25011C8.25425 2.30774 8.40061 2.40725 8.51461 2.53879C8.62861 2.67033 8.7063 2.82934 8.74 3.00011L10.11 9.00011C10.1469 9.16298 10.1425 9.33249 10.0971 9.4932C10.0516 9.6539 9.96671 9.80067 9.85 9.92011C9.72 10.0601 9.71 10.0701 8.48 10.7101C9.46499 12.871 11.1932 14.6063 13.35 15.6001C14 14.3601 14.01 14.3501 14.15 14.2201C14.2694 14.1034 14.4162 14.0185 14.5769 13.9731C14.7376 13.9276 14.9071 13.9232 15.07 13.9601L21.07 15.3301C21.2353 15.3685 21.3881 15.4483 21.5141 15.562C21.64 15.6757 21.735 15.8196 21.79 15.9801C21.8744 16.2175 21.938 16.4617 21.98 16.7101C22.0202 16.9614 22.0403 17.2156 22.04 17.4701C22.0216 18.6849 21.5233 19.8431 20.654 20.6918C19.7847 21.5405 18.6149 22.0108 17.4 22.0001Z" fill="url(#aupaint0_linear_30_10726)"/><defs><linearGradient id="aupaint0_linear_30_10726" x1="2" y1="12" x2="22.04" y2="12" gradientUnits="userSpaceOnUse"><stop stop-color="#6A11CB"/><stop offset="1" stop-color="#2575FC"/></linearGradient></defs></symbol><symbol viewBox="0 0 80 80" fill="none" id="svg-play"><path d="M40 75C30.7174 75 21.815 71.3125 15.2513 64.7487C8.68749 58.185 5 49.2826 5 40C5 30.7174 8.68749 21.815 15.2513 15.2513C21.815 8.68749 30.7174 5 40 5C49.2826 5 58.185 8.68749 64.7487 15.2513C71.3125 21.815 75 30.7174 75 40C75 49.2826 71.3125 58.185 64.7487 64.7487C58.185 71.3125 49.2826 75 40 75ZM40 80C50.6087 80 60.7828 75.7857 68.2843 68.2843C75.7857 60.7828 80 50.6087 80 40C80 29.3913 75.7857 19.2172 68.2843 11.7157C60.7828 4.21427 50.6087 0 40 0C29.3913 0 19.2172 4.21427 11.7157 11.7157C4.21427 19.2172 0 29.3913 0 40C0 50.6087 4.21427 60.7828 11.7157 68.2843C19.2172 75.7857 29.3913 80 40 80Z" fill="#fff"/><path d="M30.355 25.2774C30.7639 25.0668 31.223 24.9731 31.6817 25.0066C32.1404 25.0402 32.581 25.1996 32.955 25.4674L50.455 37.9673C50.779 38.1985 51.0432 38.5039 51.2254 38.8578C51.4077 39.2118 51.5028 39.6041 51.5028 40.0023C51.5028 40.4004 51.4077 40.7928 51.2254 41.1467C51.0432 41.5007 50.779 41.806 50.455 42.0373L32.955 54.5372C32.5812 54.8047 32.1408 54.964 31.6823 54.9975C31.2238 55.0311 30.765 54.9375 30.3562 54.7272C29.9474 54.5169 29.6045 54.1979 29.3653 53.8054C29.126 53.4128 28.9996 52.9619 29 52.5022V27.5024C28.9995 27.0428 29.1257 26.5919 29.3648 26.1994C29.6038 25.8069 29.9464 25.4879 30.355 25.2774Z" fill="#fff"/></symbol><symbol viewBox="0 0 35 25" fill="none" id="svg-quot"><path d="M7.68357 8.83881C9.19632 8.83881 10.6751 9.29239 11.9329 10.1422C13.1907 10.992 14.171 12.1999 14.75 13.6131C15.3289 15.0263 15.4803 16.5813 15.1852 18.0816C14.8901 19.5818 14.1616 20.9599 13.0919 22.0415C12.0223 23.1231 10.6594 23.8597 9.17573 24.1581C7.69205 24.4565 6.15417 24.3034 4.75657 23.718C3.35897 23.1326 2.16443 22.1414 1.32399 20.8695C0.483548 19.5977 0.034965 18.1024 0.034965 16.5728L0 15.4679C0 11.3656 1.61166 7.43124 4.48045 4.53045C7.34923 1.62965 11.2401 0 15.2972 0V4.4194C13.8617 4.4155 12.4396 4.6994 11.1133 5.25467C9.78692 5.80994 8.5826 6.62557 7.56993 7.65441C7.17634 8.05163 6.81326 8.47861 6.48383 8.93161C6.875 8.86974 7.27491 8.8366 7.68138 8.8366L7.68357 8.83881ZM27.3514 8.83881C28.8641 8.83881 30.3429 9.29239 31.6007 10.1422C32.8585 10.992 33.8389 12.1999 34.4178 13.6131C34.9967 15.0263 35.1482 16.5813 34.853 18.0816C34.5579 19.5818 33.8295 20.9599 32.7598 22.0415C31.6901 23.1231 30.3272 23.8597 28.8436 24.1581C27.3599 24.4565 25.822 24.3034 24.4244 23.718C23.0268 23.1326 21.8323 22.1414 20.9918 20.8695C20.1514 19.5977 19.7028 18.1024 19.7028 16.5728L19.6678 15.4679C19.6678 11.3656 21.2795 7.43124 24.1483 4.53045C27.0171 1.62965 30.908 0 34.965 0V4.4194C33.5295 4.4155 32.1075 4.6994 30.7811 5.25467C29.4548 5.80994 28.2504 6.62557 27.2378 7.65441C26.8442 8.05163 26.4811 8.47861 26.1517 8.93161C26.5428 8.86974 26.9427 8.8366 27.3514 8.8366V8.83881Z" fill="url(#awpaint0_linear_30_10875)"/><defs><linearGradient id="awpaint0_linear_30_10875" x1="0" y1="12.153" x2="35" y2="12.153" gradientUnits="userSpaceOnUse"><stop stop-color="#6A11CB"/><stop offset="1" stop-color="#2575FC"/></linearGradient></defs></symbol><symbol viewBox="0 0 30 30" fill="none" id="svg-record"><g clip-path="url(#axclip0_30_18675)" fill="#fff"><path d="M29.9646 2.23969C29.8996 1.04801 28.9519 0.100369 27.7602 0.0353297C25.3556 -0.0960375 20.6503 0.0317556 16.151 2.35892C13.8574 3.54533 11.4316 5.55679 9.49571 7.87758C9.47186 7.90617 9.44866 7.93494 9.42498 7.96359L5.03163 8.30297C4.30846 8.35886 3.66434 8.73791 3.26438 9.34283L0.267075 13.8763C-0.0362647 14.3351 -0.0844873 14.9093 0.137993 15.4122C0.360532 15.9152 0.817798 16.2657 1.36125 16.3499L5.06268 16.9232C5.04961 16.9951 5.03649 17.067 5.02448 17.139C4.90125 17.8761 5.14547 18.6339 5.67786 19.1662L10.8336 24.3221C11.275 24.7635 11.8714 25.0068 12.4826 25.0068C12.6084 25.0068 12.735 24.9964 12.861 24.9754C12.9329 24.9634 13.0048 24.9503 13.0768 24.9372L13.6501 28.6387C13.7343 29.1821 14.0848 29.6395 14.5876 29.8619C14.7969 29.9545 15.0183 30.0002 15.2387 30.0002C15.5483 30.0002 15.8556 29.9101 16.1235 29.7329L20.6571 26.7356C21.262 26.3355 21.641 25.6914 21.6968 24.9683L22.0362 20.575C22.0648 20.5513 22.0937 20.5281 22.1222 20.5043C24.4431 18.5684 26.4546 16.1426 27.641 13.8489C29.9682 9.34945 30.0958 4.64408 29.9646 2.23969ZM19.6876 25.2692L15.351 28.1364L14.7923 24.529C16.6251 23.9902 18.4382 23.1271 20.1655 21.9708L19.9444 24.8328C19.9306 25.0114 19.837 25.1705 19.6876 25.2692ZM12.0766 23.0791L6.92075 17.9233C6.7892 17.7917 6.72838 17.6068 6.75821 17.4288C6.91149 16.5122 7.14967 15.6397 7.44452 14.8177L15.1805 22.5537C14.1933 22.9073 13.3091 23.1183 12.5711 23.2417C12.3928 23.2713 12.2081 23.2107 12.0766 23.0791ZM5.16704 10.0556L8.02899 9.83449C6.8727 11.5618 6.00961 13.3748 5.47073 15.2077L1.86346 14.649L4.73069 10.3123C4.82948 10.1629 4.98856 10.0693 5.16704 10.0556ZM20.9964 19.1544C19.5765 20.3387 18.1982 21.1953 16.9278 21.8152L8.18438 13.0718C8.99637 11.4134 9.98737 10.0324 10.8455 9.00357C12.637 6.85582 14.8652 5.00303 16.9587 3.92021C21.088 1.78429 25.4387 1.66927 27.6645 1.79045C27.9591 1.8065 28.1934 2.04082 28.2095 2.33549C28.3308 4.56135 28.2156 8.91193 26.0797 13.0413C24.9969 15.1348 23.1441 17.3628 20.9964 19.1544Z"/><path d="M20.5499 13.8425C21.675 13.8424 22.8006 13.4141 23.6572 12.5575 24.4873 11.7275 24.9443 10.6239 24.9443 9.4502 24.9443 8.27645 24.4872 7.17289 23.6572 6.34291 21.9438 4.62945 19.1559 4.62957 17.4426 6.34291 16.6126 7.17289 16.1555 8.27645 16.1555 9.4502 16.1555 10.6239 16.6127 11.7275 17.4426 12.5575 18.2994 13.4142 19.4244 13.8426 20.5499 13.8425zM18.6855 7.5858C19.1995 7.07176 19.8746 6.81477 20.5498 6.81477 21.225 6.81477 21.9002 7.07176 22.4142 7.5858 22.9122 8.08379 23.1864 8.7459 23.1864 9.45014 23.1864 10.1544 22.9122 10.8165 22.4142 11.3145 21.3862 12.3426 19.7134 12.3425 18.6854 11.3145 18.1874 10.8165 17.9132 10.1544 17.9132 9.4502 17.9132 8.74596 18.1875 8.08379 18.6855 7.5858zM.896699 24.7226C1.12164 24.7226 1.34658 24.6368 1.51814 24.4651L4.38766 21.5956C4.7309 21.2524 4.7309 20.6959 4.38766 20.3526 4.04447 20.0094 3.48795 20.0094 3.14471 20.3526L.275254 23.2222C-.0679883 23.5654-.0679883 24.1219.275254 24.4651.446816 24.6367.671758 24.7226.896699 24.7226zM7.01722 22.9825C6.67403 22.6393 6.11751 22.6393 5.77427 22.9825L.257432 28.4994C-.0858105 28.8427-.0858105 29.3991.257432 29.7424.429053 29.914.653936 29.9998.878877 29.9998 1.10382 29.9998 1.32876 29.914 1.50032 29.7423L7.01716 24.2255C7.36046 23.8822 7.36046 23.3258 7.01722 22.9825zM8.40404 25.6124L5.53453 28.4819C5.19129 28.8252 5.19129 29.3816 5.53453 29.7249 5.70615 29.8965 5.93109 29.9823 6.15597 29.9823 6.38086 29.9823 6.60586 29.8966 6.77742 29.7249L9.64693 26.8554C9.99017 26.5121 9.99017 25.9557 9.64693 25.6124 9.30374 25.2692 8.74722 25.2692 8.40404 25.6124z"/></g><defs><clipPath id="axclip0_30_18675"><path fill="#fff" d="M0 0H30V30H0z"/></clipPath></defs></symbol><symbol viewBox="0 0 78 79" fill="none" id="svg-rescue"><path d="M50.0131 35.5534C49.1842 32.5713 46.5354 30.4869 43.571 30.4869C41.9132 30.4869 40.3155 31.0358 39.02 31.998C37.7245 31.0358 36.1268 30.4869 34.4691 30.4869C31.507 30.4869 28.8626 32.5602 28.0359 35.5312C27.3782 37.8979 27.0159 44.111 37.8445 50.6397L39.02 51.3486L40.1933 50.6397C51.0285 44.1132 50.6708 37.9156 50.0131 35.5534Z" fill="url(#aypaint0_linear_30_10784)"/><path d="M41.2956 19.3395V.869198C40.5385.82475 39.7882.753906 39.0201.753906 38.2521.753906 37.5018.82475 36.7446.869198V19.3395C37.5016 19.2542 38.241 19.1095 39.0201 19.1095 39.7992 19.1095 40.5386 19.2542 41.2956 19.3395zM59.2695 37.3134C59.3548 38.0703 59.4995 38.8097 59.4995 39.5888 59.4995 40.368 59.3548 41.1074 59.2695 41.8643H77.7398C77.7843 41.1072 77.8551 40.3569 77.8551 39.5888 77.8551 38.8208 77.7843 38.0705 77.7398 37.3134H59.2695zM45.8467 1.39429V20.3676C51.6296 22.4298 56.1794 26.9795 58.2416 32.7625H77.2149C74.3744 16.9023 61.7068 4.2347 45.8467 1.39429zM32.1934 20.3676V1.39429C16.3332 4.2347 3.66561 16.9023.825195 32.7625H19.7985C21.8607 26.9795 26.4105 22.4298 32.1934 20.3676zM18.7706 41.8643C18.6854 41.1074 18.5406 40.368 18.5406 39.5888 18.5406 38.8097 18.6854 38.0703 18.7706 37.3134H.30035C.255902 38.0705.185059 38.8208.185059 39.5888.185059 40.3569.255902 41.1072.30035 41.8643H18.7706zM58.2416 46.4153C56.1794 52.1982 51.6296 56.748 45.8467 58.8102V77.7835C61.7068 74.943 74.3744 62.2754 77.2149 46.4153H58.2416zM41.2956 59.8381C40.5386 59.9234 39.7992 60.0681 39.0201 60.0681 38.241 60.0681 37.5016 59.9234 36.7446 59.8381V78.3084C37.5018 78.3529 38.2521 78.4237 39.0201 78.4237 39.7882 78.4237 40.5385 78.3529 41.2956 78.3084V59.8381zM32.1934 77.7835V58.8102C26.4105 56.748 21.8607 52.1982 19.7985 46.4153H.825195C3.66561 62.2754 16.3332 74.943 32.1934 77.7835z" fill="#000"/><defs><linearGradient id="aypaint0_linear_30_10784" x1="27.761" y1="40.918" x2="50.288" y2="40.918" gradientUnits="userSpaceOnUse"><stop stop-color="#6A11CB"/><stop offset="1" stop-color="#2575FC"/></linearGradient></defs></symbol><symbol viewBox="0 0 91 91" fill="none" id="svg-revamp"><path d="M47.1809 37.9445V41.6424C47.1809 42.8168 47.4155 43.8022 47.8785 44.5698C48.5172 45.6292 49.5656 46.2364 50.756 46.2364C51.9222 46.2364 53.0812 45.6685 54.2003 44.5496L66.4161 32.336C69.0983 29.6544 69.0983 25.291 66.4161 22.6093L54.2003 10.3957C53.0812 9.27629 51.9222 8.70898 50.756 8.70898C48.9763 8.70898 47.1809 10.1298 47.1809 13.303V16.6613C29.8376 17.6854 15.4801 30.9927 13.3462 48.4152C13.2267 49.3882 13.7801 50.3197 14.6921 50.6805C14.9502 50.7826 15.2191 50.832 15.4845 50.832C16.1569 50.832 16.8091 50.5172 17.2244 49.9499C22.9479 42.1311 32.1375 37.4631 41.8065 37.4631C43.598 37.4631 45.3995 37.6247 47.1809 37.9445Z" fill="url(#azpaint0_linear_30_10807)"/><path d="M76.3074 40.3196C75.3954 39.9582 74.3548 40.259 73.7751 41.0507C68.0522 48.8689 58.8625 53.537 49.1935 53.537C47.4021 53.537 45.6005 53.3754 43.8192 53.0555V49.3577C43.8192 46.1845 42.0232 44.7637 40.2441 44.7637C39.0778 44.7637 37.9189 45.3316 36.7992 46.451L24.5834 58.664C21.9018 61.3457 21.9018 65.709 24.5839 68.3912L36.7992 80.6043C37.9189 81.7237 39.0778 82.291 40.2441 82.291C42.0232 82.291 43.8192 80.8702 43.8192 77.697V74.3387C61.163 73.3146 75.52 60.0074 77.6538 42.5854C77.7733 41.6118 77.2199 40.6804 76.3074 40.3196Z" fill="#000"/><defs><linearGradient id="azpaint0_linear_30_10807" x1="13.33" y1="29.77" x2="68.428" y2="29.77" gradientUnits="userSpaceOnUse"><stop stop-color="#6A11CB"/><stop offset="1" stop-color="#2575FC"/></linearGradient></defs></symbol><symbol viewBox="0 0 30 30" fill="none" id="svg-scale"><path d="M21.25 12.5H23.75V11.1875C24.5095 11.0333 25.1845 10.6024 25.6442 9.97842C26.1038 9.35447 26.3152 8.58199 26.2373 7.81094C26.1594 7.03989 25.7978 6.32529 25.2227 5.80586C24.6476 5.28643 23.9 4.99922 23.125 5H21.875C21.7092 5 21.5502 4.93415 21.433 4.81694C21.3158 4.69973 21.25 4.54076 21.25 4.375C21.25 4.20924 21.3158 4.05027 21.433 3.93306C21.5502 3.81585 21.7092 3.75 21.875 3.75H26.25V1.25H23.75V0H21.25V1.3125C20.4905 1.46672 19.8154 1.89763 19.3558 2.52158C18.8962 3.14553 18.6848 3.91801 18.7627 4.68906C18.8405 5.46011 19.2021 6.17471 19.7773 6.69414C20.3524 7.21357 21.1 7.50078 21.875 7.5H23.125C23.2907 7.5 23.4497 7.56585 23.5669 7.68306C23.6841 7.80027 23.75 7.95924 23.75 8.125C23.75 8.29076 23.6841 8.44973 23.5669 8.56694C23.4497 8.68415 23.2907 8.75 23.125 8.75H18.75V11.25H21.25V12.5Z" fill="#fff"/><path d="M28.75 13.75H16.25V1.25C16.25 0.918479 16.1183 0.600537 15.8839 0.366117C15.6495 0.131696 15.3315 0 15 0C12.0333 0 9.13319 0.879735 6.66645 2.52796C4.19972 4.17618 2.27713 6.51886 1.14181 9.25975C0.00649929 12.0006 -0.290551 15.0166 0.288228 17.9264C0.867006 20.8361 2.29562 23.5088 4.3934 25.6066C6.49119 27.7044 9.16394 29.133 12.0737 29.7118C14.9834 30.2906 17.9994 29.9935 20.7403 28.8582C23.4811 27.7229 25.8238 25.8003 27.472 23.3336C29.1203 20.8668 30 17.9667 30 15C30 14.6685 29.8683 14.3505 29.6339 14.1161C29.3995 13.8817 29.0815 13.75 28.75 13.75ZM13.75 12.2453L6.46876 5.875C8.46576 4.00051 11.0248 2.83631 13.75 2.5625V12.2453ZM4.82235 7.75547L13.1719 15.0608L5.3261 22.9063C3.58875 20.7873 2.59794 18.1549 2.50688 15.4163C2.41582 12.6777 3.22959 9.98532 4.82235 7.75563V7.75547ZM15 27.5C12.1167 27.5026 9.32207 26.5036 7.09376 24.6739L15.5178 16.25H27.4375C27.1237 19.3317 25.6784 22.1876 23.3811 24.2656C21.0838 26.3435 18.0977 27.496 15 27.5Z" fill="#fff"/></symbol><symbol viewBox="0 0 39 39" fill="none" id="svg-sound"><circle cx="19.5" cy="19.5" r="19.5" fill="#fff"/><path fill-rule="evenodd" clip-rule="evenodd" d="M10.234 15.6478H10.1307C9.44583 15.6478 8.78899 15.9199 8.3047 16.4042C7.82041 16.8885 7.54834 17.5453 7.54834 18.2302V20.8126C7.54834 21.4975 7.82041 22.1543 8.3047 22.6386C8.78899 23.1229 9.44583 23.395 10.1307 23.395H10.234C10.6066 23.3948 10.9748 23.4753 11.3133 23.6309C11.6519 23.7864 11.9528 24.0134 12.1953 24.2962L16.8978 29.7838C17.6777 30.6928 19.169 30.1414 19.169 28.9432V10.0996C19.169 8.90139 17.6777 8.35005 16.8965 9.26034L12.1966 14.7453C11.954 15.0285 11.653 15.2559 11.3142 15.4117C10.9754 15.5675 10.6069 15.648 10.234 15.6478ZM27.7374 9.54698C27.6152 9.42655 27.4702 9.33168 27.3109 9.26792C27.1516 9.20416 26.9812 9.17278 26.8097 9.17562C26.6381 9.17846 26.4689 9.21546 26.3118 9.28446C26.1547 9.35347 26.0129 9.45308 25.8948 9.57749C25.7766 9.70191 25.6845 9.84862 25.6237 10.0091C25.5629 10.1695 25.5346 10.3404 25.5406 10.5119C25.5467 10.6834 25.5868 10.8519 25.6587 11.0077C25.7306 11.1635 25.8328 11.3034 25.9594 11.4192C30.6787 15.9022 30.6787 23.1406 25.9594 27.6236C25.8328 27.7394 25.7306 27.8793 25.6587 28.0351C25.5868 28.1909 25.5467 28.3594 25.5406 28.5309C25.5346 28.7024 25.5629 28.8733 25.6237 29.0338C25.6845 29.1942 25.7766 29.3409 25.8948 29.4653C26.0129 29.5897 26.1547 29.6894 26.3118 29.7584C26.4689 29.8274 26.6381 29.8644 26.8097 29.8672C26.9812 29.87 27.1516 29.8387 27.3109 29.7749C27.4702 29.7111 27.6152 29.6163 27.7374 29.4958C33.5283 23.9954 33.5283 15.0474 27.7374 9.54698ZM23.9322 13.1623C23.684 12.9264 23.3521 12.7987 23.0097 12.8074C22.6673 12.8161 22.3424 12.9605 22.1065 13.2088C21.8705 13.4571 21.7429 13.7889 21.7516 14.1313C21.7603 14.4737 21.9047 14.7986 22.153 15.0345C24.7702 17.5201 24.7702 21.5228 22.153 24.0083C22.03 24.1251 21.9313 24.265 21.8625 24.42C21.7936 24.575 21.7559 24.742 21.7516 24.9115C21.7473 25.0811 21.7764 25.2498 21.8373 25.4081C21.8982 25.5664 21.9897 25.7111 22.1065 25.834C22.3424 26.0823 22.6673 26.2267 23.0097 26.2354C23.1793 26.2397 23.348 26.2106 23.5063 26.1497C23.6646 26.0888 23.8093 25.9973 23.9322 25.8805C27.6212 22.3762 27.6212 16.6666 23.9322 13.1623Z" fill="#000"/></symbol><symbol viewBox="0 0 25 25" fill="none" id="svg-sound_off"><path fill-rule="evenodd" clip-rule="evenodd" d="M15.44 8.49038C15.7412 8.18925 16.1497 8.02008 16.5757 8.02008 17.0016 8.02008 17.4101 8.18925 17.7113 8.49038L19.7882 10.5673 21.8652 8.49038C22.0133 8.33696 22.1906 8.21459 22.3865 8.13041 22.5825 8.04623 22.7933 8.00191 23.0066 8.00006 23.2199 7.99821 23.4314 8.03885 23.6288 8.11962 23.8262 8.20038 24.0055 8.31965 24.1563 8.47047 24.3072 8.62129 24.4264 8.80063 24.5072 8.99804 24.588 9.19545 24.6286 9.40696 24.6268 9.62024 24.6249 9.83352 24.5806 10.0443 24.4964 10.2403 24.4122 10.4362 24.2899 10.6135 24.1364 10.7617L22.0595 12.8386 24.1364 14.9155C24.429 15.2185 24.5909 15.6242 24.5873 16.0454 24.5836 16.4665 24.4147 16.8694 24.1169 17.1672 23.8191 17.465 23.4162 17.634 22.995 17.6376 22.5739 17.6413 22.1681 17.4794 21.8652 17.1868L19.7882 15.1099 17.7113 17.1868C17.4084 17.4794 17.0026 17.6413 16.5814 17.6376 16.1603 17.634 15.7574 17.465 15.4596 17.1672 15.1618 16.8694 14.9928 16.4665 14.9892 16.0454 14.9855 15.6242 15.1474 15.2185 15.44 14.9155L17.5169 12.8386 15.44 10.7617C15.1389 10.4604 14.9697 10.052 14.9697 9.62602 14.9697 9.20009 15.1389 8.7916 15.44 8.49038zM3.68567 8.8412H3.58238C2.89749 8.8412 2.24065 9.11328 1.75636 9.59757 1.27207 10.0819 1 10.7387 1 11.4236V14.006C1 14.6908 1.27207 15.3477 1.75636 15.832 2.24065 16.3163 2.89749 16.5883 3.58238 16.5883H3.68567C4.05825 16.5882 4.42646 16.6686 4.76501 16.8242 5.10356 16.9798 5.40444 17.2068 5.64699 17.4896L10.3495 22.9771C11.1294 23.8861 12.6207 23.3348 12.6207 22.1366V3.29297C12.6207 2.09474 11.1294 1.54341 10.3482 2.4537L5.64828 7.93866C5.40571 8.22188 5.10467 8.44921 4.76588 8.60501 4.42709 8.76081 4.05857 8.84139 3.68567 8.8412z" fill="#000"/></symbol><symbol viewBox="0 0 30 30" fill="none" id="svg-team"><path d="M26.4844 7.08984V3.51562H22.9102C22.9102 1.57711 21.333 0 19.3945 0C17.456 0 15.8789 1.57711 15.8789 3.51562H13.2422C5.9543 3.51562 0 9.47062 0 16.7578C0 24.0457 5.955 30 13.2422 30C20.5301 30 26.4844 24.045 26.4844 16.7578V14.1211C28.4229 14.1211 30 12.544 30 10.6055C30 8.66695 28.4229 7.08984 26.4844 7.08984ZM12.3633 5.30678V9.36756C13.423 9.01371 13.6362 8.84766 14.1211 8.84766C15.0904 8.84766 15.8789 9.63621 15.8789 10.6055C15.8789 11.5747 15.0904 12.3633 14.1211 12.3633C13.6355 12.3633 13.4199 12.1962 12.3633 11.8434V15.8789H10.6055C10.6055 13.9404 9.02836 12.3633 7.08984 12.3633C5.15133 12.3633 3.57422 13.9404 3.57422 15.8789H1.79115C2.21947 10.2456 6.72996 5.7351 12.3633 5.30678ZM1.79115 17.6367H5.85205C5.49773 16.576 5.33203 16.3638 5.33203 15.8789C5.33203 14.9096 6.12059 14.1211 7.08984 14.1211C8.0591 14.1211 8.84766 14.9096 8.84766 15.8789C8.84766 16.3638 8.68172 16.5766 8.32764 17.6367H12.3633V19.3945C10.4248 19.3945 8.84766 20.9716 8.84766 22.9102C8.84766 24.8487 10.4248 26.4258 12.3633 26.4258V28.2088C6.72996 27.7805 2.21947 23.27 1.79115 17.6367ZM14.1211 28.2088V24.1481C13.0614 24.5019 12.8481 24.668 12.3633 24.668C11.394 24.668 10.6055 23.8794 10.6055 22.9102C10.6055 21.9409 11.394 21.1523 12.3633 21.1523C12.8488 21.1523 13.0645 21.3194 14.1211 21.6722V17.6367H15.8789C15.8789 19.5752 17.456 21.1523 19.3945 21.1523C21.333 21.1523 22.9102 19.5746 22.9102 17.6361L24.6932 17.6367C24.2649 23.27 19.7544 27.7805 14.1211 28.2088ZM26.4844 12.3633C26.0858 12.3633 25.7838 12.182 24.7266 11.8192V15.8789H20.6323C20.9866 16.9396 21.1523 17.1519 21.1523 17.6367C21.1523 18.606 20.3638 19.3945 19.3945 19.3945C18.4253 19.3945 17.6367 18.606 17.6367 17.6367C17.6367 17.1519 17.8027 16.939 18.1567 15.8789H14.1211V14.1211C16.0596 14.1211 17.6367 12.544 17.6367 10.6055C17.6367 8.66695 16.0596 7.08984 14.1211 7.08984V5.27344H18.1808C17.8221 4.22801 17.6367 3.91395 17.6367 3.51562C17.6367 2.54637 18.4253 1.75781 19.3945 1.75781C20.3638 1.75781 21.1523 2.54637 21.1523 3.51562C21.1523 3.9143 20.9708 4.21676 20.6083 5.27344H24.7266V9.3917C25.772 9.03299 26.0861 8.84766 26.4844 8.84766C27.4536 8.84766 28.2422 9.63621 28.2422 10.6055C28.2422 11.5747 27.4536 12.3633 26.4844 12.3633Z" fill="#fff"/></symbol><symbol viewBox="0 0 24 25" fill="none" id="svg-testing"><g clip-path="url(#beclip0_30_17407)"><path d="M14.8125 2.15674H13.9892C13.6988 1.33825 12.9167 0.750488 12 0.750488C11.0833 0.750488 10.3013 1.33825 10.0108 2.15674H9.1875C8.02434 2.15674 7.07812 3.10296 7.07812 4.26611C7.07812 4.65475 7.39261 4.96924 7.78125 4.96924H16.2188C16.6074 4.96924 16.9219 4.65475 16.9219 4.26611C16.9219 3.10296 15.9757 2.15674 14.8125 2.15674Z" fill="url(#bepaint0_linear_30_17407)"/><path d="M19.0312 3.56299H18.257C18.3033 3.79029 18.3281 4.02536 18.3281 4.26611C18.3281 5.42927 17.3819 6.37549 16.2188 6.37549H7.78125C6.61809 6.37549 5.67188 5.42927 5.67188 4.26611C5.67188 4.02536 5.69667 3.79029 5.74303 3.56299H4.96875C3.80559 3.56299 2.85938 4.50921 2.85938 5.67236V22.6411C2.85938 23.8043 3.80559 24.7505 4.96875 24.7505H19.0312C20.1944 24.7505 21.1406 23.8043 21.1406 22.6411V5.67236C21.1406 4.50921 20.1944 3.56299 19.0312 3.56299ZM9.89062 20.438H7.07812C6.68948 20.438 6.375 20.1235 6.375 19.7349C6.375 19.3462 6.68948 19.0317 7.07812 19.0317H9.89062C10.2793 19.0317 10.5938 19.3462 10.5938 19.7349C10.5938 20.1235 10.2793 20.438 9.89062 20.438ZM9.89062 15.5161H7.07812C6.68948 15.5161 6.375 15.2016 6.375 14.813C6.375 14.4243 6.68948 14.1099 7.07812 14.1099H9.89062C10.2793 14.1099 10.5938 14.4243 10.5938 14.813C10.5938 15.2016 10.2793 15.5161 9.89062 15.5161ZM9.89062 10.5942H7.07812C6.68948 10.5942 6.375 10.2798 6.375 9.89111C6.375 9.50247 6.68948 9.18799 7.07812 9.18799H9.89062C10.2793 9.18799 10.5938 9.50247 10.5938 9.89111C10.5938 10.2798 10.2793 10.5942 9.89062 10.5942ZM16.7159 20.644C16.9905 20.9186 16.9905 21.3636 16.7159 21.6383C16.5785 21.7756 16.3986 21.8443 16.2188 21.8443C16.0389 21.8443 15.8589 21.7756 15.7216 21.6383L14.8125 20.7291L13.9034 21.6383C13.766 21.7756 13.5861 21.8443 13.4062 21.8443C13.2264 21.8443 13.0464 21.7756 12.9091 21.6383C12.6345 21.3636 12.6345 20.9186 12.9091 20.644L13.8182 19.7349L12.9091 18.8257C12.6345 18.5511 12.6345 18.1061 12.9091 17.8315C13.1837 17.5568 13.6287 17.5568 13.9034 17.8315L14.8125 18.7406L15.7216 17.8315C15.9963 17.5568 16.4413 17.5568 16.7159 17.8315C16.9905 18.1061 16.9905 18.5511 16.7159 18.8257L15.8068 19.7349L16.7159 20.644ZM17.419 13.9038L15.3096 16.0132C15.1723 16.1506 14.9924 16.2192 14.8125 16.2192C14.6326 16.2192 14.4527 16.1506 14.3154 16.0132L12.9091 14.607C12.6345 14.3323 12.6345 13.8873 12.9091 13.6127C13.1838 13.3381 13.6288 13.3381 13.9034 13.6127L14.8125 14.5218L16.4248 12.9096C16.6994 12.6349 17.1444 12.6349 17.419 12.9096C17.6937 13.1842 17.6937 13.6292 17.419 13.9038ZM17.419 9.6851L15.3096 11.7945C15.1723 11.9318 14.9924 12.0005 14.8125 12.0005C14.6326 12.0005 14.4527 11.9318 14.3154 11.7945L12.9091 10.3882C12.6345 10.1136 12.6345 9.6686 12.9091 9.39396C13.1838 9.11932 13.6288 9.11932 13.9034 9.39396L14.8125 10.3031L16.4248 8.69083C16.6994 8.41619 17.1444 8.41619 17.419 8.69083C17.6937 8.96547 17.6937 9.41046 17.419 9.6851Z" fill="url(#bepaint1_linear_30_17407)"/></g><defs><linearGradient id="bepaint0_linear_30_17407" x1="7.078" y1="2.86" x2="16.922" y2="2.86" gradientUnits="userSpaceOnUse"><stop stop-color="#6A11CB"/><stop offset="1" stop-color="#2575FC"/></linearGradient><linearGradient id="bepaint1_linear_30_17407" x1="2.859" y1="14.157" x2="21.141" y2="14.157" gradientUnits="userSpaceOnUse"><stop stop-color="#6A11CB"/><stop offset="1" stop-color="#2575FC"/></linearGradient><clipPath id="beclip0_30_17407"><path fill="#fff" transform="translate(0 .75)" d="M0 0H24V24H0z"/></clipPath></defs></symbol><symbol viewBox="0 0 10 8" fill="none" id="svg-triangle"><path d="M5.86603 7.5C5.48112 8.16667 4.51887 8.16667 4.13397 7.5L0.669873 1.5C0.284973 0.833333 0.766098 5.89981e-08 1.5359 1.26296e-07L8.4641 7.31979e-07C9.2339 7.99277e-07 9.71503 0.833334 9.33013 1.5L5.86603 7.5Z" fill="url(#bfpaint0_linear_67_8244)"/><defs><linearGradient id="bfpaint0_linear_67_8244" x1="11" y1="3" x2="-1" y2="3" gradientUnits="userSpaceOnUse"><stop stop-color="#6A11CB"/><stop offset="1" stop-color="#2575FC"/></linearGradient></defs></symbol></svg>