<svg width="9" height="16" viewBox="0 0 9 16" fill="none" xmlns="http://www.w3.org/2000/svg">
<path d="M0.642861 14.8556C0.642316 14.5887 0.739364 14.33 0.917158 14.1244L6.26001 8.00112L1.10798 1.86638C1.00891 1.74953 0.934931 1.61507 0.89029 1.47074C0.845649 1.32641 0.831225 1.17505 0.84785 1.02536C0.864473 0.875675 0.911816 0.73061 0.987157 0.598505C1.0625 0.466401 1.16435 0.349862 1.28686 0.255587C1.40885 0.160692 1.54922 0.0898268 1.69989 0.0470645C1.85056 0.00430215 2.00857 -0.00951397 2.16484 0.0064103C2.3211 0.0223346 2.47254 0.0676851 2.61045 0.139856C2.74836 0.212026 2.87002 0.309593 2.96843 0.426949L8.7287 7.2814C8.90411 7.48582 9 7.74222 9 8.00683C9 8.27145 8.90411 8.52785 8.7287 8.73226L2.76569 15.5867C2.66557 15.7024 2.54262 15.798 2.40386 15.8681C2.2651 15.9382 2.11328 15.9814 1.95707 15.9952C1.80087 16.009 1.64336 15.9931 1.49357 15.9485C1.34377 15.9039 1.20463 15.8314 1.08412 15.7352C0.947315 15.6289 0.836792 15.4949 0.760495 15.3428C0.6842 15.1907 0.644025 15.0243 0.642861 14.8556Z" fill="black"/>
</svg>
