<svg width="30" height="30" viewBox="0 0 30 30" fill="none" xmlns="http://www.w3.org/2000/svg">
<g clip-path="url(#clip0_30_18733)">
<mask id="path-1-outside-1_30_18733" maskUnits="userSpaceOnUse" x="-0.883057" y="-0.414062" width="32" height="31" fill="black">
<rect fill="white" x="-0.883057" y="-0.414062" width="32" height="31"/>
<path d="M29.9999 13.2853C29.9999 10.775 28.3699 8.63963 26.1134 7.87795C25.6588 6.03578 24.125 4.64025 22.2406 4.31207C22.1575 3.44318 21.7947 2.62771 21.1848 1.96114C20.3853 1.08715 19.2376 0.585938 18.0362 0.585938C16.6049 0.585938 15.3385 1.28514 14.5744 2.35134C13.8104 1.28514 12.544 0.585938 11.1126 0.585938C9.91124 0.585938 8.76362 1.08715 7.96405 1.96107C7.35463 2.62725 6.9919 3.44219 6.90843 4.31032C5.63192 4.52764 4.50972 5.22821 3.75801 6.29746C3.03019 7.33291 2.75565 8.57062 2.96909 9.77819C1.2167 10.7022 0.116943 12.4751 0.116943 14.459C0.116943 16.2003 0.964377 17.786 2.37808 18.7767C1.56474 20.0594 1.44231 21.6034 2.07258 23.0566C2.84521 24.8377 4.57789 25.9887 6.48673 25.9887C6.63534 25.9887 6.78478 25.9818 6.93468 25.9682C7.05278 26.7591 7.4044 27.5095 7.95431 28.1148C8.75457 28.9956 9.90576 29.5008 11.1126 29.5008C12.544 29.5008 13.8104 28.8016 14.5744 27.7354C15.3385 28.8016 16.6049 29.5008 18.0362 29.5008C19.2432 29.5008 20.3943 28.9956 21.1945 28.1149C21.7445 27.5095 22.0961 26.759 22.2141 25.9681C24.0605 26.1339 25.7843 25.28 26.7728 23.6446C27.7785 21.9808 27.6912 20.0246 26.5869 18.5093C28.5943 17.6243 29.9999 15.6164 29.9999 13.2853ZM13.8135 25.3797C13.8135 26.8129 12.6019 27.9789 11.1126 27.9789C10.3337 27.9789 9.5931 27.6555 9.0807 27.0916C8.69841 26.6709 8.47303 26.1584 8.42311 25.6145C9.79512 25.0697 10.1496 24.1397 10.4156 23.4395C10.6391 22.8514 10.7512 22.5563 11.3879 22.3855C11.7939 22.2767 12.0348 21.8595 11.926 21.4535C11.8172 21.0477 11.4 20.8066 10.9941 20.9156C9.60512 21.2878 9.25129 22.219 8.99296 22.899C8.73273 23.584 8.56076 24.0365 7.4693 24.329C7.46824 24.3293 7.46732 24.3297 7.46633 24.33C7.46565 24.3302 7.46489 24.3302 7.4642 24.3304C7.13541 24.421 6.80654 24.4669 6.48688 24.4669C5.18473 24.4669 4.00005 23.6757 3.46886 22.451C2.96064 21.2794 3.18291 20.0183 4.06336 19.0775C4.22909 18.9004 4.30046 18.6548 4.25549 18.4166C4.21052 18.1782 4.05461 17.9755 3.8357 17.871C2.48066 17.2238 1.63893 15.9165 1.63893 14.459C1.63893 12.8868 2.61785 11.4974 4.13291 10.9193C4.51382 10.774 4.7125 10.3542 4.58337 9.96743C4.26721 9.02062 4.42023 8.00191 5.00317 7.17266C5.61472 6.30271 6.58824 5.78871 7.67498 5.76147C8.96975 5.76428 9.25548 6.28094 9.65032 6.99544C10.0099 7.64626 10.5023 8.53752 11.8265 8.53752C12.2467 8.53752 12.5874 8.19678 12.5874 7.7766C12.5874 7.35642 12.2467 7.01568 11.8265 7.01568C11.4344 7.01568 11.3317 6.89173 10.9824 6.25948C10.5955 5.55929 10.036 4.54796 8.44548 4.29761C8.52431 3.81572 8.74277 3.36481 9.08709 2.98838C9.59888 2.42873 10.3373 2.10777 11.1126 2.10777C12.6018 2.10777 13.8134 3.2738 13.8134 4.70706V14.999C12.0268 14.8253 11.5804 14.0085 11.0333 13.0043C10.4978 12.0215 9.83149 10.7984 7.82876 10.5866C7.41117 10.5412 7.03619 10.8452 6.99198 11.2633C6.94777 11.6812 7.25077 12.0558 7.66866 12.1C8.87715 12.2278 9.20328 12.8263 9.69689 13.7324C9.87555 14.0603 10.0662 14.4091 10.3087 14.7457C9.90781 15.1531 9.30303 15.5751 8.61676 15.9152C8.24026 16.1019 8.08633 16.5584 8.27298 16.9349C8.40576 17.2029 8.67528 17.3581 8.9553 17.3581C9.06883 17.3581 9.18403 17.3326 9.29269 17.2788C10.1454 16.8561 10.8782 16.339 11.4046 15.7999C11.9803 16.1673 12.7476 16.4378 13.8135 16.5247V25.3797ZM25.4704 22.8574C24.869 23.8523 23.5165 24.8347 21.6847 24.3304C21.684 24.3302 21.6832 24.3301 21.6825 24.33C21.6815 24.3297 21.6806 24.3293 21.6796 24.329C20.5881 24.0365 20.4162 23.584 20.1559 22.899C19.8975 22.219 19.5438 21.2877 18.1548 20.9156C17.7488 20.8068 17.3316 21.0477 17.2229 21.4535C17.1141 21.8595 17.355 22.2767 17.7609 22.3855C18.3977 22.5562 18.5099 22.8514 18.7334 23.4395C18.9994 24.1397 19.3538 25.0697 20.7258 25.6144C20.6758 26.1584 20.4505 26.6709 20.0682 27.0916C19.5557 27.6555 18.8151 27.9789 18.0362 27.9789C16.547 27.9789 15.3354 26.8129 15.3354 25.3797V19.9357C15.3358 18.5653 16.0569 17.8837 16.7319 17.7028C17.5693 17.4787 18.4465 17.9147 18.9661 18.8145C19.1762 19.1783 19.6415 19.3031 20.0055 19.093C20.3694 18.8828 20.4941 18.4175 20.284 18.0535C19.4232 16.5628 17.8374 15.8311 16.338 16.2328C15.9704 16.3313 15.6345 16.4903 15.3355 16.6996V4.70706C15.3355 3.2738 16.5471 2.10777 18.0363 2.10777C18.8118 2.10777 19.5501 2.42873 20.0621 2.9883C20.4064 3.36473 20.6249 3.81565 20.7037 4.29754C19.1132 4.54788 18.5537 5.55921 18.1668 6.25941C17.8175 6.89165 17.7148 7.01561 17.3227 7.01561C16.9025 7.01561 16.5618 7.35635 16.5618 7.77652C16.5618 8.1967 16.9025 8.53744 17.3227 8.53744C18.6468 8.53744 19.1393 7.64618 19.4989 6.99537C19.8937 6.28071 20.1795 5.76405 21.475 5.76139C22.7455 5.79365 23.8568 6.51789 24.3912 7.58089C24.3585 7.58028 24.326 7.57838 24.2932 7.57838C21.1464 7.57838 18.5863 10.1385 18.5863 13.2853C18.5863 16.432 21.1464 18.9921 24.2932 18.9921C24.5288 18.9921 24.7605 18.9761 24.9886 18.9482C25.0157 18.9938 25.0479 19.0372 25.0856 19.0775C26.2814 20.3553 26.0685 21.8679 25.4704 22.8574ZM24.293 17.4704C21.9854 17.4704 20.108 15.593 20.108 13.2853C20.108 10.9777 21.9854 9.10029 24.293 9.10029C26.6007 9.10029 28.4781 10.9777 28.4781 13.2853C28.4781 15.593 26.6007 17.4704 24.293 17.4704Z"/>
</mask>
<path d="M29.9999 13.2853C29.9999 10.775 28.3699 8.63963 26.1134 7.87795C25.6588 6.03578 24.125 4.64025 22.2406 4.31207C22.1575 3.44318 21.7947 2.62771 21.1848 1.96114C20.3853 1.08715 19.2376 0.585938 18.0362 0.585938C16.6049 0.585938 15.3385 1.28514 14.5744 2.35134C13.8104 1.28514 12.544 0.585938 11.1126 0.585938C9.91124 0.585938 8.76362 1.08715 7.96405 1.96107C7.35463 2.62725 6.9919 3.44219 6.90843 4.31032C5.63192 4.52764 4.50972 5.22821 3.75801 6.29746C3.03019 7.33291 2.75565 8.57062 2.96909 9.77819C1.2167 10.7022 0.116943 12.4751 0.116943 14.459C0.116943 16.2003 0.964377 17.786 2.37808 18.7767C1.56474 20.0594 1.44231 21.6034 2.07258 23.0566C2.84521 24.8377 4.57789 25.9887 6.48673 25.9887C6.63534 25.9887 6.78478 25.9818 6.93468 25.9682C7.05278 26.7591 7.4044 27.5095 7.95431 28.1148C8.75457 28.9956 9.90576 29.5008 11.1126 29.5008C12.544 29.5008 13.8104 28.8016 14.5744 27.7354C15.3385 28.8016 16.6049 29.5008 18.0362 29.5008C19.2432 29.5008 20.3943 28.9956 21.1945 28.1149C21.7445 27.5095 22.0961 26.759 22.2141 25.9681C24.0605 26.1339 25.7843 25.28 26.7728 23.6446C27.7785 21.9808 27.6912 20.0246 26.5869 18.5093C28.5943 17.6243 29.9999 15.6164 29.9999 13.2853ZM13.8135 25.3797C13.8135 26.8129 12.6019 27.9789 11.1126 27.9789C10.3337 27.9789 9.5931 27.6555 9.0807 27.0916C8.69841 26.6709 8.47303 26.1584 8.42311 25.6145C9.79512 25.0697 10.1496 24.1397 10.4156 23.4395C10.6391 22.8514 10.7512 22.5563 11.3879 22.3855C11.7939 22.2767 12.0348 21.8595 11.926 21.4535C11.8172 21.0477 11.4 20.8066 10.9941 20.9156C9.60512 21.2878 9.25129 22.219 8.99296 22.899C8.73273 23.584 8.56076 24.0365 7.4693 24.329C7.46824 24.3293 7.46732 24.3297 7.46633 24.33C7.46565 24.3302 7.46489 24.3302 7.4642 24.3304C7.13541 24.421 6.80654 24.4669 6.48688 24.4669C5.18473 24.4669 4.00005 23.6757 3.46886 22.451C2.96064 21.2794 3.18291 20.0183 4.06336 19.0775C4.22909 18.9004 4.30046 18.6548 4.25549 18.4166C4.21052 18.1782 4.05461 17.9755 3.8357 17.871C2.48066 17.2238 1.63893 15.9165 1.63893 14.459C1.63893 12.8868 2.61785 11.4974 4.13291 10.9193C4.51382 10.774 4.7125 10.3542 4.58337 9.96743C4.26721 9.02062 4.42023 8.00191 5.00317 7.17266C5.61472 6.30271 6.58824 5.78871 7.67498 5.76147C8.96975 5.76428 9.25548 6.28094 9.65032 6.99544C10.0099 7.64626 10.5023 8.53752 11.8265 8.53752C12.2467 8.53752 12.5874 8.19678 12.5874 7.7766C12.5874 7.35642 12.2467 7.01568 11.8265 7.01568C11.4344 7.01568 11.3317 6.89173 10.9824 6.25948C10.5955 5.55929 10.036 4.54796 8.44548 4.29761C8.52431 3.81572 8.74277 3.36481 9.08709 2.98838C9.59888 2.42873 10.3373 2.10777 11.1126 2.10777C12.6018 2.10777 13.8134 3.2738 13.8134 4.70706V14.999C12.0268 14.8253 11.5804 14.0085 11.0333 13.0043C10.4978 12.0215 9.83149 10.7984 7.82876 10.5866C7.41117 10.5412 7.03619 10.8452 6.99198 11.2633C6.94777 11.6812 7.25077 12.0558 7.66866 12.1C8.87715 12.2278 9.20328 12.8263 9.69689 13.7324C9.87555 14.0603 10.0662 14.4091 10.3087 14.7457C9.90781 15.1531 9.30303 15.5751 8.61676 15.9152C8.24026 16.1019 8.08633 16.5584 8.27298 16.9349C8.40576 17.2029 8.67528 17.3581 8.9553 17.3581C9.06883 17.3581 9.18403 17.3326 9.29269 17.2788C10.1454 16.8561 10.8782 16.339 11.4046 15.7999C11.9803 16.1673 12.7476 16.4378 13.8135 16.5247V25.3797ZM25.4704 22.8574C24.869 23.8523 23.5165 24.8347 21.6847 24.3304C21.684 24.3302 21.6832 24.3301 21.6825 24.33C21.6815 24.3297 21.6806 24.3293 21.6796 24.329C20.5881 24.0365 20.4162 23.584 20.1559 22.899C19.8975 22.219 19.5438 21.2877 18.1548 20.9156C17.7488 20.8068 17.3316 21.0477 17.2229 21.4535C17.1141 21.8595 17.355 22.2767 17.7609 22.3855C18.3977 22.5562 18.5099 22.8514 18.7334 23.4395C18.9994 24.1397 19.3538 25.0697 20.7258 25.6144C20.6758 26.1584 20.4505 26.6709 20.0682 27.0916C19.5557 27.6555 18.8151 27.9789 18.0362 27.9789C16.547 27.9789 15.3354 26.8129 15.3354 25.3797V19.9357C15.3358 18.5653 16.0569 17.8837 16.7319 17.7028C17.5693 17.4787 18.4465 17.9147 18.9661 18.8145C19.1762 19.1783 19.6415 19.3031 20.0055 19.093C20.3694 18.8828 20.4941 18.4175 20.284 18.0535C19.4232 16.5628 17.8374 15.8311 16.338 16.2328C15.9704 16.3313 15.6345 16.4903 15.3355 16.6996V4.70706C15.3355 3.2738 16.5471 2.10777 18.0363 2.10777C18.8118 2.10777 19.5501 2.42873 20.0621 2.9883C20.4064 3.36473 20.6249 3.81565 20.7037 4.29754C19.1132 4.54788 18.5537 5.55921 18.1668 6.25941C17.8175 6.89165 17.7148 7.01561 17.3227 7.01561C16.9025 7.01561 16.5618 7.35635 16.5618 7.77652C16.5618 8.1967 16.9025 8.53744 17.3227 8.53744C18.6468 8.53744 19.1393 7.64618 19.4989 6.99537C19.8937 6.28071 20.1795 5.76405 21.475 5.76139C22.7455 5.79365 23.8568 6.51789 24.3912 7.58089C24.3585 7.58028 24.326 7.57838 24.2932 7.57838C21.1464 7.57838 18.5863 10.1385 18.5863 13.2853C18.5863 16.432 21.1464 18.9921 24.2932 18.9921C24.5288 18.9921 24.7605 18.9761 24.9886 18.9482C25.0157 18.9938 25.0479 19.0372 25.0856 19.0775C26.2814 20.3553 26.0685 21.8679 25.4704 22.8574ZM24.293 17.4704C21.9854 17.4704 20.108 15.593 20.108 13.2853C20.108 10.9777 21.9854 9.10029 24.293 9.10029C26.6007 9.10029 28.4781 10.9777 28.4781 13.2853C28.4781 15.593 26.6007 17.4704 24.293 17.4704Z" fill="white"/>
<path d="M29.9999 13.2853C29.9999 10.775 28.3699 8.63963 26.1134 7.87795C25.6588 6.03578 24.125 4.64025 22.2406 4.31207C22.1575 3.44318 21.7947 2.62771 21.1848 1.96114C20.3853 1.08715 19.2376 0.585938 18.0362 0.585938C16.6049 0.585938 15.3385 1.28514 14.5744 2.35134C13.8104 1.28514 12.544 0.585938 11.1126 0.585938C9.91124 0.585938 8.76362 1.08715 7.96405 1.96107C7.35463 2.62725 6.9919 3.44219 6.90843 4.31032C5.63192 4.52764 4.50972 5.22821 3.75801 6.29746C3.03019 7.33291 2.75565 8.57062 2.96909 9.77819C1.2167 10.7022 0.116943 12.4751 0.116943 14.459C0.116943 16.2003 0.964377 17.786 2.37808 18.7767C1.56474 20.0594 1.44231 21.6034 2.07258 23.0566C2.84521 24.8377 4.57789 25.9887 6.48673 25.9887C6.63534 25.9887 6.78478 25.9818 6.93468 25.9682C7.05278 26.7591 7.4044 27.5095 7.95431 28.1148C8.75457 28.9956 9.90576 29.5008 11.1126 29.5008C12.544 29.5008 13.8104 28.8016 14.5744 27.7354C15.3385 28.8016 16.6049 29.5008 18.0362 29.5008C19.2432 29.5008 20.3943 28.9956 21.1945 28.1149C21.7445 27.5095 22.0961 26.759 22.2141 25.9681C24.0605 26.1339 25.7843 25.28 26.7728 23.6446C27.7785 21.9808 27.6912 20.0246 26.5869 18.5093C28.5943 17.6243 29.9999 15.6164 29.9999 13.2853ZM13.8135 25.3797C13.8135 26.8129 12.6019 27.9789 11.1126 27.9789C10.3337 27.9789 9.5931 27.6555 9.0807 27.0916C8.69841 26.6709 8.47303 26.1584 8.42311 25.6145C9.79512 25.0697 10.1496 24.1397 10.4156 23.4395C10.6391 22.8514 10.7512 22.5563 11.3879 22.3855C11.7939 22.2767 12.0348 21.8595 11.926 21.4535C11.8172 21.0477 11.4 20.8066 10.9941 20.9156C9.60512 21.2878 9.25129 22.219 8.99296 22.899C8.73273 23.584 8.56076 24.0365 7.4693 24.329C7.46824 24.3293 7.46732 24.3297 7.46633 24.33C7.46565 24.3302 7.46489 24.3302 7.4642 24.3304C7.13541 24.421 6.80654 24.4669 6.48688 24.4669C5.18473 24.4669 4.00005 23.6757 3.46886 22.451C2.96064 21.2794 3.18291 20.0183 4.06336 19.0775C4.22909 18.9004 4.30046 18.6548 4.25549 18.4166C4.21052 18.1782 4.05461 17.9755 3.8357 17.871C2.48066 17.2238 1.63893 15.9165 1.63893 14.459C1.63893 12.8868 2.61785 11.4974 4.13291 10.9193C4.51382 10.774 4.7125 10.3542 4.58337 9.96743C4.26721 9.02062 4.42023 8.00191 5.00317 7.17266C5.61472 6.30271 6.58824 5.78871 7.67498 5.76147C8.96975 5.76428 9.25548 6.28094 9.65032 6.99544C10.0099 7.64626 10.5023 8.53752 11.8265 8.53752C12.2467 8.53752 12.5874 8.19678 12.5874 7.7766C12.5874 7.35642 12.2467 7.01568 11.8265 7.01568C11.4344 7.01568 11.3317 6.89173 10.9824 6.25948C10.5955 5.55929 10.036 4.54796 8.44548 4.29761C8.52431 3.81572 8.74277 3.36481 9.08709 2.98838C9.59888 2.42873 10.3373 2.10777 11.1126 2.10777C12.6018 2.10777 13.8134 3.2738 13.8134 4.70706V14.999C12.0268 14.8253 11.5804 14.0085 11.0333 13.0043C10.4978 12.0215 9.83149 10.7984 7.82876 10.5866C7.41117 10.5412 7.03619 10.8452 6.99198 11.2633C6.94777 11.6812 7.25077 12.0558 7.66866 12.1C8.87715 12.2278 9.20328 12.8263 9.69689 13.7324C9.87555 14.0603 10.0662 14.4091 10.3087 14.7457C9.90781 15.1531 9.30303 15.5751 8.61676 15.9152C8.24026 16.1019 8.08633 16.5584 8.27298 16.9349C8.40576 17.2029 8.67528 17.3581 8.9553 17.3581C9.06883 17.3581 9.18403 17.3326 9.29269 17.2788C10.1454 16.8561 10.8782 16.339 11.4046 15.7999C11.9803 16.1673 12.7476 16.4378 13.8135 16.5247V25.3797ZM25.4704 22.8574C24.869 23.8523 23.5165 24.8347 21.6847 24.3304C21.684 24.3302 21.6832 24.3301 21.6825 24.33C21.6815 24.3297 21.6806 24.3293 21.6796 24.329C20.5881 24.0365 20.4162 23.584 20.1559 22.899C19.8975 22.219 19.5438 21.2877 18.1548 20.9156C17.7488 20.8068 17.3316 21.0477 17.2229 21.4535C17.1141 21.8595 17.355 22.2767 17.7609 22.3855C18.3977 22.5562 18.5099 22.8514 18.7334 23.4395C18.9994 24.1397 19.3538 25.0697 20.7258 25.6144C20.6758 26.1584 20.4505 26.6709 20.0682 27.0916C19.5557 27.6555 18.8151 27.9789 18.0362 27.9789C16.547 27.9789 15.3354 26.8129 15.3354 25.3797V19.9357C15.3358 18.5653 16.0569 17.8837 16.7319 17.7028C17.5693 17.4787 18.4465 17.9147 18.9661 18.8145C19.1762 19.1783 19.6415 19.3031 20.0055 19.093C20.3694 18.8828 20.4941 18.4175 20.284 18.0535C19.4232 16.5628 17.8374 15.8311 16.338 16.2328C15.9704 16.3313 15.6345 16.4903 15.3355 16.6996V4.70706C15.3355 3.2738 16.5471 2.10777 18.0363 2.10777C18.8118 2.10777 19.5501 2.42873 20.0621 2.9883C20.4064 3.36473 20.6249 3.81565 20.7037 4.29754C19.1132 4.54788 18.5537 5.55921 18.1668 6.25941C17.8175 6.89165 17.7148 7.01561 17.3227 7.01561C16.9025 7.01561 16.5618 7.35635 16.5618 7.77652C16.5618 8.1967 16.9025 8.53744 17.3227 8.53744C18.6468 8.53744 19.1393 7.64618 19.4989 6.99537C19.8937 6.28071 20.1795 5.76405 21.475 5.76139C22.7455 5.79365 23.8568 6.51789 24.3912 7.58089C24.3585 7.58028 24.326 7.57838 24.2932 7.57838C21.1464 7.57838 18.5863 10.1385 18.5863 13.2853C18.5863 16.432 21.1464 18.9921 24.2932 18.9921C24.5288 18.9921 24.7605 18.9761 24.9886 18.9482C25.0157 18.9938 25.0479 19.0372 25.0856 19.0775C26.2814 20.3553 26.0685 21.8679 25.4704 22.8574ZM24.293 17.4704C21.9854 17.4704 20.108 15.593 20.108 13.2853C20.108 10.9777 21.9854 9.10029 24.293 9.10029C26.6007 9.10029 28.4781 10.9777 28.4781 13.2853C28.4781 15.593 26.6007 17.4704 24.293 17.4704Z" stroke="white" stroke-width="0.4" mask="url(#path-1-outside-1_30_18733)"/>
<path d="M26.0243 12.5247H25.0541V11.0201C25.0541 10.5999 24.7134 10.2592 24.2931 10.2592C23.8729 10.2592 23.5322 10.5999 23.5322 11.0201V13.2856C23.5322 13.7058 23.8729 14.0465 24.2931 14.0465H26.0243C26.4446 14.0465 26.7852 13.7058 26.7852 13.2856C26.7852 12.8654 26.4446 12.5247 26.0243 12.5247Z" fill="white"/>
<path d="M26.0243 12.5247H25.0541V11.0201C25.0541 10.5999 24.7134 10.2592 24.2931 10.2592C23.8729 10.2592 23.5322 10.5999 23.5322 11.0201V13.2856C23.5322 13.7058 23.8729 14.0465 24.2931 14.0465H26.0243C26.4446 14.0465 26.7852 13.7058 26.7852 13.2856C26.7852 12.8654 26.4446 12.5247 26.0243 12.5247Z" stroke="white"/>
</g>
<defs>
<clipPath id="clip0_30_18733">
<rect width="30" height="30" fill="white"/>
</clipPath>
</defs>
</svg>
