<svg width="44" height="44" viewBox="0 0 44 44" fill="none" xmlns="http://www.w3.org/2000/svg">
<path d="M30.1046 9.99018L30.1048 9.99036C30.2713 10.1615 30.3826 10.3168 30.3826 10.4888C30.3826 10.6612 30.2708 10.814 30.1044 10.9803C29.8366 11.2576 29.5679 11.5334 29.2995 11.8091C28.7629 12.3601 28.227 12.9105 27.6993 13.47C27.6102 13.5665 27.5009 13.6421 27.3792 13.6915C27.2582 13.7406 27.1278 13.7626 26.9974 13.7558H26.9899H26.9798H26.9698H26.9597H26.9496H26.9395H26.9294H26.9193H26.9092H26.8991H26.889H26.879H26.8689H26.8588H26.8487H26.8386H26.8285H26.8184H26.8083H26.7982H26.7881H26.7781H26.768H26.7579H26.7478H26.7377H26.7276H26.7175H26.7074H26.6973H26.6872H26.6772H26.6671H26.657H26.6469H26.6368H26.6267H26.6166H26.6065H26.5964H26.5863H26.5763H26.5662H26.5561H26.546H26.5359H26.5258H26.5157H26.5056H26.4955H26.4854H26.4754H26.4653H26.4552H26.4451H26.435H26.4249H26.4148H26.4047H26.3946H26.3845H26.3745H26.3644H26.3543H26.3442H26.3341H26.324H26.3139H26.3038H26.2937H26.2836H26.2736H26.2635H26.2534H26.2433H26.2332H26.2231H26.213H26.2029H26.1928H26.1828H26.1727H26.1626H26.1525H26.1424H26.1323H26.1222H26.1121H26.102H26.0919H26.0819H26.0718H26.0617H26.0516H26.0415H26.0314H26.0213H26.0112H26.0011H25.991H25.981H25.9709H25.9608H25.9507H25.9406H25.9305H25.9204H25.9103H25.9002H25.8901H25.8801H25.87H25.8599H25.8498H25.8397H25.8296H25.8195H25.8094H25.7993H25.7892H25.7792H25.7691H25.759H25.7489H25.7388H25.7287H25.7186H25.7085H25.6984H25.6883H25.6783H25.6682H25.6581H25.648H25.6379H25.6278H25.6177H25.6076H25.5975H25.5875H25.5774H25.5673H25.5572H25.5471H25.537H25.5269H25.5168H25.5067H25.4966H25.4866H25.4765H25.4664H25.4563H25.4462H25.4361H25.426H25.4159H25.4058H25.3957H25.3857H25.3756H25.3655H25.3554H25.3453H25.3352H25.3251H25.315H25.3049H25.2948H25.2848H25.2747H25.2646H25.2545H25.2444H25.2343H25.2242H25.2141H25.204H25.1939H25.1839H25.1738H25.1637H25.1536H25.1435H25.1334H25.1233H25.1132H25.1031H25.093H25.083H25.0729H25.0628H25.0527H25.0426H25.0325H25.0224H25.0123H25.0022H24.9921H24.9821H24.972H24.9619H24.9518H24.9417H24.9316H24.9215H24.9114H24.9013H24.8913H24.8812H24.8711H24.861H24.8509H24.8408H24.8307H24.8206H24.8105H24.8004H24.7904H24.7803H24.7702H24.7601H24.75H24.7399H24.7298H24.7197H24.7096H24.6995H24.6895H24.6794H24.6693H24.6592H24.6491H24.639H24.6289H24.6188H24.6087H24.5986H24.5886H24.5785H24.5684H24.5583H24.5482H24.5381H24.528H24.5179H24.5078H24.4977H24.4877H24.4776H24.4675H24.4574H24.4473H24.4372H24.4271H24.417H24.4069H24.3968H24.3868H24.3767H24.3666H24.3565H24.3464H24.3363H24.3262H24.3161H24.306H24.2959H24.2859H24.2758H24.2657H24.2556H24.2455H24.2354H24.2253H24.2152H24.2051H24.1951H24.185H24.1749H24.1648H24.1547H24.1446H24.1345H24.1244H24.1143H24.1042H24.0942H24.0841H24.074H24.0639H24.0538H24.0437H24.0336H24.0235H24.0134H24.0033H23.9933H23.9832H23.9731H23.963H23.9529H23.9428H23.9327H23.9226H23.9125H23.9024H23.8924H23.8823H23.8722H23.8621H23.852H23.8419H23.8318H23.8217H23.8116H23.8015H23.7915H23.7814H23.7713H23.7612H23.7511H23.741H23.7309H23.7208H23.7107H23.7006H23.6906H23.6805H23.6704H23.6603H23.6502H23.6401H23.63H23.6199H23.6098H23.5998H23.5897H23.5796H23.5695H23.5594H23.5493H23.5392H23.5291H23.519H23.5089H23.4989H23.4888H23.4787H23.4686H23.4585H23.4484H23.4383H23.4282H23.4181H23.408H23.398H23.3879H23.3778H23.3677H23.3576H23.3475H23.3374H23.3273H23.3172H23.3071H23.2971H23.287H23.2769H23.2668H23.2567H23.2466H23.2365H23.2264H23.2163H23.2062H23.1962H23.1861H23.176H23.1659H23.1558H23.1457H23.1356H23.1255H23.1154H23.1053H23.0953H23.0852H23.0751H23.065H23.0549H23.0448H23.0347H23.0246H23.0145H23.0044H22.9944H22.9843H22.9742H22.9641H22.954H22.9439H22.9338H22.9237H22.9136H22.9036H22.8935H22.8834H22.8733H22.8632H22.8531H22.843H22.8329H22.8228H22.8127H22.8027H22.7926H22.7825H22.7724H22.7623H22.7522H22.7421H22.732H22.7219H22.7118H22.7018H22.6917H22.6816H22.6715H22.6614H22.6513H22.6412H22.6311H22.621H22.6109H22.6009H22.5908H22.5807H22.5706H22.5605H22.5504H22.5403H22.5302H22.5201H22.51H22.5H22.4899H22.4798H22.4697H22.4596H22.4495H22.4394H22.4293H22.4192H22.4091H22.3991H22.389H22.3789H22.3688H22.3587H22.3486H22.3385H22.3284H22.3183H22.3083H22.2982H22.2881H22.278H22.2679H22.2578H22.2477H22.2376H22.2275H22.2174H22.2074H22.1973H22.1872H22.1771H22.167H22.1569H22.1468H22.1367H22.1266H22.1165H22.1065H22.0964H22.0863H22.0762H22.0661H22.056H22.0459H22.0358H22.0257H22.0156H22.0056H21.9955H21.9854H21.9753H21.9652H21.9551H21.945H21.9349H21.9248H21.9147H21.9047H21.8946H21.8845H21.8744H21.8643H21.8542H21.8441H21.834H21.5525V15.6008C21.5622 15.65 21.5824 15.6965 21.6118 15.7372L21.6162 15.7433L21.6196 15.7499L26.8835 25.971L26.936 25.834L30.1046 9.99018ZM30.1046 9.99018C29.3026 9.16976 28.5014 8.35007 27.71 7.511C27.6302 7.41987 27.531 7.34771 27.4196 7.29978L27.3801 7.3916L27.4196 7.29978C27.3083 7.25186 27.1877 7.22938 27.0666 7.23396H21.1981C21.0639 7.23396 20.949 7.24065 20.8533 7.26122C20.7565 7.28201 20.6728 7.31829 20.6073 7.38198C20.4783 7.50754 20.4523 7.70866 20.4523 7.96908V7.98356V7.99804V8.01253V8.02701V8.0415V8.05598V8.07047V8.08495V8.09944V8.11392V8.12841V8.14289V8.15738V8.17186V8.18635V8.20083V8.21532V8.2298V8.24429V8.25877V8.27326V8.28774V8.30223V8.31671V8.3312V8.34568V8.36017V8.37465V8.38914V8.40362V8.41811V8.43259V8.44708V8.46156V8.47604V8.49053V8.50501V8.5195V8.53398V8.54847V8.56295V8.57744V8.59192V8.60641V8.62089V8.63538V8.64986V8.66435V8.67883V8.69332V8.7078V8.72229V8.73677V8.75126V8.76574V8.78023V8.79471V8.8092V8.82368V8.83817V8.85265V8.86714V8.88162V8.89611V8.91059V8.92507V8.93956V8.95404V8.96853V8.98301V8.9975V9.01198V9.02647V9.04095V9.05544V9.06992V9.08441V9.09889V9.11338V9.12786V9.14235V9.15683V9.17132V9.1858V9.20029V9.21477V9.22926V9.24374V9.25823V9.27271V9.2872V9.30168V9.31617V9.33065V9.34514V9.35962V9.37411V9.38859V9.40307V9.41756V9.43204V9.44653V9.46101V9.4755V9.48998V9.50447V9.51895V9.53344V9.54792V9.56241V9.57689V9.59138V9.60586V9.62035V9.63483V9.64932V9.6638V9.67829V9.69277V9.70726V9.72174V9.73623V9.75071V9.7652V9.77968V9.79417V9.80865V9.82314V9.83762V9.85211V9.86659V9.88107V9.89556V9.91004V9.92453V9.93901V9.9535V9.96798V9.98247V9.99695V10.0114V10.0259V10.0404V10.0549V10.0694V10.0839V10.0983V10.1128V10.1273V10.1418V10.1563V10.1708V10.1853V10.1997V10.2142V10.2287V10.2432V10.2577V10.2722V10.2867V10.3011V10.3156V10.3301V10.3446V10.3591V10.3736V10.388V10.4025V10.417V10.4315V10.446V10.4605V10.475V10.4894V10.5039V10.5184V10.5329V10.5474V10.5619V10.5763V10.5908V10.6053V10.6198V10.6343V10.6488V10.6633V10.6777V10.6922V10.7067V10.7212V10.7357V10.7502V10.7647V10.7791V10.7936V10.8081V10.8226V10.8371V10.8516V10.866V10.8805V10.895V10.9095V10.924V10.9385V10.953V10.9674V10.9819V10.9964V11.0109V11.0254V11.0399V11.0543V11.0688V11.0833V11.0978V11.1123V11.1268V11.1413V11.1557V11.1702V11.1847V11.1992V11.2137V11.2282V11.2427V11.2571V11.2716V11.2861V11.3006V11.3151V11.3296V11.344V11.3585V11.373V11.3875V11.402V11.4165V11.431V11.4454V11.4599V11.4744V11.4889V11.5034V11.5179V11.5323V11.5468V11.5613V11.5758V11.5903V11.6048V11.6193V11.6337V11.6482V11.6627V11.6772V11.6917V11.7062V11.7207V11.7351V11.7496V11.7641V11.7786V11.7931V11.8076V11.822V11.8365V11.851V11.8655V11.88V11.8945V11.909V11.9234V11.9379V11.9524V11.9669V11.9814V11.9959V12.0103V12.0248V12.0393V12.0538V12.0683V12.0828V12.0973V12.1117V12.1262V12.1407V12.1552V12.1697V12.1842V12.1987V12.2131V12.2276V12.2421V12.2566V12.2711V12.2856V12.3V12.3145V12.329V12.3435V12.358V12.3725V12.387V12.4014V12.4159V12.4304V12.4449V12.4594V12.4739V12.4883V12.5028V12.5173V12.5318V12.5463V12.5608V12.5753V12.5897V12.6042V12.6187V12.6332V12.6477V12.6622V12.6767V12.6911V12.7056V12.7201V12.7346V12.7491V12.7636V12.778V12.7925V12.807V12.8215V12.836V12.8505V12.865V12.8794V12.8939V12.9084V12.9229V12.9374V12.9519V12.9663V12.9808V12.9953V13.0098V13.0243V13.0388V13.0533V13.0677V13.0822V13.0967V13.1112V13.1257V13.1402V13.1547V13.1691V13.1836V13.1981V13.2126V13.2271V13.2416V13.256V13.2705V13.285V13.2995V13.314V13.3285V13.343V13.3574V13.3719V13.3864V13.4009V13.4154V13.4299V13.4443V13.4588V13.4733V13.4878V13.5023V13.5168V13.5313V13.5457V13.5602V13.5747V13.5892V13.6037V13.6182V13.6327V13.6471V13.6616V13.6761V13.6906V13.7051V13.7196V13.734V13.7485V13.763V13.7775V13.792V13.8065V13.821V13.8354V13.8499V13.8644V13.8789V13.8934V13.9079V13.9223V13.9368V13.9513V13.9658V13.9803V13.9948V14.0093V14.0237V14.0382V14.0527V14.0672V14.0817V14.0962V14.1107V14.1251V14.1396V14.1541V14.1686V14.1831V14.1976V14.212V14.2265V14.241V14.2555V14.27V14.2845V14.299V14.3134V14.3279V14.3424V14.3569V14.3714V14.3859V14.4003V14.4148V14.4293V14.4438V14.4583V14.4728V14.4873V14.5017V14.5162V14.5307V14.5452V14.5597V14.5742V14.5887V14.6031V14.6176V14.6321V14.6466V14.6611V14.6756V14.69V14.7045V14.719V14.7335V14.748V14.7625V14.777V14.7914V14.8059V14.8204V14.8349V14.8494V14.8639V14.8783V14.8928V14.9073V14.9218V14.9363V14.9508V14.9653V14.9797V14.9942V15.0087V15.0232V15.0377V15.0522V15.0667V15.0811V15.0956V15.1101V15.1246V15.1391V15.1536V15.168V15.1825V15.197V15.2115V15.226V15.2405V15.255V15.2694V15.2839V15.2984V15.3129V15.3274V15.3419V15.3563V15.3708V15.3841C20.4485 15.5417 20.412 15.6968 20.3451 15.8396C19.9252 16.6589 19.5036 17.4785 19.0816 18.2988C18.4424 19.5414 17.8023 20.7856 17.166 22.0331L15.1756 25.9149M30.1046 9.99018L15.1756 25.9149M15.1756 25.9149C15.1232 25.8232 15.0886 25.7582 15.0579 25.6846L15.0573 25.6833C14.6759 24.8041 14.2944 23.9153 13.9228 23.0362L13.9228 23.0362L13.9217 23.0337C13.9179 23.0254 13.9141 23.0171 13.9103 23.0086C13.8669 22.9128 13.8184 22.8053 13.7452 22.7229C13.6586 22.6254 13.5407 22.5648 13.3708 22.5648C13.2017 22.5648 13.0798 22.6247 12.9896 22.721C12.9048 22.8115 12.8525 22.9301 12.8089 23.0366C11.6546 25.746 10.4937 28.4554 9.32633 31.1648C8.63474 32.7416 7.96273 34.3151 7.31028 35.8855C7.21045 36.1217 7.20294 36.3462 7.31555 36.5156C7.4282 36.6852 7.63914 36.7667 7.90149 36.7667H36.0405C36.3206 36.7667 36.5527 36.7083 36.677 36.5422C36.8035 36.3733 36.7876 36.1359 36.6819 35.8594C36.6819 35.8593 36.6819 35.8592 36.6818 35.8591L30.5181 19.4442C30.4744 19.3281 30.4247 19.2076 30.341 19.118C30.2513 19.0221 30.1307 18.969 29.9646 18.969C29.8008 18.969 29.6733 19.0179 29.5733 19.1085C29.477 19.1959 29.4138 19.3154 29.363 19.4422L29.3623 19.4441C28.5535 21.5871 27.7447 23.717 26.936 25.8339L15.1756 25.9149ZM27.1329 12.4927L27.1335 12.4921L28.8938 10.6658L29.1487 10.388C28.9815 10.232 28.8164 10.0773 28.6526 9.92378C28.1331 9.43672 27.6274 8.96266 27.1108 8.50405C26.9983 8.41004 26.859 8.3536 26.7127 8.34267L27.1329 12.4927ZM27.1329 12.4927C27.0605 12.5692 26.963 12.617 26.8583 12.6276H26.8527H26.8424H26.8321H26.8218H26.8115H26.8011H26.7908H26.7805H26.7702H26.7599H26.7495H26.7392H26.7289H26.7186H26.7083H26.6979H26.6876H26.6773H26.667H26.6567H26.6463H26.636H26.6257H26.6154H26.6051H26.5948H26.5844H26.5741H26.5638H26.5535H26.5432H26.5328H26.5225H26.5122H26.5019H26.4916H26.4812H26.4709H26.4606H26.4503H26.44H26.4296H26.4193H26.409H26.3987H26.3884H26.378H26.3677H26.3574H26.3471H26.3368H26.3265H26.3161H26.3058H26.2955H26.2852H26.2749H26.2645H26.2542H26.2439H26.2336H26.2233H26.2129H26.2026H26.1923H26.182H26.1717H26.1613H26.151H26.1407H26.1304H26.1201H26.1098H26.0994H26.0891H26.0788H26.0685H26.0582H26.0478H26.0375H26.0272H26.0169H26.0066H25.9962H25.9859H25.9756H25.9653H25.955H25.9446H25.9343H25.924H25.9137H25.9034H25.893H25.8827H25.8724H25.8621H25.8518H25.8415H25.8311H25.8208H25.8105H25.8002H25.7899H25.7795H25.7692H25.7589H25.7486H25.7383H25.7279H25.7176H25.7073H25.697H25.6867H25.6763H25.666H25.6557H25.6454H25.6351H25.6248H25.6144H25.6041H25.5938H25.5835H25.5732H25.5628H25.5525H25.5422H25.5319H25.5216H25.5112H25.5009H25.4906H25.4803H25.47H25.4596H25.4493H25.439H25.4287H25.4184H25.408H25.3977H25.3874H25.3771H25.3668H25.3565H25.3461H25.3358H25.3255H25.3152H25.3049H25.2945H25.2842H25.2739H25.2636H25.2533H25.2429H25.2326H25.2223H25.212H25.2017H25.1913H25.181H25.1707H25.1604H25.1501H25.1397H25.1294H25.1191H25.1088H25.0985H25.0882H25.0778H25.0675H25.0572H25.0469H25.0366H25.0262H25.0159H25.0056H24.9953H24.985H24.9746H24.9643H24.954H24.9437H24.9334H24.923H24.9127H24.9024H24.8921H24.8818H24.8715H24.8611H24.8508H24.8405H24.8302H24.8199H24.8095H24.7992H24.7889H24.7786H24.7683H24.7579H24.7476H24.7373H24.727H24.7167H24.7063H24.696H24.6857H24.6754H24.6651H24.6548H24.6444H24.6341H24.6238H24.6135H24.6032H24.5928H24.5825H24.5722H24.5619H24.5516H24.5412H24.5309H24.5206H24.5103H24.5H24.4896H24.4793H24.469H24.4587H24.4484H24.438H24.4277H24.4174H24.4071H24.3968H24.3865H24.3761H24.3658H24.3555H24.3452H24.3349H24.3245H24.3142H24.3039H24.2936H24.2833H24.2729H24.2626H24.2523H24.242H24.2317H24.2213H24.211H24.2007H24.1904H24.1801H24.1698H24.1594H24.1491H24.1388H24.1285H24.1182H24.1078H24.0975H24.0872H24.0769H24.0666H24.0562H24.0459H24.0356H24.0253H24.015H24.0046H23.9943H23.984H23.9737H23.9634H23.953H23.9427H23.9324H23.9221H23.9118H23.9015H23.8911H23.8808H23.8705H23.8602H23.8499H23.8395H23.8292H23.8189H23.8086H23.7983H23.7879H23.7776H23.7673H23.757H23.7467H23.7363H23.726H23.7157H23.7054H23.6951H23.6847H23.6744H23.6641H23.6538H23.6435H23.6332H23.6228H23.6125H23.6022H23.5919H23.5816H23.5712H23.5609H23.5506H23.5403H23.53H23.5196H23.5093H23.499H23.4887H23.4784H23.468H23.4577H23.4474H23.4371H23.4268H23.4165H23.4061H23.3958H23.3855H23.3752H23.3649H23.3545H23.3442H23.3339H23.3236H23.3133H23.3029H23.2926H23.2823H23.272H23.2617H23.2513H23.241H23.2307H23.2204H23.2101H23.1997H23.1894H23.1791H23.1688H23.1585H23.1482H23.1378H23.1275H23.1172H23.1069H23.0966H23.0862H23.0759H23.0656H23.0553H23.045H23.0346H23.0243H23.014H23.0037H22.9934H22.983H22.9727H22.9624H22.9521H22.9418H22.9315H22.9211H22.9108H22.9005H22.8902H22.8799H22.8695H22.8592H22.8489H22.8386H22.8283H22.8179H22.8076H22.7973H22.787H22.7767H22.7663H22.756H22.7457H22.7354H22.7251H22.7148H22.7044H22.6941H22.6838H22.6735H22.6632H22.6528H22.6425H22.6322H22.6219H22.6116H22.6012H22.5909H22.5806H22.5703H22.56H22.5496H22.5393H22.529H22.5187H22.5084H22.498H22.4877H22.4774H22.4671H22.4568H22.4465H22.4361H22.4258H22.4155H22.4052H22.3949H22.3845H22.3742H22.3639H22.3536H22.3433H22.3329H22.3226H22.3123H22.302H22.2917H22.2813H22.271H22.2607H22.2504H22.2401H22.2298H22.2194H22.2091H22.1988H22.1885H22.1782H22.1678H22.1575H22.1472H22.1369H22.1266H22.1162H22.1059H22.0956H22.0853H22.075H22.0646H22.0543H22.044H22.0337H22.0234H22.013H22.0027H21.9924H21.9821H21.9718H21.9615H21.9511H21.9408H21.9305H21.9202H21.9099H21.8995H21.8892H21.8789H21.8686H21.8583H21.8479H21.8376H21.8273H21.817H21.8067H21.7963H21.786H21.7757H21.7654H21.7551H21.7448H21.7344H21.7241H21.7138H21.7035H21.6932H21.6828H21.6725H21.6622H21.6519H21.6416H21.6312H21.6209H21.6106H21.6003H21.59H21.5796H21.5427V8.32777L27.1329 12.4927ZM21.046 16.9326L30.6717 35.6873H19.5348V35.6863L19.5209 35.6883C19.4494 35.6983 19.3767 35.6823 19.316 35.6432C19.2554 35.6042 19.2108 35.5447 19.1904 35.4756L19.1909 35.4755L19.1869 35.4658L15.8603 27.4047L15.8598 27.4035C15.8361 27.348 15.8238 27.2882 15.8238 27.2279C15.8238 27.1685 15.8357 27.1098 15.8586 27.0551C17.5731 23.6828 19.2974 20.317 21.0314 16.9576L21.046 16.9326ZM27.6294 27.1905L27.6296 27.1906L27.6318 27.1847C28.3944 25.1444 29.1661 23.1041 29.9643 20.994L35.4755 35.6584L31.9697 35.6677C31.9381 35.6613 31.9083 35.6483 31.882 35.6297C31.854 35.6099 31.8307 35.5842 31.8138 35.5543C30.4122 32.8394 29.0171 30.1245 27.6285 27.4095C27.6135 27.3753 27.6058 27.3384 27.6058 27.3011C27.6058 27.263 27.6139 27.2253 27.6294 27.1905ZM8.65937 35.658L13.4001 24.5225L18.1409 35.658H8.65937Z" fill="white" stroke="white" stroke-width="0.2"/>
<path d="M26.9466 33.6653L26.979 33.6222L26.9608 33.5714C26.9043 33.4141 26.8407 33.26 26.77 33.11L26.77 33.11L26.7693 33.1086L21.9996 23.387C21.9625 23.2952 21.9156 23.2086 21.8597 23.1291C21.7825 23.0137 21.6666 22.9329 21.5337 22.908C21.4016 22.8832 21.2673 22.9166 21.1587 22.9982C21.0459 23.0705 20.9637 23.1855 20.9249 23.3186C20.8857 23.4531 20.8929 23.5991 20.9454 23.7285L20.9454 23.7285L20.9467 23.7314C20.9568 23.7541 20.9693 23.7749 20.98 23.7918C20.9849 23.7996 20.9892 23.8061 20.9931 23.8121C20.999 23.8212 21.0041 23.8291 21.0098 23.8386C21.0279 23.8686 21.0316 23.8828 21.0316 23.8908V23.9139L21.0418 23.9346C22.6258 27.1828 24.2191 30.4205 25.8218 33.6477C25.831 33.6686 25.8404 33.693 25.8512 33.7212L25.8546 33.7299C25.8666 33.7612 25.8803 33.7964 25.8954 33.8289C25.91 33.8604 25.9288 33.8957 25.9533 33.9245C25.972 33.9466 26.0027 33.9746 26.0456 33.9851C26.1995 34.0776 26.3761 34.1161 26.5518 34.0938L26.5646 34.0922L26.5765 34.0874C26.6712 34.0494 26.7417 33.964 26.7948 33.8896C26.8199 33.8545 26.8441 33.8173 26.8668 33.7825C26.8693 33.7786 26.8718 33.7748 26.8743 33.771C26.8997 33.732 26.9231 33.6965 26.9466 33.6653Z" fill="white" stroke="white" stroke-width="0.2"/>
<path d="M24.3315 10.9011C24.5916 10.6705 24.8463 10.4413 25.0987 10.2142C25.4938 9.85865 25.8833 9.50816 26.2795 9.16489C26.3736 9.0648 26.499 9.00601 26.6313 9C26.7072 9.00579 26.7799 9.03493 26.8408 9.08395C26.9018 9.13296 26.9483 9.19978 26.9749 9.27644C27.0016 9.35311 27.0071 9.43638 26.9909 9.51635C26.9748 9.59631 26.9376 9.66959 26.8838 9.72746C26.7142 9.91447 26.5334 10.0894 26.3427 10.2512C26.1221 10.454 25.903 10.6582 25.6842 10.8622C25.3482 11.1754 25.0128 11.488 24.6742 11.7935C24.3495 12.0941 24.1421 12.065 23.8715 11.7159L23.141 10.7459C23.0966 10.7032 23.0611 10.6508 23.0368 10.5923C23.0126 10.5338 23 10.4705 23 10.4064C23 10.3424 23.0126 10.279 23.0368 10.2205C23.0611 10.162 23.0966 10.1097 23.141 10.0669C23.3123 9.90205 23.5649 9.95055 23.7633 10.193L24.3315 10.9011Z" fill="white"/>
<path d="M24.3315 10.9011C24.5916 10.6705 24.8463 10.4413 25.0987 10.2142C25.4938 9.85865 25.8833 9.50816 26.2795 9.16489C26.3736 9.0648 26.499 9.00601 26.6313 9C26.7072 9.00579 26.7799 9.03493 26.8408 9.08395C26.9018 9.13296 26.9483 9.19978 26.9749 9.27644C27.0016 9.35311 27.0071 9.43638 26.9909 9.51635C26.9748 9.59631 26.9376 9.66959 26.8838 9.72746C26.7142 9.91447 26.5334 10.0894 26.3427 10.2512C26.1221 10.454 25.903 10.6582 25.6842 10.8622C25.3482 11.1754 25.0128 11.488 24.6742 11.7935C24.3495 12.0941 24.1421 12.065 23.8715 11.7159L23.141 10.7459C23.0966 10.7032 23.0611 10.6508 23.0368 10.5923C23.0126 10.5338 23 10.4705 23 10.4064C23 10.3424 23.0126 10.279 23.0368 10.2205C23.0611 10.162 23.0966 10.1097 23.141 10.0669C23.3123 9.90205 23.5649 9.95055 23.7633 10.193L24.3315 10.9011Z" stroke="white"/>
</svg>
