<svg width="17" height="22" viewBox="0 0 17 22" fill="none" xmlns="http://www.w3.org/2000/svg">
<path d="M7.62639 21.5602C1.19378 12.5053 0 11.5767 0 8.25008C0 3.69328 3.80517 0 8.5 0C13.1948 0 17 3.69328 17 8.25008C17 11.5767 15.8062 12.5034 9.37361 21.5565C9.27592 21.6931 9.1457 21.8047 8.99401 21.8819C8.84233 21.9591 8.67368 21.9996 8.5024 22C8.33113 22.0004 8.16229 21.9606 8.01027 21.884C7.85824 21.8074 7.72752 21.6963 7.62922 21.5602L7.62733 21.5565L7.62639 21.5602ZM8.5 11.6876C9.43931 11.6876 10.3401 11.3254 11.0043 10.6808C11.6685 10.0361 12.0417 9.16177 12.0417 8.25008C12.0417 7.33839 11.6685 6.46404 11.0043 5.81937C10.3401 5.17471 9.43931 4.81254 8.5 4.81254C7.56069 4.81254 6.65985 5.17471 5.99566 5.81937C5.33147 6.46404 4.95833 7.33839 4.95833 8.25008C4.95833 9.16177 5.33147 10.0361 5.99566 10.6808C6.65985 11.3254 7.56069 11.6876 8.5 11.6876Z" fill="url(#paint0_linear_30_10731)"/>
<defs>
<linearGradient id="paint0_linear_30_10731" x1="0" y1="11" x2="17" y2="11" gradientUnits="userSpaceOnUse">
<stop stop-color="#6A11CB"/>
<stop offset="1" stop-color="#2575FC"/>
</linearGradient>
</defs>
</svg>
