<svg width="24" height="25" viewBox="0 0 24 25" fill="none" xmlns="http://www.w3.org/2000/svg">
<g clip-path="url(#clip0_30_17154)">
<path d="M23.9999 17.0831C23.9999 14.1048 22.2913 11.4469 19.7324 10.154C19.653 15.8643 15.0233 20.4939 9.31299 20.5734C10.6059 23.1323 13.2639 24.8409 16.2421 24.8409C17.6384 24.8409 18.9963 24.469 20.1895 23.7624L23.966 24.807L22.9214 21.0304C23.628 19.8373 23.9999 18.4794 23.9999 17.0831Z" fill="url(#paint0_linear_30_17154)"/>
<path d="M18.3281 10.0049C18.3281 4.95172 14.2172 0.84082 9.16406 0.84082C4.1109 0.84082 0 4.95172 0 10.0049C0 11.6517 0.438354 13.2552 1.27075 14.6629L0.0336914 19.1351L4.50604 17.8982C5.91376 18.7306 7.51721 19.1689 9.16406 19.1689C14.2172 19.1689 18.3281 15.058 18.3281 10.0049ZM7.75781 7.87207H6.35156C6.35156 6.32117 7.61316 5.05957 9.16406 5.05957C10.715 5.05957 11.9766 6.32117 11.9766 7.87207C11.9766 8.65924 11.6433 9.41583 11.062 9.94757L9.86719 11.0411V12.1377H8.46094V10.4218L10.1125 8.9101C10.4077 8.64001 10.5703 8.27142 10.5703 7.87207C10.5703 7.09662 9.93951 6.46582 9.16406 6.46582C8.38861 6.46582 7.75781 7.09662 7.75781 7.87207ZM8.46094 13.5439H9.86719V14.9502H8.46094V13.5439Z" fill="url(#paint1_linear_30_17154)"/>
</g>
<defs>
<linearGradient id="paint0_linear_30_17154" x1="9.31299" y1="17.4974" x2="23.9999" y2="17.4974" gradientUnits="userSpaceOnUse">
<stop stop-color="#6A11CB"/>
<stop offset="1" stop-color="#2575FC"/>
</linearGradient>
<linearGradient id="paint1_linear_30_17154" x1="0" y1="10.0049" x2="18.3281" y2="10.0049" gradientUnits="userSpaceOnUse">
<stop stop-color="#6A11CB"/>
<stop offset="1" stop-color="#2575FC"/>
</linearGradient>
<clipPath id="clip0_30_17154">
<rect width="24" height="24" fill="white" transform="translate(0 0.84082)"/>
</clipPath>
</defs>
</svg>
