<svg width="80" height="80" viewBox="0 0 80 80" fill="none" xmlns="http://www.w3.org/2000/svg">
<path d="M40 75C30.7174 75 21.815 71.3125 15.2513 64.7487C8.68749 58.185 5 49.2826 5 40C5 30.7174 8.68749 21.815 15.2513 15.2513C21.815 8.68749 30.7174 5 40 5C49.2826 5 58.185 8.68749 64.7487 15.2513C71.3125 21.815 75 30.7174 75 40C75 49.2826 71.3125 58.185 64.7487 64.7487C58.185 71.3125 49.2826 75 40 75ZM40 80C50.6087 80 60.7828 75.7857 68.2843 68.2843C75.7857 60.7828 80 50.6087 80 40C80 29.3913 75.7857 19.2172 68.2843 11.7157C60.7828 4.21427 50.6087 0 40 0C29.3913 0 19.2172 4.21427 11.7157 11.7157C4.21427 19.2172 0 29.3913 0 40C0 50.6087 4.21427 60.7828 11.7157 68.2843C19.2172 75.7857 29.3913 80 40 80Z" fill="white"/>
<path d="M30.355 25.2774C30.7639 25.0668 31.223 24.9731 31.6817 25.0066C32.1404 25.0402 32.581 25.1996 32.955 25.4674L50.455 37.9673C50.779 38.1985 51.0432 38.5039 51.2254 38.8578C51.4077 39.2118 51.5028 39.6041 51.5028 40.0023C51.5028 40.4004 51.4077 40.7928 51.2254 41.1467C51.0432 41.5007 50.779 41.806 50.455 42.0373L32.955 54.5372C32.5812 54.8047 32.1408 54.964 31.6823 54.9975C31.2238 55.0311 30.765 54.9375 30.3562 54.7272C29.9474 54.5169 29.6045 54.1979 29.3653 53.8054C29.126 53.4128 28.9996 52.9619 29 52.5022V27.5024C28.9995 27.0428 29.1257 26.5919 29.3648 26.1994C29.6038 25.8069 29.9464 25.4879 30.355 25.2774Z" fill="white"/>
</svg>
