<svg width="78" height="79" viewBox="0 0 78 79" fill="none" xmlns="http://www.w3.org/2000/svg">
<path d="M50.0131 35.5534C49.1842 32.5713 46.5354 30.4869 43.571 30.4869C41.9132 30.4869 40.3155 31.0358 39.02 31.998C37.7245 31.0358 36.1268 30.4869 34.4691 30.4869C31.507 30.4869 28.8626 32.5602 28.0359 35.5312C27.3782 37.8979 27.0159 44.111 37.8445 50.6397L39.02 51.3486L40.1933 50.6397C51.0285 44.1132 50.6708 37.9156 50.0131 35.5534Z" fill="url(#paint0_linear_30_10784)"/>
<path d="M41.2956 19.3395V0.869198C40.5385 0.82475 39.7882 0.753906 39.0201 0.753906C38.2521 0.753906 37.5018 0.82475 36.7446 0.869198V19.3395C37.5016 19.2542 38.241 19.1095 39.0201 19.1095C39.7992 19.1095 40.5386 19.2542 41.2956 19.3395Z" fill="black"/>
<path d="M59.2695 37.3134C59.3548 38.0703 59.4995 38.8097 59.4995 39.5888C59.4995 40.368 59.3548 41.1074 59.2695 41.8643H77.7398C77.7843 41.1072 77.8551 40.3569 77.8551 39.5888C77.8551 38.8208 77.7843 38.0705 77.7398 37.3134H59.2695Z" fill="black"/>
<path d="M45.8467 1.39429V20.3676C51.6296 22.4298 56.1794 26.9795 58.2416 32.7625H77.2149C74.3744 16.9023 61.7068 4.2347 45.8467 1.39429Z" fill="black"/>
<path d="M32.1934 20.3676V1.39429C16.3332 4.2347 3.66561 16.9023 0.825195 32.7625H19.7985C21.8607 26.9795 26.4105 22.4298 32.1934 20.3676Z" fill="black"/>
<path d="M18.7706 41.8643C18.6854 41.1074 18.5406 40.368 18.5406 39.5888C18.5406 38.8097 18.6854 38.0703 18.7706 37.3134H0.30035C0.255902 38.0705 0.185059 38.8208 0.185059 39.5888C0.185059 40.3569 0.255902 41.1072 0.30035 41.8643H18.7706Z" fill="black"/>
<path d="M58.2416 46.4153C56.1794 52.1982 51.6296 56.748 45.8467 58.8102V77.7835C61.7068 74.943 74.3744 62.2754 77.2149 46.4153H58.2416Z" fill="black"/>
<path d="M41.2956 59.8381C40.5386 59.9234 39.7992 60.0681 39.0201 60.0681C38.241 60.0681 37.5016 59.9234 36.7446 59.8381V78.3084C37.5018 78.3529 38.2521 78.4237 39.0201 78.4237C39.7882 78.4237 40.5385 78.3529 41.2956 78.3084V59.8381Z" fill="black"/>
<path d="M32.1934 77.7835V58.8102C26.4105 56.748 21.8607 52.1982 19.7985 46.4153H0.825195C3.66561 62.2754 16.3332 74.943 32.1934 77.7835Z" fill="black"/>
<defs>
<linearGradient id="paint0_linear_30_10784" x1="27.7607" y1="40.9178" x2="50.2876" y2="40.9178" gradientUnits="userSpaceOnUse">
<stop stop-color="#6A11CB"/>
<stop offset="1" stop-color="#2575FC"/>
</linearGradient>
</defs>
</svg>
