<svg width="30" height="30" viewBox="0 0 30 30" fill="none" xmlns="http://www.w3.org/2000/svg">
<path d="M21.25 12.5H23.75V11.1875C24.5095 11.0333 25.1845 10.6024 25.6442 9.97842C26.1038 9.35447 26.3152 8.58199 26.2373 7.81094C26.1594 7.03989 25.7978 6.32529 25.2227 5.80586C24.6476 5.28643 23.9 4.99922 23.125 5H21.875C21.7092 5 21.5502 4.93415 21.433 4.81694C21.3158 4.69973 21.25 4.54076 21.25 4.375C21.25 4.20924 21.3158 4.05027 21.433 3.93306C21.5502 3.81585 21.7092 3.75 21.875 3.75H26.25V1.25H23.75V0H21.25V1.3125C20.4905 1.46672 19.8154 1.89763 19.3558 2.52158C18.8962 3.14553 18.6848 3.91801 18.7627 4.68906C18.8405 5.46011 19.2021 6.17471 19.7773 6.69414C20.3524 7.21357 21.1 7.50078 21.875 7.5H23.125C23.2907 7.5 23.4497 7.56585 23.5669 7.68306C23.6841 7.80027 23.75 7.95924 23.75 8.125C23.75 8.29076 23.6841 8.44973 23.5669 8.56694C23.4497 8.68415 23.2907 8.75 23.125 8.75H18.75V11.25H21.25V12.5Z" fill="white"/>
<path d="M28.75 13.75H16.25V1.25C16.25 0.918479 16.1183 0.600537 15.8839 0.366117C15.6495 0.131696 15.3315 0 15 0C12.0333 0 9.13319 0.879735 6.66645 2.52796C4.19972 4.17618 2.27713 6.51886 1.14181 9.25975C0.00649929 12.0006 -0.290551 15.0166 0.288228 17.9264C0.867006 20.8361 2.29562 23.5088 4.3934 25.6066C6.49119 27.7044 9.16394 29.133 12.0737 29.7118C14.9834 30.2906 17.9994 29.9935 20.7403 28.8582C23.4811 27.7229 25.8238 25.8003 27.472 23.3336C29.1203 20.8668 30 17.9667 30 15C30 14.6685 29.8683 14.3505 29.6339 14.1161C29.3995 13.8817 29.0815 13.75 28.75 13.75ZM13.75 12.2453L6.46876 5.875C8.46576 4.00051 11.0248 2.83631 13.75 2.5625V12.2453ZM4.82235 7.75547L13.1719 15.0608L5.3261 22.9063C3.58875 20.7873 2.59794 18.1549 2.50688 15.4163C2.41582 12.6777 3.22959 9.98532 4.82235 7.75563V7.75547ZM15 27.5C12.1167 27.5026 9.32207 26.5036 7.09376 24.6739L15.5178 16.25H27.4375C27.1237 19.3317 25.6784 22.1876 23.3811 24.2656C21.0838 26.3435 18.0977 27.496 15 27.5Z" fill="white"/>
</svg>
