<svg width="39" height="39" viewBox="0 0 39 39" fill="none" xmlns="http://www.w3.org/2000/svg">
<circle cx="19.5" cy="19.5" r="19.5" fill="white"/>
<path fill-rule="evenodd" clip-rule="evenodd" d="M10.234 15.6478H10.1307C9.44583 15.6478 8.78899 15.9199 8.3047 16.4042C7.82041 16.8885 7.54834 17.5453 7.54834 18.2302V20.8126C7.54834 21.4975 7.82041 22.1543 8.3047 22.6386C8.78899 23.1229 9.44583 23.395 10.1307 23.395H10.234C10.6066 23.3948 10.9748 23.4753 11.3133 23.6309C11.6519 23.7864 11.9528 24.0134 12.1953 24.2962L16.8978 29.7838C17.6777 30.6928 19.169 30.1414 19.169 28.9432V10.0996C19.169 8.90139 17.6777 8.35005 16.8965 9.26034L12.1966 14.7453C11.954 15.0285 11.653 15.2559 11.3142 15.4117C10.9754 15.5675 10.6069 15.648 10.234 15.6478ZM27.7374 9.54698C27.6152 9.42655 27.4702 9.33168 27.3109 9.26792C27.1516 9.20416 26.9812 9.17278 26.8097 9.17562C26.6381 9.17846 26.4689 9.21546 26.3118 9.28446C26.1547 9.35347 26.0129 9.45308 25.8948 9.57749C25.7766 9.70191 25.6845 9.84862 25.6237 10.0091C25.5629 10.1695 25.5346 10.3404 25.5406 10.5119C25.5467 10.6834 25.5868 10.8519 25.6587 11.0077C25.7306 11.1635 25.8328 11.3034 25.9594 11.4192C30.6787 15.9022 30.6787 23.1406 25.9594 27.6236C25.8328 27.7394 25.7306 27.8793 25.6587 28.0351C25.5868 28.1909 25.5467 28.3594 25.5406 28.5309C25.5346 28.7024 25.5629 28.8733 25.6237 29.0338C25.6845 29.1942 25.7766 29.3409 25.8948 29.4653C26.0129 29.5897 26.1547 29.6894 26.3118 29.7584C26.4689 29.8274 26.6381 29.8644 26.8097 29.8672C26.9812 29.87 27.1516 29.8387 27.3109 29.7749C27.4702 29.7111 27.6152 29.6163 27.7374 29.4958C33.5283 23.9954 33.5283 15.0474 27.7374 9.54698ZM23.9322 13.1623C23.684 12.9264 23.3521 12.7987 23.0097 12.8074C22.6673 12.8161 22.3424 12.9605 22.1065 13.2088C21.8705 13.4571 21.7429 13.7889 21.7516 14.1313C21.7603 14.4737 21.9047 14.7986 22.153 15.0345C24.7702 17.5201 24.7702 21.5228 22.153 24.0083C22.03 24.1251 21.9313 24.265 21.8625 24.42C21.7936 24.575 21.7559 24.742 21.7516 24.9115C21.7473 25.0811 21.7764 25.2498 21.8373 25.4081C21.8982 25.5664 21.9897 25.7111 22.1065 25.834C22.3424 26.0823 22.6673 26.2267 23.0097 26.2354C23.1793 26.2397 23.348 26.2106 23.5063 26.1497C23.6646 26.0888 23.8093 25.9973 23.9322 25.8805C27.6212 22.3762 27.6212 16.6666 23.9322 13.1623Z" fill="black"/>
</svg>
