<svg width="25" height="25" viewBox="0 0 25 25" fill="none" xmlns="http://www.w3.org/2000/svg">
<path fill-rule="evenodd" clip-rule="evenodd" d="M15.44 8.49038C15.7412 8.18925 16.1497 8.02008 16.5757 8.02008C17.0016 8.02008 17.4101 8.18925 17.7113 8.49038L19.7882 10.5673L21.8652 8.49038C22.0133 8.33696 22.1906 8.21459 22.3865 8.13041C22.5825 8.04623 22.7933 8.00191 23.0066 8.00006C23.2199 7.99821 23.4314 8.03885 23.6288 8.11962C23.8262 8.20038 24.0055 8.31965 24.1563 8.47047C24.3072 8.62129 24.4264 8.80063 24.5072 8.99804C24.588 9.19545 24.6286 9.40696 24.6268 9.62024C24.6249 9.83352 24.5806 10.0443 24.4964 10.2403C24.4122 10.4362 24.2899 10.6135 24.1364 10.7617L22.0595 12.8386L24.1364 14.9155C24.429 15.2185 24.5909 15.6242 24.5873 16.0454C24.5836 16.4665 24.4147 16.8694 24.1169 17.1672C23.8191 17.465 23.4162 17.634 22.995 17.6376C22.5739 17.6413 22.1681 17.4794 21.8652 17.1868L19.7882 15.1099L17.7113 17.1868C17.4084 17.4794 17.0026 17.6413 16.5814 17.6376C16.1603 17.634 15.7574 17.465 15.4596 17.1672C15.1618 16.8694 14.9928 16.4665 14.9892 16.0454C14.9855 15.6242 15.1474 15.2185 15.44 14.9155L17.5169 12.8386L15.44 10.7617C15.1389 10.4604 14.9697 10.052 14.9697 9.62602C14.9697 9.20009 15.1389 8.7916 15.44 8.49038Z" fill="black"/>
<path fill-rule="evenodd" clip-rule="evenodd" d="M3.68567 8.8412H3.58238C2.89749 8.8412 2.24065 9.11328 1.75636 9.59757C1.27207 10.0819 1 10.7387 1 11.4236V14.006C1 14.6908 1.27207 15.3477 1.75636 15.832C2.24065 16.3163 2.89749 16.5883 3.58238 16.5883H3.68567C4.05825 16.5882 4.42646 16.6686 4.76501 16.8242C5.10356 16.9798 5.40444 17.2068 5.64699 17.4896L10.3495 22.9771C11.1294 23.8861 12.6207 23.3348 12.6207 22.1366V3.29297C12.6207 2.09474 11.1294 1.54341 10.3482 2.4537L5.64828 7.93866C5.40571 8.22188 5.10467 8.44921 4.76588 8.60501C4.42709 8.76081 4.05857 8.84139 3.68567 8.8412Z" fill="black"/>
</svg>
