<svg width="400" height="429" viewBox="0 0 400 429" fill="none" xmlns="http://www.w3.org/2000/svg">
<path opacity="0.2" d="M359.696 304.55C338.183 354.747 151.451 232.554 143.993 168.015C136.535 103.477 273.931 -5.23515 360.269 30.6197C409.032 50.9852 410.753 119.826 377.193 176.047C348.796 223.662 371.456 277.588 359.696 304.55Z" fill="url(#paint0_linear_30_17177)"/>
<path opacity="0.2" d="M152.884 0.501475C123.053 5.37773 124.774 71.6374 141.698 95.1582C158.621 118.679 203.942 70.4901 205.376 45.5351C207.384 20.2933 178.413 -3.8011 152.884 0.501475Z" fill="url(#paint1_linear_30_17177)"/>
<path d="M95.5169 259.804C95.5169 259.804 28.9703 230.833 19.7915 141.626C19.7915 141.626 90.0669 144.782 120.185 248.904L95.5169 259.804Z" fill="url(#paint2_linear_30_17177)"/>
<path d="M24.3809 146.503L102.688 250.052L84.9038 249.478C84.9038 249.478 27.2492 217.926 24.3809 146.503Z" fill="#BDE0FF"/>
<path d="M96.3781 266.975C96.3781 266.975 82.0362 201.289 9.1792 201.289C9.1792 201.289 13.4818 265.827 87.7729 268.982L96.3781 266.975Z" fill="url(#paint3_radial_30_17177)"/>
<path d="M9.17871 201.576L96.3776 267.262L85.1909 266.975C85.1909 266.688 22.0864 264.68 9.17871 201.576Z" fill="#BDE0FF"/>
<path d="M346.501 317.744C346.501 317.744 346.501 339.83 325.562 339.83H75.7255C67.4072 338.97 61.6704 328.93 61.6704 322.046C61.6704 319.465 63.1046 289.347 64.8256 253.205C67.694 196.411 71.1361 124.988 71.1361 124.988C71.1361 124.988 72.5703 115.236 88.0595 114.088L209.679 115.236L325.562 116.383C325.562 116.383 336.749 116.957 341.338 128.43L346.501 317.744Z" fill="url(#paint4_linear_30_17177)"/>
<path d="M72.5704 314.589C72.5704 314.589 248.976 324.628 332.733 315.736C332.733 315.736 340.478 219.932 329.864 131.012C329.864 131.012 198.206 121.833 83.4702 128.143C83.4702 127.857 72.2835 210.466 72.5704 314.589Z" fill="url(#paint5_linear_30_17177)"/>
<path d="M63.3909 281.316H45.0332V300.247H62.5304L63.3909 281.316Z" fill="url(#paint6_linear_30_17177)"/>
<path d="M301.467 319.466L310.646 339.831H325.562C325.562 339.831 343.919 340.979 346.501 317.745V279.595L334.741 281.316L332.733 315.737L301.467 319.466Z" fill="#361488"/>
<path d="M154.893 374.825C112.154 374.825 79.1674 368.802 63.3913 365.073C42.1652 360.197 30.6917 355.894 26.9628 351.305C16.3498 349.584 8.03149 346.715 3.72891 342.699C1.14736 340.405 0 337.536 0 334.381C0 309.426 45.3205 290.495 47.0415 289.634L47.902 291.642C47.3284 291.929 2.00786 310.86 2.00786 334.381C2.00786 336.963 2.86839 339.257 5.1631 340.978C8.892 344.707 16.0629 347.289 25.5286 348.723C25.5286 348.436 25.5286 348.436 25.5286 348.149C24.9549 344.994 27.2497 342.126 32.4128 338.684C39.01 334.381 47.902 333.521 56.5072 336.102C64.5387 338.684 71.1359 344.134 75.7254 351.305C92.0751 351.305 109.859 350.444 127.356 349.87C164.072 348.436 198.779 347.289 218.858 351.018C226.316 352.452 229.758 353.886 229.758 356.181C229.758 357.902 228.037 360.197 214.555 362.778C179.274 369.949 83.7568 374.825 77.1595 358.476C76.5859 356.755 75.7254 355.034 74.578 353.312C58.2282 353.312 43.0258 353.026 30.6917 351.305C35.8548 354.747 46.7547 358.476 63.965 362.491C89.4936 368.515 158.335 380.275 242.952 363.639C286.839 355.034 291.715 348.149 292.002 345.568C292.288 342.986 287.699 340.978 286.265 340.405L286.839 338.397C287.125 338.397 294.296 340.978 294.009 345.568C293.723 352.452 277.086 359.049 243.239 365.646C210.826 372.531 180.995 374.825 154.893 374.825ZM76.8727 353.886C77.7333 355.32 78.3069 356.754 78.8806 358.189C82.6095 367.654 128.79 369.375 172.103 366.22C208.818 363.639 226.889 358.762 227.463 356.468C227.463 356.468 226.889 355.034 218.284 353.599C198.205 349.87 163.785 351.305 127.069 352.452C110.146 353.026 92.9357 353.886 76.8727 353.886ZM27.8233 349.297C40.1574 351.305 55.6467 351.878 72.857 351.591C68.5544 345.281 62.5308 340.692 55.3598 338.397C47.6152 335.815 39.2969 336.676 32.9864 340.692C28.6839 343.56 26.676 345.855 26.9628 347.863C27.5365 348.436 27.5365 349.01 27.8233 349.297Z" fill="url(#paint7_linear_30_17177)"/>
<path d="M218.571 117.245L211.4 123.555C211.4 123.555 106.704 122.695 81.7492 125.85C81.7492 125.85 70.8493 202.149 70.8493 249.477L64.8257 253.206V252.919C67.6941 196.125 71.1362 124.703 71.1362 124.703C71.1362 124.703 72.5703 114.95 88.0596 113.803L209.679 114.95L218.571 117.245Z" fill="url(#paint8_linear_30_17177)"/>
<path d="M72.5701 314.59L70.2754 317.171C70.2754 317.171 238.65 326.35 335.601 317.171L332.733 316.024C332.733 315.737 211.974 322.621 72.5701 314.59Z" fill="url(#paint9_linear_30_17177)"/>
<path d="M133.093 319.178L155.753 336.101H258.728L243.239 321.473C243.239 321.473 151.164 320.612 133.093 319.178Z" fill="url(#paint10_linear_30_17177)"/>
<path d="M45.0332 281.316L58.8015 278.16H63.3909V281.316H45.0332Z" fill="url(#paint11_linear_30_17177)"/>
<path d="M89.7806 148.224C89.7806 148.224 84.9043 177.195 84.9043 199.855H162.638C162.638 199.855 162.351 161.706 162.638 148.224H89.7806Z" fill="#9275C2"/>
<path d="M114.162 174.899H101.542L102.115 161.991H114.736L114.162 174.899Z" fill="#6EFFE8"/>
<path d="M130.512 174.899H117.891L118.178 161.991H130.799L130.512 174.899Z" fill="#839FFF"/>
<path d="M146.862 174.899H133.954L134.241 161.991H146.862V174.899Z" fill="#6877FF"/>
<path d="M113.588 192.683H100.681L101.254 179.776H114.162L113.588 192.683Z" fill="#FF1D9C"/>
<path d="M130.226 192.683H117.318L117.605 179.776H130.512L130.226 192.683Z" fill="#981382"/>
<path d="M146.862 192.683H133.667L133.954 179.776H146.862V192.683Z" fill="#140047"/>
<path d="M88.3462 157.115H162.35L162.637 148.223H89.7804L88.3462 157.115Z" fill="url(#paint12_linear_30_17177)"/>
<path d="M90.0674 155.968L90.9279 149.657H96.9515L96.3778 155.968H90.0674Z" fill="white"/>
<path d="M76.0117 227.104L201.36 126.137C201.36 126.137 141.411 124.989 83.4695 128.145C83.4695 127.858 78.5933 195.552 76.0117 227.104Z" fill="url(#paint13_linear_30_17177)"/>
<path d="M198.492 255.214L200.5 237.43H221.152L222.587 254.64L215.702 259.23H205.376L198.492 255.214Z" fill="url(#paint14_linear_30_17177)"/>
<path d="M210.539 173.751C179.274 173.751 180.421 207.598 191.608 220.219C199.353 229.111 196.198 232.553 197.058 234.274C197.919 235.995 200.787 237.143 200.787 237.143H210.826H220.866C220.866 237.143 223.734 235.995 224.595 234.274C225.455 232.553 222.013 229.111 230.044 220.219C240.944 207.312 242.379 173.751 210.539 173.751Z" fill="url(#paint15_linear_30_17177)"/>
<path d="M205.376 259.229L208.244 260.95H213.121L215.702 259.229H205.376Z" fill="url(#paint16_linear_30_17177)"/>
<path d="M189.313 193.256H195.624C195.624 193.256 196.771 185.225 200.5 181.209L195.05 179.775C194.763 179.488 188.74 184.364 189.313 193.256Z" fill="white"/>
<path d="M225.168 215.057L228.611 217.065C228.611 217.065 235.495 209.607 235.208 199.281H230.332C230.045 198.994 230.905 208.173 225.168 215.057Z" fill="white"/>
<path d="M197.058 234.562C197.058 234.562 216.276 237.143 224.021 234.562C224.021 234.562 223.16 236.856 221.153 237.43L221.726 246.609C221.726 246.609 212.834 241.159 200.213 240.585L200.5 237.43C200.5 237.43 197.632 235.709 197.058 234.562Z" fill="url(#paint17_linear_30_17177)"/>
<path d="M69.4151 157.114H65.3994V167.727L68.8415 168.301L69.4151 157.114Z" fill="url(#paint18_linear_30_17177)"/>
<path d="M68.5546 174.899L65.3994 175.759L64.8257 183.791L68.2678 184.938L68.5546 174.899Z" fill="url(#paint19_linear_30_17177)"/>
<path d="M353.672 122.981L372.89 109.5L381.208 114.089L359.696 133.881L353.672 122.981Z" fill="#FF1D9C"/>
<path d="M84.6177 99.4601L104.123 90.2812L109.286 99.7469L89.2071 104.623L84.6177 99.4601Z" fill="#4F31E0"/>
<path d="M281.962 372.818L309.499 371.957L315.522 381.423L283.97 379.989L281.962 372.818Z" fill="#6877FF"/>
<path d="M273.644 182.355C273.644 182.355 266.186 207.884 267.62 218.497C267.62 218.497 268.481 229.684 280.528 230.257L293.436 198.132L273.644 182.355Z" fill="url(#paint20_linear_30_17177)"/>
<path d="M218.857 205.302C218.857 205.302 214.268 208.745 214.555 210.179C214.842 211.613 219.718 213.908 219.718 213.908L218.857 205.302Z" fill="url(#paint21_linear_30_17177)"/>
<path d="M376.045 342.125L371.169 426.169C371.169 426.169 302.614 334.38 281.962 318.031C280.241 316.596 278.52 315.162 276.799 314.015C259.875 301.107 252.131 299.673 249.549 298.239C246.681 296.518 241.231 288.486 240.657 285.905C240.084 283.323 240.084 245.174 237.789 236.855C235.494 228.25 225.455 219.645 224.594 216.49C223.734 213.335 227.463 208.171 231.192 207.598C234.92 207.024 254.139 212.761 260.162 231.979C260.162 231.979 257.868 236.282 256.433 241.445C254.999 246.608 257.007 255.213 257.007 255.213C257.007 255.213 265.039 256.647 268.481 255.787C271.923 254.926 278.52 235.708 277.946 220.792C277.659 205.877 263.031 177.48 263.031 177.48L252.418 152.238C252.418 152.238 264.752 146.214 271.636 147.648C271.636 147.648 282.249 164.859 288.559 168.588C288.559 168.588 302.614 170.882 310.646 173.464C310.646 173.464 320.398 174.898 328.43 181.495C328.43 181.495 337.322 182.069 341.624 185.511C345.64 188.666 363.998 211.613 364.858 217.924V218.211C365.432 225.669 351.377 268.121 323.554 295.944C323.554 295.944 330.151 302.254 339.903 311.146C350.516 320.612 363.711 332.373 376.045 342.125Z" fill="url(#paint22_linear_30_17177)"/>
<path d="M346.501 194.403C345.353 194.977 343.919 195.551 342.772 195.551C342.772 195.551 302.041 201.861 272.496 207.598C256.72 210.466 244.099 213.048 242.091 214.195C240.083 215.342 238.936 216.49 238.076 217.924C236.068 220.792 236.068 223.374 236.068 223.374C236.068 223.374 227.176 222.513 220.005 213.908C220.005 213.908 216.563 210.466 218.284 206.164C218.284 206.164 221.152 198.706 228.897 193.83C230.618 192.682 232.626 191.822 234.92 190.961C234.92 190.961 234.92 191.535 235.207 192.109C235.494 193.543 236.354 195.837 238.362 195.837C239.797 195.837 259.302 188.666 281.675 179.488C303.762 170.596 328.716 159.696 343.345 151.664C343.345 151.664 357.114 151.951 359.695 167.44C361.99 180.348 354.245 190.387 346.501 194.403Z" fill="url(#paint23_linear_30_17177)"/>
<path opacity="0.86" d="M272.209 207.597C256.433 210.465 243.812 213.047 241.805 214.194C239.797 215.342 238.649 216.489 237.789 217.923L228.036 220.505C222.873 209.892 228.897 193.829 228.897 193.829L235.207 192.108C235.494 193.542 236.355 195.837 238.363 195.837C239.797 195.837 259.302 188.666 281.675 179.487C270.775 190.674 272.209 207.597 272.209 207.597Z" fill="#9A7AB3"/>
<path d="M228.61 193.542C228.61 193.542 231.478 203.008 248.689 194.976C248.689 194.976 271.636 174.611 276.225 154.532L271.922 148.222C271.922 148.222 259.302 146.214 252.704 152.811C252.704 152.811 250.123 168.3 243.525 178.914C241.231 182.356 228.61 190.1 228.61 190.1V193.542Z" fill="url(#paint24_linear_30_17177)"/>
<path d="M224.594 216.49C224.594 216.49 236.928 232.266 237.789 236.855C238.649 241.445 240.37 284.757 240.37 284.757C240.37 284.757 239.51 267.547 257.007 255.5C257.007 255.5 256.146 249.476 257.007 243.453C257.867 237.142 259.589 234.847 260.162 232.266C260.736 229.684 252.991 208.458 234.06 205.877C234.06 205.877 230.618 207.024 228.323 209.319C225.742 211.613 224.594 216.49 224.594 216.49Z" fill="url(#paint25_linear_30_17177)"/>
<path d="M379.2 414.695C376.906 420.431 373.177 424.734 369.448 428.463L348.222 396.624C348.222 396.624 339.043 401.787 336.461 401.213C329.577 399.779 329.577 385.15 329.577 385.15C329.577 385.15 327.856 367.653 332.446 349.869C335.601 337.535 341.911 324.914 354.532 318.317C354.532 318.317 362.851 315.449 368.874 329.79L386.371 341.551C386.084 341.551 390.674 386.585 379.2 414.695Z" fill="url(#paint26_linear_30_17177)"/>
<path opacity="0.5" d="M379.2 414.409C376.905 420.145 374.037 425.022 370.021 428.751L347.935 396.338C347.935 396.338 338.756 401.501 336.174 400.927C329.29 399.493 329.29 384.864 329.29 384.864C329.29 384.864 327.569 367.367 332.159 349.583C331.872 351.878 327.282 380.562 333.593 390.027C340.19 400.067 351.09 336.389 368.587 329.504C368.587 329.504 350.803 358.762 352.237 379.128C353.958 399.493 379.2 414.409 379.2 414.409Z" fill="url(#paint27_linear_30_17177)"/>
<path d="M324.414 296.517C324.414 296.517 331.011 302.828 340.764 311.72C340.764 311.72 317.53 305.983 298.025 308.278C283.683 309.999 278.807 312.867 277.086 314.301C260.162 301.394 252.417 299.959 249.836 298.525L271.923 284.757C271.923 284.757 293.435 237.429 296.304 213.047L290.854 204.155L307.204 206.45C307.204 206.45 318.104 209.605 336.461 209.318C336.461 209.318 345.927 214.195 354.245 213.334L365.432 218.497V218.784C366.006 225.955 351.95 268.407 324.414 296.517Z" fill="url(#paint28_linear_30_17177)"/>
<path d="M257.007 255.5C257.007 255.5 262.457 260.663 267.333 261.524C267.333 261.524 271.636 256.361 274.217 246.321C274.217 246.321 271.636 253.492 268.48 254.926C268.48 254.64 263.317 257.221 257.007 255.5Z" fill="url(#paint29_linear_30_17177)"/>
<path d="M224.594 216.49C224.594 216.49 234.634 229.398 237.502 229.398C241.518 229.398 243.812 223.374 240.944 215.343C238.936 209.606 232.913 207.311 232.913 207.311C232.913 207.311 228.036 208.458 224.594 216.49Z" fill="url(#paint30_linear_30_17177)"/>
<path d="M226.028 218.211C226.028 218.211 229.184 211.614 235.207 208.458L233.199 207.311C233.199 207.311 228.036 208.745 224.594 216.49L226.028 218.211Z" fill="url(#paint31_linear_30_17177)"/>
<path d="M238.076 210.754C238.076 210.754 243.239 215.056 242.092 223.375C240.944 231.693 235.781 229.111 233.773 227.103C233.773 227.103 236.068 229.685 238.363 229.972C240.658 230.259 243.526 227.39 243.526 221.654C243.813 215.917 238.076 210.754 238.076 210.754Z" fill="url(#paint32_linear_30_17177)"/>
<path d="M346.501 194.403L345.067 194.977C345.067 194.977 334.741 187.232 334.741 171.169C334.741 156.827 343.346 151.377 343.346 151.377C343.346 151.377 357.114 151.664 359.696 167.153C361.99 180.348 354.246 190.387 346.501 194.403Z" fill="url(#paint33_linear_30_17177)"/>
<path d="M353.098 174.324L352.811 174.611C352.811 174.611 349.656 172.603 349.656 168.874C349.656 165.432 352.524 164.285 352.524 164.285C352.524 164.285 355.679 164.285 356.54 168.014C356.827 170.882 355.106 173.177 353.098 174.324Z" fill="url(#paint34_linear_30_17177)"/>
<path opacity="0.86" d="M351.951 172.317C351.664 172.317 350.229 171.456 350.229 169.162C350.229 167.154 351.664 165.719 351.664 165.719C351.664 165.719 353.672 165.719 354.245 168.014C354.245 170.309 353.098 171.743 351.951 172.317Z" fill="#9A7AD9"/>
<path d="M263.604 178.34L257.007 162.851L259.015 183.79C259.015 184.077 261.596 181.209 263.604 178.34Z" fill="url(#paint35_linear_30_17177)"/>
<path d="M254.999 192.109L313.227 169.162L311.219 174.038L254.999 194.403V192.109Z" fill="url(#paint36_linear_30_17177)"/>
<path d="M315.235 173.464L317.817 166.866L329.577 161.13L326.422 170.308L315.235 173.464Z" fill="white"/>
<path d="M354.245 177.767C354.245 177.767 353.385 181.496 350.517 184.938L352.811 187.233C352.811 187.233 356.827 184.078 357.688 179.201L354.245 177.767Z" fill="white"/>
<path d="M366.292 331.799C364.285 320.899 354.532 318.891 354.245 318.891L354.532 317.457C354.532 317.457 365.432 319.751 367.727 331.512L366.292 331.799Z" fill="white"/>
<path d="M361.703 338.396C356.253 328.357 345.353 325.488 345.353 325.488L345.64 324.341C346.213 324.341 357.113 327.496 362.85 337.822L361.703 338.396Z" fill="white"/>
<path d="M357.687 345.854C349.369 338.97 337.322 336.675 337.322 336.675L337.609 335.241C338.182 335.241 349.943 337.536 358.548 344.707L357.687 345.854Z" fill="white"/>
<path d="M353.958 358.189C344.206 351.018 333.019 348.149 333.019 347.863L333.306 346.715C333.306 346.715 344.779 349.583 354.819 357.041L353.958 358.189Z" fill="white"/>
<path d="M351.09 369.375C337.322 362.778 330.151 363.638 330.151 363.638L329.864 362.204C330.151 362.204 337.322 361.343 351.664 367.941L351.09 369.375Z" fill="white"/>
<path d="M341.911 381.422C334.74 381.422 329.577 379.988 329.29 379.988L329.577 378.84C329.577 378.84 338.756 381.135 349.369 379.701L349.656 381.135C346.787 381.135 344.206 381.422 341.911 381.422Z" fill="white"/>
<path d="M331.872 396.624C331.585 396.624 331.585 396.338 331.872 396.624L331.585 395.19C331.585 395.19 338.756 395.477 347.935 389.74L348.508 390.888C339.903 396.051 333.019 396.624 331.872 396.624Z" fill="white"/>
<path d="M348.795 396.624H347.361C347.361 396.051 347.935 349.583 368.3 329.217L369.161 330.078C349.656 349.87 348.795 396.051 348.795 396.624Z" fill="white"/>
<path d="M252.704 152.811C252.704 152.811 261.596 167.44 267.62 173.177C276.225 181.495 286.551 173.751 286.551 173.751L288.559 170.308C288.559 170.308 278.233 159.122 272.209 148.222C271.922 148.222 260.162 145.927 252.704 152.811Z" fill="#E1D197"/>
<defs>
<linearGradient id="paint0_linear_30_17177" x1="143.702" y1="169.945" x2="400" y2="169.945" gradientUnits="userSpaceOnUse">
<stop stop-color="#6A11CB"/>
<stop offset="1" stop-color="#2575FC"/>
</linearGradient>
<linearGradient id="paint1_linear_30_17177" x1="129.576" y1="50.7257" x2="205.475" y2="50.7257" gradientUnits="userSpaceOnUse">
<stop stop-color="#6A11CB"/>
<stop offset="1" stop-color="#2575FC"/>
</linearGradient>
<linearGradient id="paint2_linear_30_17177" x1="74.9029" y1="261.311" x2="65.8368" y2="138.128" gradientUnits="userSpaceOnUse">
<stop stop-color="#1C257B"/>
<stop offset="1" stop-color="#6A2C9A"/>
</linearGradient>
<radialGradient id="paint3_radial_30_17177" cx="0" cy="0" r="1" gradientUnits="userSpaceOnUse" gradientTransform="translate(43.9948 202.319) rotate(169.647) scale(56.6135 56.6135)">
<stop stop-color="#3996F7"/>
<stop offset="1" stop-color="#6840D5"/>
</radialGradient>
<linearGradient id="paint4_linear_30_17177" x1="204.097" y1="339.871" x2="204.097" y2="114.145" gradientUnits="userSpaceOnUse">
<stop stop-color="#1C257B"/>
<stop offset="1" stop-color="#482C83"/>
</linearGradient>
<linearGradient id="paint5_linear_30_17177" x1="204.048" y1="319.321" x2="204.048" y2="125.816" gradientUnits="userSpaceOnUse">
<stop stop-color="#FDFDFF"/>
<stop offset="1" stop-color="#DBCAFF"/>
</linearGradient>
<linearGradient id="paint6_linear_30_17177" x1="54.2989" y1="300.275" x2="54.2989" y2="281.217" gradientUnits="userSpaceOnUse">
<stop stop-color="#1C257B"/>
<stop offset="1" stop-color="#482C83"/>
</linearGradient>
<linearGradient id="paint7_linear_30_17177" x1="146.849" y1="374.872" x2="146.849" y2="289.73" gradientUnits="userSpaceOnUse">
<stop stop-color="#1C257B"/>
<stop offset="1" stop-color="#482C83"/>
</linearGradient>
<linearGradient id="paint8_linear_30_17177" x1="141.721" y1="253.457" x2="141.721" y2="114.146" gradientUnits="userSpaceOnUse">
<stop stop-color="#B9ACF4"/>
<stop offset="1" stop-color="#E1D1F5"/>
</linearGradient>
<linearGradient id="paint9_linear_30_17177" x1="202.838" y1="321.149" x2="202.838" y2="314.572" gradientUnits="userSpaceOnUse">
<stop stop-color="#744FD8"/>
<stop offset="1" stop-color="#3996F7"/>
</linearGradient>
<linearGradient id="paint10_linear_30_17177" x1="196.01" y1="336.24" x2="196.01" y2="319.321" gradientUnits="userSpaceOnUse">
<stop stop-color="#B9ACF4"/>
<stop offset="1" stop-color="#E1D1F5"/>
</linearGradient>
<linearGradient id="paint11_linear_30_17177" x1="54.2989" y1="281.217" x2="54.2989" y2="278.178" gradientUnits="userSpaceOnUse">
<stop stop-color="#744FD8"/>
<stop offset="1" stop-color="#3996F7"/>
</linearGradient>
<linearGradient id="paint12_linear_30_17177" x1="125.448" y1="157.181" x2="125.448" y2="148.229" gradientUnits="userSpaceOnUse">
<stop stop-color="#B9ACF4"/>
<stop offset="1" stop-color="#E1D1F5"/>
</linearGradient>
<linearGradient id="paint13_linear_30_17177" x1="138.71" y1="227.009" x2="138.71" y2="125.843" gradientUnits="userSpaceOnUse">
<stop stop-color="#B9ACF4"/>
<stop offset="1" stop-color="#E1D1F5"/>
</linearGradient>
<linearGradient id="paint14_linear_30_17177" x1="210.486" y1="259.195" x2="210.486" y2="237.296" gradientUnits="userSpaceOnUse">
<stop stop-color="#EFEAFF"/>
<stop offset="1" stop-color="#D1BBFF"/>
</linearGradient>
<linearGradient id="paint15_linear_30_17177" x1="210.68" y1="237.296" x2="210.68" y2="173.893" gradientUnits="userSpaceOnUse">
<stop stop-color="#CF95FF"/>
<stop offset="1" stop-color="#9552FF"/>
</linearGradient>
<linearGradient id="paint16_linear_30_17177" x1="210.583" y1="261.079" x2="210.583" y2="259.193" gradientUnits="userSpaceOnUse">
<stop stop-color="#1C257B"/>
<stop offset="1" stop-color="#482C83"/>
</linearGradient>
<linearGradient id="paint17_linear_30_17177" x1="196.947" y1="240.397" x2="224.026" y2="240.397" gradientUnits="userSpaceOnUse">
<stop stop-color="#8B8BE0"/>
<stop offset="1" stop-color="white"/>
</linearGradient>
<linearGradient id="paint18_linear_30_17177" x1="67.5128" y1="168.432" x2="67.5128" y2="157.18" gradientUnits="userSpaceOnUse">
<stop stop-color="#1C257B"/>
<stop offset="1" stop-color="#482C83"/>
</linearGradient>
<linearGradient id="paint19_linear_30_17177" x1="66.6741" y1="184.892" x2="66.6741" y2="174.924" gradientUnits="userSpaceOnUse">
<stop stop-color="#1C257B"/>
<stop offset="1" stop-color="#482C83"/>
</linearGradient>
<linearGradient id="paint20_linear_30_17177" x1="267.403" y1="206.366" x2="293.124" y2="206.366" gradientUnits="userSpaceOnUse">
<stop stop-color="#CF6074"/>
<stop offset="1" stop-color="#FF817F"/>
</linearGradient>
<linearGradient id="paint21_linear_30_17177" x1="217.057" y1="213.912" x2="217.057" y2="205.281" gradientUnits="userSpaceOnUse">
<stop stop-color="#1C257B"/>
<stop offset="1" stop-color="#482C83"/>
</linearGradient>
<linearGradient id="paint22_linear_30_17177" x1="300.32" y1="426.202" x2="300.32" y2="147.96" gradientUnits="userSpaceOnUse">
<stop offset="0.0159875" stop-color="#FFC2A9"/>
<stop offset="1" stop-color="#FF9595"/>
</linearGradient>
<linearGradient id="paint23_linear_30_17177" x1="288.761" y1="223.299" x2="288.761" y2="151.323" gradientUnits="userSpaceOnUse">
<stop stop-color="#1C257B"/>
<stop offset="1" stop-color="#482C83"/>
</linearGradient>
<linearGradient id="paint24_linear_30_17177" x1="252.373" y1="198.303" x2="252.373" y2="147.85" gradientUnits="userSpaceOnUse">
<stop offset="0.0159875" stop-color="#FF9A93"/>
<stop offset="1" stop-color="#FF9595"/>
</linearGradient>
<linearGradient id="paint25_linear_30_17177" x1="242.444" y1="284.719" x2="242.444" y2="205.718" gradientUnits="userSpaceOnUse">
<stop offset="0.0159875" stop-color="#FF9A93"/>
<stop offset="1" stop-color="#FF9595"/>
</linearGradient>
<linearGradient id="paint26_linear_30_17177" x1="358.194" y1="428.436" x2="358.194" y2="317.92" gradientUnits="userSpaceOnUse">
<stop stop-color="#744FD8"/>
<stop offset="1" stop-color="#3996F7"/>
</linearGradient>
<linearGradient id="paint27_linear_30_17177" x1="354.254" y1="428.922" x2="354.254" y2="329.625" gradientUnits="userSpaceOnUse">
<stop stop-color="#8B8BE0"/>
<stop offset="1" stop-color="white"/>
</linearGradient>
<linearGradient id="paint28_linear_30_17177" x1="307.513" y1="314.232" x2="307.513" y2="204.183" gradientUnits="userSpaceOnUse">
<stop offset="0.0159875" stop-color="#FF997C"/>
<stop offset="1" stop-color="#FF898E"/>
</linearGradient>
<linearGradient id="paint29_linear_30_17177" x1="257.07" y1="253.69" x2="274.236" y2="253.69" gradientUnits="userSpaceOnUse">
<stop stop-color="#CF6074"/>
<stop offset="1" stop-color="#FF817F"/>
</linearGradient>
<linearGradient id="paint30_linear_30_17177" x1="224.731" y1="218.392" x2="242.411" y2="218.392" gradientUnits="userSpaceOnUse">
<stop stop-color="#B9ACF4"/>
<stop offset="1" stop-color="#E1D1F5"/>
</linearGradient>
<linearGradient id="paint31_linear_30_17177" x1="230.044" y1="218.231" x2="230.044" y2="207.466" gradientUnits="userSpaceOnUse">
<stop stop-color="#B9ACF4"/>
<stop offset="1" stop-color="#E1D1F5"/>
</linearGradient>
<linearGradient id="paint32_linear_30_17177" x1="238.76" y1="229.793" x2="238.76" y2="210.713" gradientUnits="userSpaceOnUse">
<stop stop-color="#CF6074"/>
<stop offset="1" stop-color="#FF817F"/>
</linearGradient>
<linearGradient id="paint33_linear_30_17177" x1="347.352" y1="195.006" x2="347.352" y2="151.323" gradientUnits="userSpaceOnUse">
<stop stop-color="#B9ACF4"/>
<stop offset="1" stop-color="#E1D1F5"/>
</linearGradient>
<linearGradient id="paint34_linear_30_17177" x1="353.079" y1="174.338" x2="353.079" y2="163.968" gradientUnits="userSpaceOnUse">
<stop stop-color="#FDFDFF"/>
<stop offset="1" stop-color="#DBCAFF"/>
</linearGradient>
<linearGradient id="paint35_linear_30_17177" x1="260.398" y1="184.072" x2="260.398" y2="162.996" gradientUnits="userSpaceOnUse">
<stop stop-color="#CF6074"/>
<stop offset="1" stop-color="#FF817F"/>
</linearGradient>
<linearGradient id="paint36_linear_30_17177" x1="284.22" y1="194.465" x2="284.22" y2="169.154" gradientUnits="userSpaceOnUse">
<stop stop-color="#B9ACF4"/>
<stop offset="1" stop-color="#E1D1F5"/>
</linearGradient>
</defs>
</svg>
