<svg width="179" height="168" viewBox="0 0 179 168" fill="none" xmlns="http://www.w3.org/2000/svg">
<path fill-rule="evenodd" clip-rule="evenodd" d="M160.995 70.873L3.99548 120.663C3.38115 120.86 2.81262 121.179 2.32367 121.6C1.83471 122.021 1.43522 122.535 1.14892 123.114C0.862621 123.692 0.695368 124.322 0.656978 124.966C0.618589 125.61 0.709883 126.255 0.925472 126.863L14.1755 164.623C14.5921 165.78 15.4344 166.735 16.5308 167.292C17.6272 167.85 18.8949 167.968 20.0754 167.623L174.595 122.673C175.795 122.321 176.811 121.518 177.432 120.433C178.052 119.348 178.229 118.065 177.925 116.853L167.165 74.283C167.003 73.6424 166.711 73.0419 166.308 72.5186C165.904 71.9954 165.398 71.5605 164.819 71.2408C164.241 70.9212 163.603 70.7236 162.946 70.6604C162.288 70.5971 161.624 70.6695 160.995 70.873ZM9.74548 130.033C9.19032 130.193 8.60021 130.184 8.04992 130.008C7.49963 129.833 7.01384 129.498 6.65399 129.046C6.29414 128.594 6.07643 128.045 6.02838 127.47C5.98032 126.894 6.10408 126.317 6.38403 125.812C6.66398 125.306 7.08753 124.895 7.60107 124.631C8.11461 124.366 8.69509 124.26 9.26904 124.326C9.84299 124.391 10.3846 124.625 10.8254 124.999C11.2662 125.372 11.5865 125.868 11.7455 126.423C11.8523 126.791 11.8853 127.177 11.8425 127.558C11.7997 127.939 11.682 128.308 11.4961 128.644C11.3102 128.979 11.0599 129.275 10.7595 129.513C10.459 129.752 10.1144 129.928 9.74548 130.033Z" fill="url(#paint0_linear_30_17014)"/>
<path fill-rule="evenodd" clip-rule="evenodd" d="M160.845 70.4329L3.84509 120.223C3.23076 120.42 2.66223 120.739 2.17327 121.16C1.68432 121.58 1.28489 122.095 0.998592 122.674C0.712292 123.252 0.544977 123.881 0.506588 124.526C0.468198 125.17 0.559492 125.815 0.775081 126.423L14.0251 164.183C14.4417 165.34 15.2841 166.295 16.3804 166.852C17.4768 167.41 18.7446 167.528 19.9251 167.183L174.435 122.233C175.637 121.885 176.657 121.083 177.278 119.997C177.899 118.911 178.074 117.626 177.765 116.413L167.035 73.8029C166.869 73.1636 166.573 72.5652 166.166 72.0448C165.76 71.5243 165.25 71.0928 164.67 70.7769C164.09 70.461 163.451 70.2675 162.793 70.2084C162.135 70.1492 161.472 70.2256 160.845 70.4329ZM9.56506 129.593C9.0099 129.753 8.41986 129.744 7.86956 129.568C7.31927 129.393 6.83348 129.058 6.47363 128.606C6.11378 128.154 5.89607 127.605 5.84802 127.03C5.79997 126.454 5.92372 125.877 6.20367 125.372C6.48362 124.866 6.90717 124.455 7.42071 124.191C7.93425 123.926 8.51473 123.82 9.08868 123.886C9.66263 123.951 10.2043 124.185 10.6451 124.559C11.0859 124.932 11.406 125.428 11.5651 125.983C11.7781 126.727 11.6871 127.525 11.3121 128.202C10.9371 128.879 10.3087 129.379 9.56506 129.593Z" fill="url(#paint1_linear_30_17014)"/>
<path fill-rule="evenodd" clip-rule="evenodd" d="M48.7753 153.763L29.3752 159.403L16.9053 121.783L36.4553 115.613L48.7753 153.763Z" fill="#598800"/>
<path fill-rule="evenodd" clip-rule="evenodd" d="M71.4155 147.173L51.5056 152.963L39.2256 114.743L59.3055 108.403L71.4155 147.173Z" fill="#5E9339"/>
<path fill-rule="evenodd" clip-rule="evenodd" d="M94.6652 140.413L74.2153 146.353L62.1353 107.513L82.7753 100.993L94.6652 140.413Z" fill="#97B368"/>
<path fill-rule="evenodd" clip-rule="evenodd" d="M118.546 133.463L97.5455 139.573L85.6855 100.073L106.896 93.3833L118.546 133.463Z" fill="#B1CC00"/>
<path fill-rule="evenodd" clip-rule="evenodd" d="M143.095 126.323L121.505 132.603L109.885 92.4432L131.695 85.5532L143.095 126.323Z" fill="#E5CC00"/>
<path fill-rule="evenodd" clip-rule="evenodd" d="M168.326 118.983L146.136 125.433L134.766 84.5834L157.206 77.5034L168.326 118.983Z" fill="#EAD631"/>
<path fill-rule="evenodd" clip-rule="evenodd" d="M147.035 40.6129L3.71504 121.783C3.15467 122.104 2.66437 122.534 2.27315 123.048C1.88193 123.562 1.59776 124.149 1.4374 124.775C1.27703 125.4 1.24377 126.052 1.33956 126.69C1.43534 127.329 1.65824 127.942 1.99507 128.493L22.765 162.783C23.4099 163.836 24.4329 164.603 25.6245 164.926C26.8161 165.249 28.0863 165.105 29.1751 164.523L171.045 88.5229C172.137 87.9228 172.955 86.9239 173.327 85.7349C173.7 84.546 173.599 83.259 173.045 82.1429L153.775 42.6829C153.484 42.0902 153.074 41.5633 152.571 41.1348C152.069 40.7063 151.484 40.3852 150.852 40.1913C150.221 39.9974 149.557 39.9348 148.9 40.0073C148.244 40.0798 147.609 40.2859 147.035 40.6129ZM11.3051 129.783C10.7963 130.057 10.2177 130.174 9.6426 130.118C9.06746 130.063 8.52162 129.839 8.07411 129.473C7.62661 129.108 7.29759 128.618 7.12868 128.065C6.95977 127.513 6.95854 126.923 7.1252 126.369C7.29186 125.816 7.61888 125.325 8.0649 124.958C8.51091 124.59 9.05591 124.364 9.63082 124.306C10.2057 124.249 10.7847 124.363 11.2946 124.635C11.8044 124.907 12.2223 125.324 12.4951 125.833C12.6772 126.17 12.791 126.54 12.8297 126.922C12.8685 127.303 12.8315 127.688 12.721 128.055C12.6104 128.422 12.4284 128.764 12.1854 129.06C11.9424 129.357 11.6432 129.602 11.3051 129.783Z" fill="url(#paint2_linear_30_17014)"/>
<path fill-rule="evenodd" clip-rule="evenodd" d="M146.765 40.2231L3.44543 121.433C2.88744 121.755 2.39937 122.185 2.00982 122.699C1.62028 123.212 1.33714 123.797 1.17694 124.421C1.01674 125.046 0.982706 125.695 1.0769 126.333C1.1711 126.97 1.3916 127.582 1.72546 128.133L22.5054 162.333C23.1452 163.389 24.1657 164.159 25.3564 164.485C26.5472 164.81 27.8175 164.666 28.9055 164.083L170.775 88.0831C171.861 87.4974 172.681 86.5176 173.066 85.3456C173.451 84.1736 173.372 82.8986 172.845 81.7831L153.505 42.2831C153.214 41.6902 152.805 41.1633 152.302 40.7349C151.799 40.3066 151.213 39.986 150.582 39.793C149.95 39.5999 149.285 39.5384 148.629 39.6124C147.973 39.6864 147.338 39.8942 146.765 40.2231ZM11.0355 129.403C10.5264 129.67 9.94997 129.78 9.37835 129.721C8.80674 129.661 8.26537 129.435 7.82208 129.069C7.37878 128.703 7.05324 128.215 6.88629 127.665C6.71934 127.115 6.71834 126.528 6.88348 125.978C7.04862 125.427 7.37255 124.938 7.81463 124.57C8.25672 124.203 8.79736 123.975 9.36877 123.913C9.94019 123.852 10.517 123.961 11.0269 124.226C11.5369 124.491 11.9573 124.9 12.2355 125.403C12.4238 125.744 12.5422 126.118 12.5837 126.505C12.6252 126.892 12.589 127.283 12.4772 127.656C12.3654 128.028 12.1803 128.375 11.9327 128.675C11.6851 128.975 11.3801 129.223 11.0355 129.403Z" fill="url(#paint3_linear_30_17014)"/>
<path fill-rule="evenodd" clip-rule="evenodd" d="M54.3852 144.933L36.5852 154.473L16.5952 120.253L34.4452 110.163L54.3852 144.933Z" fill="#005D88"/>
<path fill-rule="evenodd" clip-rule="evenodd" d="M75.1855 133.803L56.9056 143.593L36.9756 108.733L55.3156 98.3833L75.1855 133.803Z" fill="#005AD9"/>
<path fill-rule="evenodd" clip-rule="evenodd" d="M96.5255 122.383L77.7555 132.423L57.8955 96.923L76.7355 86.2729L96.5255 122.383Z" fill="#5B5BFF"/>
<path fill-rule="evenodd" clip-rule="evenodd" d="M118.456 110.643L99.1655 120.963L79.3955 84.7735L98.7655 73.8335L118.456 110.643Z" fill="#8D91FF"/>
<path fill-rule="evenodd" clip-rule="evenodd" d="M140.995 98.5735L121.165 109.183L101.485 72.2935L121.405 61.0435L140.995 98.5735Z" fill="#C2BAFF"/>
<path fill-rule="evenodd" clip-rule="evenodd" d="M164.165 86.1731L143.785 97.0831L124.205 59.4631L144.695 47.8931L164.165 86.1731Z" fill="#FF8DF4"/>
<g style="mix-blend-mode:multiply" opacity="0.5">
<path fill-rule="evenodd" clip-rule="evenodd" d="M127.025 14.4232L2.44522 122.203C1.96098 122.629 1.56661 123.147 1.28524 123.727C1.00388 124.306 0.841193 124.937 0.806728 125.58C0.772262 126.224 0.866732 126.868 1.08456 127.475C1.30239 128.081 1.63919 128.638 2.07522 129.113L29.1652 158.563C30.0015 159.474 31.1552 160.029 32.3886 160.115C33.622 160.2 34.8413 159.81 35.7953 159.023L159.975 56.6832C160.939 55.8872 161.557 54.7485 161.699 53.5065C161.84 52.2645 161.495 51.0159 160.735 50.0232L134.035 15.1232C133.635 14.598 133.13 14.1608 132.553 13.8387C131.976 13.5166 131.34 13.3165 130.682 13.2509C130.025 13.1853 129.361 13.2555 128.732 13.4571C128.103 13.6588 127.522 13.9876 127.025 14.4232ZM11.4552 128.533C11.0092 128.9 10.4645 129.127 9.8898 129.184C9.31512 129.241 8.73636 129.127 8.22671 128.855C7.71706 128.583 7.29941 128.167 7.02658 127.658C6.75374 127.149 6.63793 126.57 6.69387 125.995C6.74982 125.421 6.97498 124.875 7.34085 124.428C7.70671 123.982 8.19683 123.653 8.74929 123.485C9.30176 123.317 9.89176 123.316 10.4446 123.483C10.9975 123.65 11.4884 123.977 11.8553 124.423C12.3472 125.021 12.5814 125.79 12.5064 126.561C12.4314 127.332 12.0533 128.041 11.4552 128.533Z" fill="#914881"/>
</g>
<path fill-rule="evenodd" clip-rule="evenodd" d="M126.555 13.5131L1.98526 121.303C1.50103 121.729 1.10665 122.246 0.825285 122.826C0.54392 123.406 0.381235 124.037 0.34677 124.68C0.312304 125.324 0.406713 125.968 0.624541 126.575C0.842369 127.181 1.17923 127.738 1.61526 128.213L28.7052 157.663C29.5411 158.571 30.6927 159.124 31.9237 159.21C33.1548 159.296 34.3719 158.907 35.3252 158.123L159.505 55.7832C160.471 54.9904 161.09 53.8531 161.232 52.612C161.373 51.3709 161.027 50.1233 160.265 49.1332L133.565 14.2232C133.163 13.6997 132.659 13.2639 132.082 12.9426C131.506 12.6213 130.87 12.4212 130.214 12.3547C129.557 12.2882 128.894 12.3567 128.265 12.5559C127.636 12.7551 127.054 13.0809 126.555 13.5131ZM10.9953 127.633C10.5502 128.001 10.0059 128.229 9.4313 128.288C8.85672 128.347 8.27763 128.234 7.76724 127.963C7.25686 127.693 6.83811 127.277 6.56399 126.769C6.28988 126.26 6.1727 125.682 6.22726 125.107C6.28183 124.532 6.50566 123.986 6.87051 123.539C7.23536 123.091 7.72481 122.761 8.27695 122.592C8.82908 122.422 9.4191 122.42 9.97238 122.586C10.5257 122.752 11.0173 123.078 11.3852 123.523C11.8783 124.12 12.1143 124.888 12.0412 125.659C11.968 126.43 11.5918 127.14 10.9953 127.633Z" fill="url(#paint4_linear_30_17014)"/>
<path fill-rule="evenodd" clip-rule="evenodd" d="M126.215 13.1833L1.64541 120.973C1.16118 121.399 0.766804 121.917 0.485439 122.497C0.204074 123.077 0.0413884 123.707 0.00692303 124.35C-0.0275423 124.994 0.0669272 125.638 0.284755 126.245C0.502583 126.852 0.839384 127.409 1.27542 127.883L28.3654 157.333C29.2026 158.24 30.3549 158.791 31.5859 158.875C32.8169 158.959 34.0333 158.568 34.9854 157.783L159.165 55.4433C160.132 54.6488 160.751 53.5098 160.893 52.2671C161.035 51.0243 160.688 49.7751 159.925 48.7833L133.225 13.8833C132.824 13.3593 132.319 12.9232 131.742 12.602C131.165 12.2808 130.529 12.0812 129.872 12.0156C129.215 11.95 128.552 12.0198 127.923 12.2206C127.294 12.4215 126.713 12.7491 126.215 13.1833ZM10.6554 127.293C10.2103 127.661 9.6661 127.889 9.09152 127.948C8.51693 128.007 7.93784 127.894 7.42746 127.623C6.91707 127.353 6.49833 126.937 6.22421 126.429C5.95009 125.921 5.83285 125.342 5.88742 124.767C5.94198 124.192 6.16588 123.646 6.53073 123.199C6.89558 122.751 7.38503 122.421 7.93716 122.252C8.48929 122.082 9.07932 122.08 9.63259 122.246C10.1859 122.412 10.6775 122.738 11.0454 123.183C11.5386 123.78 11.7745 124.548 11.7013 125.319C11.6282 126.09 11.252 126.8 10.6554 127.293Z" fill="url(#paint5_linear_30_17014)"/>
<path fill-rule="evenodd" clip-rule="evenodd" d="M56.2152 134.003L40.6252 146.853L14.3052 117.223L29.8252 103.823L56.2152 134.003Z" fill="#88005B"/>
<path fill-rule="evenodd" clip-rule="evenodd" d="M74.4153 119.003L58.4153 132.193L32.0254 101.933L47.9754 88.1733L74.4153 119.003Z" fill="#D9005B"/>
<path fill-rule="evenodd" clip-rule="evenodd" d="M93.0953 103.613L76.6653 117.153L50.2153 86.233L66.6053 72.103L93.0953 103.613Z" fill="#FF665B"/>
<path fill-rule="evenodd" clip-rule="evenodd" d="M112.295 87.7932L95.4053 101.703L68.9053 70.1032L85.7452 55.5732L112.295 87.7932Z" fill="#FF928D"/>
<path fill-rule="evenodd" clip-rule="evenodd" d="M132.015 71.5335L114.665 85.8335L88.125 53.5335L105.435 38.5835L132.015 71.5335Z" fill="#FFC4BA"/>
<path fill-rule="evenodd" clip-rule="evenodd" d="M152.295 54.8233L134.455 69.5233L107.875 36.4833L125.695 21.1133L152.295 54.8233Z" fill="#FFD88D"/>
<g style="mix-blend-mode:multiply" opacity="0.5">
<path fill-rule="evenodd" clip-rule="evenodd" d="M114.195 3.19331L2.28524 124.103C1.84861 124.577 1.51104 125.134 1.29238 125.74C1.07373 126.347 0.978395 126.99 1.01193 127.634C1.04546 128.278 1.20722 128.908 1.4877 129.488C1.76817 130.069 2.16169 130.587 2.64523 131.013L32.0952 156.853C33.0232 157.666 34.2271 158.093 35.46 158.047C36.6928 158 37.8611 157.484 38.7252 156.603L151.425 41.7833C152.292 40.8833 152.776 39.6826 152.776 38.4333C152.776 37.184 152.292 35.9833 151.425 35.0833L121.245 3.14331C120.79 2.66421 120.241 2.28362 119.633 2.02508C119.025 1.76655 118.37 1.63557 117.709 1.64026C117.049 1.64495 116.396 1.7852 115.791 2.05234C115.187 2.31947 114.644 2.70781 114.195 3.19331ZM11.9052 129.443C11.4968 129.852 10.9765 130.13 10.4101 130.242C9.84372 130.355 9.25663 130.297 8.72311 130.076C8.18959 129.855 7.73363 129.481 7.41281 129.001C7.09198 128.52 6.92074 127.956 6.92074 127.378C6.92074 126.801 7.09198 126.236 7.41281 125.756C7.73363 125.276 8.18959 124.902 8.72311 124.681C9.25663 124.46 9.84372 124.402 10.4101 124.514C10.9765 124.627 11.4968 124.905 11.9052 125.313C12.1765 125.584 12.3916 125.906 12.5384 126.261C12.6852 126.615 12.7607 126.995 12.7607 127.378C12.7607 127.762 12.6852 128.142 12.5384 128.496C12.3916 128.85 12.1765 129.172 11.9052 129.443Z" fill="#914881"/>
</g>
<path fill-rule="evenodd" clip-rule="evenodd" d="M113.626 2.62285L1.70565 123.533C1.26902 124.007 0.931452 124.563 0.712795 125.17C0.494137 125.776 0.398805 126.42 0.432338 127.064C0.465871 127.707 0.627629 128.338 0.908107 128.918C1.18858 129.498 1.5821 130.017 2.06564 130.443L31.5157 156.293C32.4453 157.106 33.6508 157.534 34.8853 157.487C36.1198 157.441 37.2899 156.924 38.1557 156.043L150.846 41.1729C151.72 40.2807 152.215 39.0843 152.226 37.8349C152.238 36.5856 151.764 35.3806 150.906 34.4729L120.666 2.58286C120.213 2.10207 119.666 1.71969 119.059 1.45957C118.452 1.19944 117.797 1.06713 117.137 1.07088C116.477 1.07463 115.824 1.21438 115.22 1.48139C114.616 1.7484 114.073 2.13695 113.626 2.62285ZM11.3357 128.873C10.9278 129.283 10.4076 129.562 9.84079 129.676C9.274 129.79 8.68616 129.732 8.15182 129.512C7.61748 129.291 7.16065 128.917 6.8392 128.437C6.51775 127.956 6.34616 127.391 6.34616 126.813C6.34616 126.235 6.51775 125.67 6.8392 125.189C7.16065 124.709 7.61748 124.334 8.15182 124.114C8.68616 123.893 9.274 123.836 9.84079 123.95C10.4076 124.064 10.9278 124.343 11.3357 124.753C11.6066 125.023 11.8215 125.344 11.9682 125.698C12.1148 126.051 12.1903 126.43 12.1903 126.813C12.1903 127.196 12.1148 127.574 11.9682 127.928C11.8215 128.281 11.6066 128.603 11.3357 128.873Z" fill="url(#paint6_linear_30_17014)"/>
<path fill-rule="evenodd" clip-rule="evenodd" d="M113.296 2.30295L1.37563 123.213C0.938996 123.687 0.601433 124.244 0.382775 124.85C0.164117 125.456 0.0687239 126.1 0.102257 126.744C0.13579 127.387 0.297549 128.018 0.578026 128.598C0.858504 129.178 1.25208 129.697 1.73562 130.123L31.1856 155.963C32.1151 156.776 33.3194 157.203 34.5532 157.159C35.787 157.114 36.9572 156.601 37.8256 155.723L150.516 40.853C151.392 39.959 151.887 38.7598 151.896 37.508C151.905 36.2563 151.428 35.0499 150.566 34.1429L120.336 2.25294C119.881 1.77412 119.333 1.39369 118.726 1.13527C118.119 0.876843 117.465 0.745922 116.805 0.75061C116.145 0.755298 115.493 0.895494 114.889 1.16252C114.285 1.42955 113.743 1.81771 113.296 2.30295ZM11.0056 128.553C10.5972 128.961 10.0769 129.239 9.51052 129.352C8.94412 129.464 8.35703 129.407 7.82351 129.186C7.28999 128.965 6.83397 128.59 6.51315 128.11C6.19232 127.63 6.02108 127.065 6.02108 126.488C6.02108 125.91 6.19232 125.346 6.51315 124.866C6.83397 124.386 7.28999 124.011 7.82351 123.79C8.35703 123.569 8.94412 123.511 9.51052 123.624C10.0769 123.737 10.5972 124.015 11.0056 124.423C11.2768 124.694 11.492 125.016 11.6388 125.37C11.7855 125.725 11.8611 126.104 11.8611 126.488C11.8611 126.871 11.7855 127.251 11.6388 127.606C11.492 127.96 11.2768 128.282 11.0056 128.553Z" fill="url(#paint7_linear_30_17014)"/>
<path d="M85.2824 57.2865C84.5363 56.5546 84.0321 55.7298 83.7696 54.8121C83.4999 53.8872 83.4802 52.9708 83.7106 52.0629C83.9482 51.1476 84.415 50.3352 85.1111 49.6257C85.9291 48.7918 86.8442 48.2613 87.8564 48.0342C88.8687 47.8072 89.8841 47.9133 90.9027 48.3528L89.7295 49.5488C89.0606 49.3088 88.4045 49.268 87.7611 49.4264C87.1249 49.5774 86.5342 49.9309 85.9888 50.4868C85.465 51.0207 85.1193 51.6218 84.9519 52.2901C84.7844 52.9583 84.8127 53.6391 85.0367 54.3326C85.2534 55.0188 85.669 55.6634 86.2834 56.2661C86.8905 56.8617 87.5429 57.2648 88.2405 57.4755C88.9308 57.679 89.6084 57.6906 90.2733 57.5103C90.9382 57.33 91.5325 56.9729 92.0564 56.4389C92.6017 55.883 92.9474 55.2892 93.0935 54.6574C93.2395 54.0111 93.1861 53.3559 92.9334 52.6917L94.1066 51.4957C94.5582 52.4985 94.6802 53.5082 94.4726 54.5246C94.2577 55.5338 93.7412 56.4554 92.9232 57.2892C92.2271 57.9988 91.4275 58.4847 90.5243 58.7469C89.6209 58.9947 88.708 58.9962 87.7854 58.7515C86.8628 58.5067 86.0285 58.0184 85.2824 57.2865ZM101.27 48.8026C100.574 49.5121 99.7743 49.998 98.8711 50.2603C97.9606 50.5154 97.0404 50.5242 96.1107 50.2868C95.1808 50.0349 94.3428 49.5429 93.5967 48.811C92.8506 48.0791 92.3464 47.2543 92.084 46.3366C91.8214 45.4044 91.8126 44.4843 92.0575 43.5762C92.295 42.6609 92.7618 41.8486 93.4579 41.139C94.1611 40.4222 94.9679 39.9362 95.8785 39.6811C96.7817 39.4188 97.6946 39.4101 98.6171 39.6548C99.5397 39.8996 100.378 40.3915 101.131 41.1306C101.885 41.8697 102.392 42.6981 102.655 43.6158C102.917 44.5335 102.93 45.4499 102.692 46.3652C102.447 47.2733 101.973 48.0857 101.27 48.8026ZM100.403 47.9523C100.927 47.4183 101.273 46.8172 101.44 46.149C101.615 45.4734 101.59 44.7889 101.366 44.0955C101.149 43.3947 100.737 42.7466 100.13 42.151C99.5157 41.5482 98.8597 41.1488 98.1622 40.9526C97.4646 40.7419 96.7834 40.7267 96.1185 40.907C95.4536 41.0873 94.8556 41.4481 94.3247 41.9893C93.7937 42.5306 93.4444 43.1354 93.2769 43.8036C93.1095 44.4718 93.1341 45.1563 93.351 45.8571C93.5677 46.5434 93.9833 47.1879 94.5977 47.7906C95.2048 48.3862 95.8572 48.7893 96.5548 49C97.2596 49.2034 97.9445 49.2149 98.6094 49.0346C99.2814 48.847 99.8794 48.4862 100.403 47.9523ZM106.421 41.774L109.047 39.0968L109.859 39.8933L106.253 43.5689L98.6059 36.0668L99.5853 35.0684L106.421 41.774ZM114.377 35.4411C113.681 36.1506 112.882 36.6365 111.978 36.8988C111.068 37.1539 110.148 37.1627 109.218 36.9253C108.288 36.6734 107.45 36.1815 106.704 35.4495C105.958 34.7176 105.454 33.8928 105.191 32.9751C104.929 32.0429 104.92 31.1228 105.165 30.2147C105.402 29.2995 105.869 28.4871 106.565 27.7776C107.268 27.0607 108.075 26.5747 108.986 26.3196C109.889 26.0574 110.802 26.0486 111.725 26.2934C112.647 26.5381 113.485 27.03 114.238 27.7691C114.992 28.5082 115.5 29.3366 115.762 30.2543C116.025 31.172 116.037 32.0885 115.799 33.0037C115.555 33.9118 115.081 34.7243 114.377 35.4411ZM113.511 34.5908C114.034 34.0568 114.38 33.4557 114.548 32.7875C114.722 32.112 114.697 31.4275 114.473 30.734C114.257 30.0333 113.845 29.3851 113.237 28.7895C112.623 28.1868 111.967 27.7873 111.27 27.5911C110.572 27.3804 109.891 27.3652 109.226 27.5455C108.561 27.7258 107.963 28.0866 107.432 28.6279C106.901 29.1692 106.552 29.7739 106.384 30.4421C106.217 31.1104 106.242 31.7948 106.458 32.4956C106.675 33.1819 107.091 33.8264 107.705 34.4291C108.312 35.0247 108.965 35.4278 109.662 35.6385C110.367 35.8419 111.052 35.8534 111.717 35.6731C112.389 35.4855 112.987 35.1248 113.511 34.5908ZM123.311 26.1807L118.397 24.9345L117.213 26.1414L120.34 29.209L119.361 30.2074L111.713 22.7053L114.135 20.2366C114.702 19.6588 115.278 19.2692 115.863 19.068C116.455 18.8594 117.016 18.8214 117.546 18.954C118.077 19.0866 118.557 19.3645 118.989 19.7879C119.516 20.3045 119.829 20.9138 119.93 21.6157C120.039 22.3102 119.861 23.0256 119.397 23.7619L124.484 24.9847L123.311 26.1807ZM116.412 25.3557L117.855 23.8854C118.386 23.3441 118.652 22.809 118.654 22.28C118.649 21.7439 118.423 21.257 117.977 20.8193C117.524 20.3744 117.04 20.1653 116.526 20.1919C116.019 20.2113 115.496 20.4953 114.958 21.0439L113.516 22.5141L116.412 25.3557Z" fill="#642F4D"/>
<defs>
<linearGradient id="paint0_linear_30_17014" x1="135.564" y1="163.313" x2="46.7737" y2="76.2109" gradientUnits="userSpaceOnUse">
<stop offset="0.02" stop-color="#C289B0"/>
<stop offset="1" stop-color="#FF93AC"/>
</linearGradient>
<linearGradient id="paint1_linear_30_17014" x1="135.382" y1="162.869" x2="46.5923" y2="75.7671" gradientUnits="userSpaceOnUse">
<stop offset="0.02" stop-color="#FFDBE7"/>
<stop offset="1" stop-color="#FFE8DE"/>
</linearGradient>
<linearGradient id="paint2_linear_30_17014" x1="124270" y1="35216.6" x2="124270" y2="23140.3" gradientUnits="userSpaceOnUse">
<stop offset="0.02" stop-color="#C289B0"/>
<stop offset="1" stop-color="#FF93AC"/>
</linearGradient>
<linearGradient id="paint3_linear_30_17014" x1="124299" y1="35146.4" x2="124299" y2="23073.1" gradientUnits="userSpaceOnUse">
<stop offset="0.02" stop-color="#FFDBE7"/>
<stop offset="1" stop-color="#FFE8DE"/>
</linearGradient>
<linearGradient id="paint4_linear_30_17014" x1="117202" y1="36704.4" x2="117202" y2="26921.4" gradientUnits="userSpaceOnUse">
<stop offset="0.02" stop-color="#C289B0"/>
<stop offset="1" stop-color="#FF93AC"/>
</linearGradient>
<linearGradient id="paint5_linear_30_17014" x1="117202" y1="36635.7" x2="117202" y2="26852.5" gradientUnits="userSpaceOnUse">
<stop offset="0.02" stop-color="#FFDBE7"/>
<stop offset="1" stop-color="#FFE8DE"/>
</linearGradient>
<linearGradient id="paint6_linear_30_17014" x1="110558" y1="36501.7" x2="110558" y2="28122.2" gradientUnits="userSpaceOnUse">
<stop offset="0.02" stop-color="#C289B0"/>
<stop offset="1" stop-color="#FF93AC"/>
</linearGradient>
<linearGradient id="paint7_linear_30_17014" x1="93.9626" y1="98.45" x2="55.721" y2="60.9356" gradientUnits="userSpaceOnUse">
<stop offset="0.02" stop-color="#FFE5EE"/>
<stop offset="1" stop-color="#FFE8DE"/>
</linearGradient>
</defs>
</svg>
