<svg width="400" height="477" viewBox="0 0 400 477" fill="none" xmlns="http://www.w3.org/2000/svg">
<g clip-path="url(#clip0_30_17276)">
<path opacity="0.2" d="M109.921 342.359C46.0053 298.734 34.065 153.788 102.897 88.7032C175.593 20.1001 398.595 79.5561 400.351 197.765C401.756 315.973 174.539 386.335 109.921 342.359Z" fill="url(#paint0_linear_30_17276)"/>
<path d="M255.312 428.904C255.312 428.904 274.978 340.248 372.959 340.248C372.959 340.248 367.34 427.497 266.901 431.719L255.312 428.904Z" fill="url(#paint1_radial_30_17276)"/>
<path d="M372.959 340.248L255.312 428.904L270.413 428.552C270.413 428.552 355.399 425.386 372.959 340.248Z" fill="#BDE0FF"/>
<path d="M161.194 454.939C161.194 454.939 63.2133 458.457 0 355.024C0 355.024 87.4451 317.732 184.723 427.145L161.194 454.939Z" fill="url(#paint2_linear_30_17276)"/>
<path d="M8.42822 358.542L164.003 438.755L141.879 448.606C142.23 448.606 53.7311 444.032 8.42822 358.542Z" fill="#BDE0FF"/>
<path d="M157.682 373.318C157.682 373.318 157.331 296.623 92.713 285.717C92.3618 286.069 79.368 360.301 157.682 373.318Z" fill="url(#paint3_radial_30_17276)"/>
<path d="M92.3617 286.069L155.926 368.041C155.926 368.041 91.6593 368.393 92.3617 286.069Z" fill="#BDE0FF"/>
<path d="M236.699 57.3922L286.918 59.8549L285.865 76.39L239.157 74.6309L236.699 57.3922Z" fill="#FF1D9C"/>
<path d="M104.653 155.547L125.373 178.415L133.451 168.916L113.784 147.104L104.653 155.547Z" fill="#6877FF"/>
<path d="M368.042 277.977C368.042 277.625 368.042 277.273 368.042 276.922L380.685 275.866C380.685 267.423 378.226 259.331 373.31 253.35L363.125 259.683C358.209 250.888 349.78 244.203 339.596 241.741L342.054 231.186C333.977 228.372 325.549 228.372 318.525 231.186L320.983 241.741C310.799 244.203 302.37 250.888 297.454 259.683L287.972 253.35C283.055 260.035 280.246 268.126 280.597 275.866L293.239 276.922C293.239 277.273 293.239 277.625 293.239 277.977C293.239 287.828 297.103 296.623 303.073 303.307L292.186 312.454C297.103 319.491 303.775 324.416 311.15 326.527L316.769 312.806C320.983 314.565 325.549 315.269 330.465 315.269C335.382 315.269 339.947 314.214 344.161 312.806L349.78 326.527C357.858 324.064 364.53 319.139 368.744 312.454L358.209 303.307C364.179 296.623 368.042 287.828 368.042 277.977ZM335.733 292.401C333.977 293.105 332.572 293.457 330.465 293.457C328.709 293.457 326.953 293.105 325.197 292.401C323.09 291.698 321.334 290.642 319.578 288.883C316.769 286.42 315.013 282.551 315.013 278.681C315.013 278.329 315.013 278.329 315.013 277.977C315.013 275.514 315.364 273.403 316.418 271.293C318.174 267.423 321.686 264.256 326.251 263.201C327.656 262.849 328.709 262.497 330.114 262.497C331.519 262.497 332.923 262.849 333.977 263.201C338.191 264.256 341.703 267.423 343.81 271.293C344.864 273.403 345.215 275.514 345.215 277.977C345.215 278.329 345.215 278.329 345.215 278.681C344.864 282.551 343.459 286.42 340.65 288.883C339.596 290.29 337.84 291.698 335.733 292.401Z" fill="url(#paint4_linear_30_17276)"/>
<path d="M368.042 267.775C368.042 267.423 368.042 267.071 368.042 266.719L380.685 265.664C380.685 257.221 378.226 249.129 373.31 243.148L363.125 249.481C358.209 240.685 349.78 234.001 339.596 231.538L342.054 220.984C333.977 218.17 325.549 218.17 318.525 220.984L320.983 231.538C310.799 234.001 302.37 240.685 297.454 249.481L287.972 243.148C283.055 249.833 280.246 257.924 280.597 265.664L293.239 266.719C293.239 267.071 293.239 267.423 293.239 267.775C293.239 277.626 297.103 286.421 303.073 293.105L292.186 302.252C297.103 309.289 303.775 314.214 311.15 316.325L316.769 302.604C320.983 304.363 325.549 305.067 330.465 305.067C335.382 305.067 339.947 304.011 344.161 302.604L349.78 316.325C357.858 313.862 364.53 308.937 368.744 302.252L357.858 293.105C364.179 286.421 368.042 277.274 368.042 267.775ZM335.733 281.847C333.977 282.551 332.572 282.903 330.465 282.903C328.709 282.903 326.953 282.551 325.197 281.847C323.09 281.144 321.334 280.088 319.578 278.329C316.769 275.867 315.013 271.997 315.013 268.127C315.013 267.775 315.013 267.775 315.013 267.423C315.013 264.96 315.364 262.85 316.418 260.739C318.174 256.869 321.686 253.702 326.251 252.647C327.656 252.295 328.709 251.943 330.114 251.943C331.519 251.943 332.923 252.295 333.977 252.647C338.191 253.702 341.703 256.869 343.81 260.739C344.864 262.85 345.215 264.96 345.215 267.423C345.215 267.775 345.215 267.775 345.215 268.127C344.864 271.997 343.459 275.867 340.65 278.329C339.596 280.088 337.84 281.144 335.733 281.847Z" fill="url(#paint5_linear_30_17276)"/>
<path d="M310.447 313.51C304.477 311.399 299.209 307.529 295.346 302.252L306.233 292.753L304.828 291.346C298.858 284.661 295.346 276.218 295.346 267.423C295.346 267.071 295.346 267.071 295.346 266.719V264.608L282.353 263.553C282.353 257.22 284.46 251.239 288.323 245.611L298.507 251.943L299.561 250.184C304.126 241.741 312.203 235.408 321.685 232.945L323.441 232.594L320.983 221.687C323.792 220.632 326.953 220.28 330.114 220.28C333.274 220.28 336.786 220.632 339.947 221.687L337.489 232.945L339.245 233.297C348.727 235.76 356.804 241.741 361.369 250.536L362.423 252.295L372.607 245.962C376.119 250.888 378.226 257.22 378.577 263.905L365.583 264.96V267.071C365.583 267.423 365.583 267.423 365.583 267.775C365.583 276.57 362.423 285.365 356.101 291.698L354.697 293.105L365.583 302.604C361.72 307.529 356.453 311.399 350.131 313.862L345.215 299.789L343.459 300.493C339.245 302.252 335.03 302.956 330.465 302.956C325.899 302.956 321.685 302.252 317.471 300.493L316.066 299.789L310.447 313.51ZM330.465 250.536C328.709 250.536 327.304 250.888 325.9 251.239C320.983 252.647 317.12 255.813 315.013 260.387C313.959 262.497 313.257 264.96 313.257 267.775C313.257 268.126 313.257 268.478 313.257 268.83C313.257 273.052 315.364 276.922 318.525 280.088C320.281 281.847 322.388 283.254 324.846 283.958C326.602 284.661 328.709 285.013 330.465 285.013C332.572 285.013 334.328 284.661 336.435 283.958C338.542 283.254 341 281.847 342.756 280.088C345.917 276.922 347.673 273.052 348.024 268.478C348.024 268.478 348.024 268.126 348.024 267.775C348.024 264.96 347.322 262.497 346.268 260.387C344.161 255.813 340.298 252.647 335.382 251.239C333.626 250.536 332.221 250.536 330.465 250.536Z" fill="url(#paint6_linear_30_17276)"/>
<path d="M368.745 302.253V312.455C368.745 312.455 362.072 323.361 349.781 326.528V316.325C349.781 315.973 362.072 311.4 368.745 302.253Z" fill="url(#paint7_linear_30_17276)"/>
<path d="M311.501 315.973V326.176C311.501 326.176 298.858 322.658 292.537 312.103V301.901C292.186 302.253 300.614 313.511 311.501 315.973Z" fill="url(#paint8_linear_30_17276)"/>
<path d="M380.685 265.664V275.866L368.042 276.922V266.719L380.685 265.664Z" fill="url(#paint9_linear_30_17276)"/>
<path d="M341.352 231.89L342.405 230.835V220.632L339.947 231.538L341.352 231.89Z" fill="url(#paint10_linear_30_17276)"/>
<path d="M318.876 220.632V230.835L319.93 231.89L321.334 231.538L318.876 220.632Z" fill="url(#paint11_linear_30_17276)"/>
<path d="M280.597 265.664V275.866L293.239 276.922V266.719L280.597 265.664Z" fill="url(#paint12_linear_30_17276)"/>
<path d="M311.501 326.175V315.973L317.12 302.604V312.806L311.501 326.175Z" fill="url(#paint13_linear_30_17276)"/>
<path d="M344.161 312.806V302.604L349.78 315.973V325.12L344.161 312.806Z" fill="url(#paint14_linear_30_17276)"/>
<path d="M387.709 167.509L366.637 180.526L358.209 164.343L381.387 150.974L387.709 167.509Z" fill="#4F31E0"/>
<path opacity="0.2" d="M197.366 2.86175C173.837 -6.28533 154.522 16.2306 156.629 31.0066C159.087 45.7827 205.795 39.4501 211.414 32.4139C217.384 25.0258 204.039 5.32442 197.366 2.86175Z" fill="url(#paint15_linear_30_17276)"/>
<path d="M299.561 404.981C303.073 394.779 305.531 370.504 299.561 355.728L285.162 375.781C283.757 365.578 280.246 356.079 274.978 347.636L285.865 340.248C282.001 332.156 272.168 321.954 263.389 317.732L256.365 327.935C248.288 321.954 238.454 317.732 228.27 315.621L230.377 304.011C221.949 301.197 207.55 300.845 198.419 304.011L200.526 315.621C189.991 317.732 180.509 321.954 172.432 327.935L165.408 317.732C157.331 321.602 147.146 331.453 142.932 340.248L153.819 347.636C148.551 356.079 145.039 365.578 143.634 375.781L129.236 372.966C126.426 381.41 126.075 395.834 129.236 404.981L144.688 402.167C146.795 412.017 151.009 420.813 156.979 428.552L142.932 438.403C146.795 446.495 156.628 456.697 165.408 460.919L175.592 446.143C183.318 451.42 192.449 454.938 201.931 456.346L198.419 474.64C206.848 477.454 221.246 477.806 230.377 474.64L226.865 456.346C236.347 454.586 245.127 451.068 253.204 446.143L263.389 460.919C271.466 457.049 281.65 447.198 285.865 438.403L271.817 428.552C277.436 420.813 281.65 412.017 284.109 402.167L299.561 404.981ZM239.508 406.037C237.05 408.851 234.24 411.314 231.08 413.425C227.568 415.535 223.705 416.943 219.49 417.646C217.735 417.998 215.979 417.998 214.223 417.998C212.467 417.998 210.711 417.998 208.955 417.646C204.741 416.943 200.878 415.535 197.717 413.425C194.556 411.314 191.747 408.851 189.289 406.037C186.479 402.87 184.372 399 183.318 394.779C182.616 391.964 181.914 388.798 181.914 385.632C181.914 384.576 181.914 383.873 181.914 382.817C182.265 377.892 183.67 373.318 186.128 369.448C188.235 365.578 191.044 362.412 194.556 359.598C198.419 356.783 202.985 354.32 207.901 353.617C210.008 353.265 212.116 352.913 214.574 352.913C216.681 352.913 219.139 353.265 221.246 353.617C226.163 354.672 230.728 356.783 234.591 359.598C238.103 362.412 240.913 365.578 243.02 369.448C245.127 373.318 246.532 377.892 247.234 382.817C247.234 383.521 247.234 384.576 247.234 385.632C247.234 388.798 246.883 391.964 245.829 394.779C244.425 399 242.318 402.87 239.508 406.037Z" fill="#7C006F"/>
<path d="M299.56 387.742C302.019 380.706 302.721 369.8 300.965 361.357C300.614 359.246 300.263 357.487 299.56 355.728L285.162 358.542C283.757 348.34 280.245 338.841 274.977 330.397L285.864 323.009C284.459 320.195 282.352 317.028 279.894 314.214C275.328 308.585 269.007 303.308 263.388 300.493L256.365 310.344C248.287 304.363 238.454 300.142 228.27 298.031L230.377 286.421C221.948 283.606 207.55 283.255 198.419 286.421L200.526 298.031C190.342 300.142 180.508 304.363 172.431 310.344L165.408 300.142C157.33 304.011 147.146 313.862 142.932 322.657L153.818 330.045C148.551 338.489 145.039 347.988 143.634 358.19L129.235 355.376C128.182 358.894 127.128 363.467 127.128 368.041C126.777 374.725 127.48 381.762 129.235 387.391L144.688 384.576C146.795 394.427 151.009 403.222 156.979 410.962L142.932 420.813C144.688 424.331 147.497 428.552 151.009 432.071C155.223 436.644 160.491 440.866 165.408 443.329L175.592 428.552C183.318 433.83 192.449 437.348 201.931 438.755L198.419 457.049C206.847 459.864 221.246 460.215 230.377 457.049L226.865 438.755C233.186 437.7 239.156 435.94 244.424 433.126C247.234 431.719 250.394 430.311 252.853 428.201L263.037 442.977C271.114 439.107 281.299 429.256 285.513 420.461L271.465 410.61C277.084 402.87 281.299 394.075 283.757 384.224L299.56 387.742ZM239.508 388.798C237.049 391.612 234.24 394.075 231.079 396.186C227.567 398.297 223.704 399.704 219.841 400.408C218.085 400.759 216.329 400.759 214.573 400.759C212.818 400.759 211.062 400.759 209.306 400.408C205.443 399.704 201.931 398.649 198.77 396.889C198.419 396.889 198.068 396.538 198.068 396.538C194.907 394.427 192.098 391.964 189.639 389.15C186.83 385.983 184.723 382.113 183.669 377.892C183.669 377.54 183.669 377.54 183.318 377.188C182.616 374.374 182.264 371.559 182.264 368.745C182.264 368.041 182.264 366.986 182.264 365.93C182.616 361.005 184.02 356.431 186.479 352.561C187.883 350.099 189.639 347.636 191.746 345.525C192.8 344.47 193.854 343.414 194.907 342.711C198.77 339.896 203.336 337.433 208.252 336.73C210.359 336.378 212.466 336.026 214.925 336.026C215.978 336.026 217.032 336.026 218.436 336.026C219.49 336.026 220.544 336.378 221.597 336.378C226.514 337.433 231.079 339.544 234.942 342.359C238.454 345.173 241.264 348.34 243.371 352.21C245.478 356.079 246.882 360.653 247.585 365.578C247.585 366.282 247.585 367.337 247.585 368.393C247.585 371.559 247.234 374.725 246.18 377.54C245.829 378.595 245.478 379.651 245.127 380.706C243.371 383.521 241.615 386.335 239.508 388.798Z" fill="url(#paint16_linear_30_17276)"/>
<path d="M198.419 396.538L156.979 410.962C151.36 403.223 147.146 394.427 144.688 384.577L129.235 387.391C127.48 382.114 126.777 374.726 127.128 368.042L191.395 344.822C189.288 346.933 187.532 349.044 186.127 351.858C184.02 355.728 182.616 360.302 181.913 365.227C181.913 365.931 181.913 366.986 181.913 368.042C181.913 370.856 182.264 373.67 182.967 376.485C182.967 376.837 182.967 376.837 183.318 377.189C184.723 381.41 186.479 385.28 189.288 388.447C191.746 391.261 194.556 393.724 197.717 395.835C198.068 396.186 198.419 396.538 198.419 396.538Z" fill="white"/>
<path d="M245.478 377.54C246.181 374.725 246.883 371.559 246.883 368.393C246.883 367.689 246.883 366.634 246.883 365.578C246.532 360.653 245.127 356.079 242.669 352.209C240.562 348.34 237.752 345.173 234.241 342.359C230.378 339.544 225.812 337.082 220.896 336.378C219.842 336.026 218.788 336.026 217.735 336.026L279.895 313.862C282.353 317.028 284.46 319.843 285.865 322.657L274.978 330.045C280.246 338.489 283.758 347.988 285.162 358.19L299.561 355.376C300.263 357.135 300.615 358.894 300.966 361.005L244.425 380.706C244.776 379.651 245.127 378.595 245.478 377.54Z" fill="white"/>
<path d="M214.574 455.29C210.359 455.29 206.496 454.939 202.985 454.235L206.496 435.589L202.633 434.885C193.854 433.478 185.425 429.96 178.05 425.035L174.89 422.924L164.705 438.052C161.194 435.941 157.682 432.775 154.521 429.256C152.414 426.794 150.307 424.331 148.551 421.868L162.949 412.018L160.491 408.851C154.872 401.463 151.009 393.02 148.902 383.873L148.2 380.355L132.396 383.169C130.992 376.485 130.992 367.338 132.396 360.301L147.146 363.116L147.848 358.894C149.253 349.395 152.414 340.6 157.682 332.157L159.789 328.99L148.551 321.251C152.414 315.27 158.735 308.937 164.705 305.067L172.08 315.622L175.241 313.159C182.967 307.178 192.098 303.308 201.931 301.549L205.794 300.846L202.985 289.236C206.145 288.532 210.008 288.18 214.222 288.18C218.437 288.18 222.3 288.532 225.812 289.236L223.704 301.197L227.568 301.901C237.401 303.66 246.18 307.882 254.258 313.511L257.418 315.973L264.793 305.419C270.763 309.289 277.085 315.622 280.948 321.602L269.71 329.342L271.817 332.508C277.085 340.6 280.245 349.747 281.65 359.246L282.352 363.468L297.102 360.653C298.507 367.338 298.507 376.485 297.102 383.521L281.299 380.707L280.597 384.576C278.489 393.724 274.626 401.815 269.007 409.555L266.549 412.721L280.948 422.572C277.436 428.553 270.763 434.885 264.793 438.755L254.609 423.627L251.448 425.738C248.99 427.497 246.18 428.905 243.371 430.312C238.103 432.775 232.484 434.534 226.865 435.589L223.002 436.293L226.514 454.939C222.651 454.939 218.788 455.29 214.574 455.29ZM214.574 331.805C212.115 331.805 209.657 332.157 207.199 332.508C201.931 333.564 196.663 336.027 192.098 339.545C188.235 342.359 185.074 346.229 182.616 350.451C180.158 355.024 178.402 360.301 178.05 365.579C178.05 366.634 178.05 367.69 178.05 368.393C178.05 371.559 178.402 374.726 179.455 377.892C179.455 378.244 179.806 378.596 179.806 378.947C181.211 383.521 183.318 387.743 186.479 391.613C189.288 394.779 192.449 397.593 195.961 399.704C200.175 402.167 204.389 403.574 208.955 404.278C210.711 404.63 212.818 404.63 214.925 404.63C217.032 404.63 219.139 404.278 220.895 403.926C225.46 403.222 229.675 401.463 233.538 399.353C237.05 397.242 240.21 394.427 243.02 391.261C246.18 387.391 248.287 383.169 249.692 378.596C250.746 375.078 251.097 371.911 251.097 368.393C251.097 367.338 251.097 366.282 251.097 365.227C250.746 359.95 248.99 354.673 246.532 350.451C244.073 346.229 240.913 342.359 237.05 339.545C232.835 336.027 227.568 333.916 222.3 332.508C219.49 332.157 217.032 331.805 214.574 331.805Z" fill="url(#paint17_linear_30_17276)"/>
<path d="M285.864 322.657V339.896L282.001 342.711L274.978 330.045L285.864 322.657Z" fill="#7C006F"/>
<path d="M285.865 438.051V420.812C285.865 420.812 275.68 436.996 263.389 443.328V460.567C263.389 460.567 280.948 452.124 285.865 438.051Z" fill="#981382"/>
<path d="M142.932 438.051V420.812C142.932 420.812 149.605 434.885 165.408 443.328V460.567C165.408 460.567 153.468 456.345 142.932 438.051Z" fill="#7C006F"/>
<path d="M129.236 404.981V387.742C129.236 387.742 124.67 371.911 129.236 355.727C129.236 355.727 118.7 379.299 129.236 404.981Z" fill="#7C006F"/>
<path d="M142.932 339.896V322.657L153.819 330.045L146.795 342.711L142.932 339.896Z" fill="#7C006F"/>
<path d="M198.419 295.568V286.421L200.527 298.031H198.771L198.419 295.568Z" fill="url(#paint18_linear_30_17276)"/>
<path d="M230.377 286.421V295.568L230.026 298.383L228.27 298.031L230.377 286.421Z" fill="url(#paint19_linear_30_17276)"/>
<path opacity="0.62" d="M263.388 460.567V443.329L253.204 428.553V445.791L263.388 460.567Z" fill="url(#paint20_linear_30_17276)"/>
<path opacity="0.62" d="M284.108 402.167V384.576L299.561 387.742V404.981L284.108 402.167Z" fill="url(#paint21_linear_30_17276)"/>
<path opacity="0.62" d="M175.592 445.791V428.553L165.408 443.329V460.567L175.592 445.791Z" fill="url(#paint22_linear_30_17276)"/>
<path opacity="0.62" d="M144.688 402.167L145.039 384.576L129.235 387.742V404.981L144.688 402.167Z" fill="url(#paint23_linear_30_17276)"/>
<path opacity="0.86" d="M226.865 438.755L230.377 457.049C219.139 462.326 202.634 458.104 198.419 457.049L201.931 438.755C192.449 436.995 183.67 433.477 175.592 428.552L165.408 443.328C160.491 440.865 155.224 436.995 151.009 432.07L182.967 376.836C182.967 377.188 182.967 377.188 183.318 377.539C184.723 381.761 186.479 385.631 189.288 388.797C191.747 391.612 194.556 394.075 197.717 396.185C201.229 398.296 205.092 399.704 208.955 400.407C210.711 400.759 212.467 400.759 214.223 400.759C215.979 400.759 217.734 400.759 219.49 400.407C223.705 399.704 227.568 398.296 230.728 396.185C233.889 394.075 236.698 391.612 239.157 388.797L244.073 433.126C239.157 435.94 233.187 437.699 226.865 438.755Z" fill="#C99AC7"/>
<path d="M230.377 457.049V474.288C230.377 474.288 218.788 479.917 198.419 474.288V457.049C198.419 457.049 210.711 460.568 230.377 457.049Z" fill="#7C006F"/>
<path d="M289.728 188.266C290.781 156.603 272.871 131.624 272.871 131.624L261.984 130.217L259.175 176.304C248.288 187.914 234.943 189.321 234.943 189.321C234.943 189.321 222.3 184.396 214.574 170.675L223.354 125.643L212.467 124.236C212.467 124.236 188.938 143.586 182.265 174.897C182.265 174.897 180.509 185.451 180.86 186.507C181.563 192.487 187.533 202.338 204.741 211.837L193.152 357.838C183.319 363.116 175.944 372.966 174.539 384.928C172.081 404.277 185.777 422.22 205.443 424.682C224.759 427.145 242.669 413.425 245.127 393.723C246.532 381.762 241.967 370.504 233.538 362.764L258.472 218.521C277.085 213.596 285.514 205.856 287.972 199.875C288.674 198.468 289.728 188.266 289.728 188.266ZM217.735 407.092L198.069 404.629L190.342 386.335L202.283 370.504L221.949 372.966L229.675 391.26L217.735 407.092Z" fill="url(#paint24_linear_30_17276)"/>
<path d="M287.972 199.875C289.026 168.212 271.115 143.233 271.115 143.233L260.228 141.826L257.419 187.913C246.532 199.523 233.187 200.93 233.187 200.93C233.187 200.93 220.544 196.005 212.818 182.284L221.598 137.253L210.711 135.845C210.711 135.845 187.182 155.195 180.509 186.506C180.509 186.506 182.616 212.188 202.985 223.446L191.396 369.448C181.563 374.725 174.188 384.576 172.783 396.537C170.325 415.887 184.021 433.829 203.688 436.292C223.003 438.755 240.913 425.034 243.371 405.332C244.776 393.371 240.211 382.113 231.782 374.373L256.717 230.131C279.895 224.15 287.972 199.875 287.972 199.875ZM216.33 418.701L196.664 416.239L188.938 397.944L200.878 382.113L220.544 384.576L228.271 402.87L216.33 418.701Z" fill="url(#paint25_linear_30_17276)"/>
<path d="M212.99 124.206L211.543 135.725L222.345 137.086L223.792 125.567L212.99 124.206Z" fill="#E5E2FF"/>
<path d="M262.245 130.512L260.799 142.031L271.601 143.392L273.047 131.873L262.245 130.512Z" fill="#E5E2FF"/>
<path d="M198.114 404.68L196.668 416.199L216.181 418.658L217.627 407.139L198.114 404.68Z" fill="#E5E2FF"/>
<path d="M211.063 238.926L201.23 357.487C213.17 365.578 225.462 360.653 225.462 360.653L246.533 243.5C229.676 232.242 211.063 238.926 211.063 238.926ZM221.248 359.246C219.14 359.598 215.98 359.949 212.819 359.246C210.01 358.894 207.551 358.19 205.093 357.135L213.521 240.334C217.033 239.63 222.652 239.278 229.325 239.982C234.241 240.685 238.807 241.741 243.021 243.852L221.248 359.246Z" fill="url(#paint26_linear_30_17276)"/>
<path d="M221.247 359.246L225.11 360.653C225.11 360.653 213.872 366.634 200.878 357.487L205.093 357.135C205.444 357.135 212.468 360.653 221.247 359.246Z" fill="#E5E2FF"/>
<path opacity="0.62" d="M211.062 238.926L213.872 240.334C213.872 240.334 226.866 237.167 243.372 243.852L246.532 243.5C246.532 243.5 241.264 238.575 229.324 237.167C217.384 235.76 211.062 238.926 211.062 238.926Z" fill="url(#paint27_linear_30_17276)"/>
<path opacity="0.62" d="M203.688 223.095C203.688 223.095 228.622 233.298 257.068 229.78L253.907 248.074C253.907 248.074 251.449 236.816 232.485 233.65C210.36 229.78 202.634 244.556 202.634 244.556L203.688 223.095Z" fill="url(#paint28_linear_30_17276)"/>
<path opacity="0.5" d="M253.907 248.425C251.449 242.796 246.883 239.63 246.883 239.63L223.354 376.484L232.134 374.373L253.907 248.425Z" fill="url(#paint29_linear_30_17276)"/>
<path d="M253.907 248.425C253.907 248.425 240.211 260.035 249.342 275.514L253.907 248.425Z" fill="white"/>
</g>
<defs>
<linearGradient id="paint0_linear_30_17276" x1="56.376" y1="207.6" x2="400.358" y2="207.6" gradientUnits="userSpaceOnUse">
<stop stop-color="#6A11CB"/>
<stop offset="1" stop-color="#2575FC"/>
</linearGradient>
<radialGradient id="paint1_radial_30_17276" cx="0" cy="0" r="1" gradientUnits="userSpaceOnUse" gradientTransform="translate(325.91 341.341) rotate(10.3705) scale(76.3786 76.5058)">
<stop stop-color="#3996F7"/>
<stop offset="1" stop-color="#6840D5"/>
</radialGradient>
<linearGradient id="paint2_linear_30_17276" x1="136.888" y1="468.902" x2="53.8037" y2="324.209" gradientUnits="userSpaceOnUse">
<stop stop-color="#1C257B"/>
<stop offset="1" stop-color="#6A2C9A"/>
</linearGradient>
<radialGradient id="paint3_radial_30_17276" cx="0" cy="0" r="1" gradientUnits="userSpaceOnUse" gradientTransform="translate(124.514 307.262) rotate(39.1732) scale(41.1665 41.1814)">
<stop stop-color="#3996F7"/>
<stop offset="1" stop-color="#6840D5"/>
</radialGradient>
<linearGradient id="paint4_linear_30_17276" x1="280.509" y1="277.611" x2="380.645" y2="277.611" gradientUnits="userSpaceOnUse">
<stop stop-color="#3D2C97"/>
<stop offset="1" stop-color="#183683"/>
</linearGradient>
<linearGradient id="paint5_linear_30_17276" x1="330.563" y1="316.059" x2="330.563" y2="218.638" gradientUnits="userSpaceOnUse">
<stop stop-color="#7459F1"/>
<stop offset="1" stop-color="#60B3F7"/>
</linearGradient>
<linearGradient id="paint6_linear_30_17276" x1="330.555" y1="313.634" x2="330.555" y2="220.621" gradientUnits="userSpaceOnUse">
<stop stop-color="#744FD8"/>
<stop offset="1" stop-color="#3996F7"/>
</linearGradient>
<linearGradient id="paint7_linear_30_17276" x1="349.722" y1="314.239" x2="368.837" y2="314.239" gradientUnits="userSpaceOnUse">
<stop stop-color="#3D2C97"/>
<stop offset="1" stop-color="#183683"/>
</linearGradient>
<linearGradient id="paint8_linear_30_17276" x1="292.354" y1="314.239" x2="311.468" y2="314.239" gradientUnits="userSpaceOnUse">
<stop stop-color="#3D2C97"/>
<stop offset="1" stop-color="#183683"/>
</linearGradient>
<linearGradient id="paint9_linear_30_17276" x1="367.908" y1="271.342" x2="380.64" y2="271.342" gradientUnits="userSpaceOnUse">
<stop stop-color="#3D2C97"/>
<stop offset="1" stop-color="#183683"/>
</linearGradient>
<linearGradient id="paint10_linear_30_17276" x1="339.793" y1="226.265" x2="342.395" y2="226.265" gradientUnits="userSpaceOnUse">
<stop stop-color="#3D2C97"/>
<stop offset="1" stop-color="#183683"/>
</linearGradient>
<linearGradient id="paint11_linear_30_17276" x1="318.773" y1="226.265" x2="321.362" y2="226.265" gradientUnits="userSpaceOnUse">
<stop stop-color="#3D2C97"/>
<stop offset="1" stop-color="#183683"/>
</linearGradient>
<linearGradient id="paint12_linear_30_17276" x1="286.905" y1="276.966" x2="286.905" y2="265.719" gradientUnits="userSpaceOnUse">
<stop stop-color="#3D2C97"/>
<stop offset="1" stop-color="#183683"/>
</linearGradient>
<linearGradient id="paint13_linear_30_17276" x1="314.25" y1="326.322" x2="314.25" y2="302.49" gradientUnits="userSpaceOnUse">
<stop stop-color="#8B8BE0"/>
<stop offset="1" stop-color="#A177B7"/>
</linearGradient>
<linearGradient id="paint14_linear_30_17276" x1="346.933" y1="325.277" x2="346.933" y2="302.49" gradientUnits="userSpaceOnUse">
<stop stop-color="#8B8BE0"/>
<stop offset="1" stop-color="#A177B7"/>
</linearGradient>
<linearGradient id="paint15_linear_30_17276" x1="156.471" y1="20.3661" x2="212.913" y2="20.3661" gradientUnits="userSpaceOnUse">
<stop stop-color="#6A11CB"/>
<stop offset="1" stop-color="#2575FC"/>
</linearGradient>
<linearGradient id="paint16_linear_30_17276" x1="214.473" y1="459.271" x2="214.473" y2="283.959" gradientUnits="userSpaceOnUse">
<stop stop-color="#971A8F"/>
<stop offset="0.4678" stop-color="#EF22AC"/>
<stop offset="1" stop-color="#FE4CCE"/>
</linearGradient>
<linearGradient id="paint17_linear_30_17276" x1="214.476" y1="455.304" x2="214.476" y2="287.926" gradientUnits="userSpaceOnUse">
<stop stop-color="#B31A8F"/>
<stop offset="1" stop-color="#FE117E"/>
</linearGradient>
<linearGradient id="paint18_linear_30_17276" x1="199.593" y1="297.929" x2="199.593" y2="286.299" gradientUnits="userSpaceOnUse">
<stop stop-color="#3D2CB0"/>
<stop offset="1" stop-color="#0355C7"/>
</linearGradient>
<linearGradient id="paint19_linear_30_17276" x1="229.325" y1="298.277" x2="229.325" y2="286.299" gradientUnits="userSpaceOnUse">
<stop stop-color="#3D2CB0"/>
<stop offset="1" stop-color="#0355C7"/>
</linearGradient>
<linearGradient id="paint20_linear_30_17276" x1="258.333" y1="460.598" x2="258.333" y2="428.434" gradientUnits="userSpaceOnUse">
<stop stop-color="#8B8BE0"/>
<stop offset="1" stop-color="#A177B7"/>
</linearGradient>
<linearGradient id="paint21_linear_30_17276" x1="291.836" y1="404.946" x2="291.836" y2="384.685" gradientUnits="userSpaceOnUse">
<stop stop-color="#8B8BE0"/>
<stop offset="1" stop-color="#A177B7"/>
</linearGradient>
<linearGradient id="paint22_linear_30_17276" x1="170.582" y1="460.598" x2="170.582" y2="428.395" gradientUnits="userSpaceOnUse">
<stop stop-color="#8B8BE0"/>
<stop offset="1" stop-color="#A177B7"/>
</linearGradient>
<linearGradient id="paint23_linear_30_17276" x1="137.059" y1="404.946" x2="137.059" y2="384.685" gradientUnits="userSpaceOnUse">
<stop stop-color="#8B8BE0"/>
<stop offset="1" stop-color="#A177B7"/>
</linearGradient>
<linearGradient id="paint24_linear_30_17276" x1="205.701" y1="424.215" x2="243.029" y2="127.978" gradientUnits="userSpaceOnUse">
<stop stop-color="#DBCCFF"/>
<stop offset="1" stop-color="#D1BBFF"/>
</linearGradient>
<linearGradient id="paint25_linear_30_17276" x1="204.233" y1="435.77" x2="241.56" y2="139.533" gradientUnits="userSpaceOnUse">
<stop stop-color="#B5A6E7"/>
<stop offset="1" stop-color="#7760BF"/>
</linearGradient>
<linearGradient id="paint26_linear_30_17276" x1="213.483" y1="362.118" x2="229.217" y2="237.249" gradientUnits="userSpaceOnUse">
<stop stop-color="#B5A6E7"/>
<stop offset="1" stop-color="#7760BF"/>
</linearGradient>
<linearGradient id="paint27_linear_30_17276" x1="211.157" y1="237.513" x2="246.539" y2="241.955" gradientUnits="userSpaceOnUse">
<stop stop-color="#8B8BE0"/>
<stop offset="1" stop-color="#A177B7"/>
</linearGradient>
<linearGradient id="paint28_linear_30_17276" x1="227.814" y1="247.97" x2="230.517" y2="226.517" gradientUnits="userSpaceOnUse">
<stop stop-color="white"/>
<stop offset="1" stop-color="#A177B7"/>
</linearGradient>
<linearGradient id="paint29_linear_30_17276" x1="230.596" y1="377.223" x2="247.941" y2="239.565" gradientUnits="userSpaceOnUse">
<stop/>
<stop offset="1" stop-color="white"/>
</linearGradient>
<clipPath id="clip0_30_17276">
<rect width="400" height="476" fill="white" transform="translate(0 0.750488)"/>
</clipPath>
</defs>
</svg>
