<svg width="85" height="103" viewBox="0 0 85 103" fill="none" xmlns="http://www.w3.org/2000/svg">
<path d="M75.6637 47.3608C75.0533 48.5245 74.4341 49.5973 73.8088 50.5689C66.4096 62.1679 58.2388 61.2504 48.4464 81.2442L24.2585 74.763C25.8113 52.0859 17.9182 49.1415 17.6053 34.6244C17.5891 33.7353 17.5971 32.7973 17.6396 31.8133C18.3536 14.7843 41.0807 5.66654 54.7534 9.33015C68.4262 12.9938 83.5495 32.2535 75.6637 47.3608Z" fill="url(#paint0_radial_30_17066)"/>
<g style="mix-blend-mode:multiply" opacity="0.8">
<path style="mix-blend-mode:multiply" opacity="0.8" d="M54.6843 9.58813C62.9396 11.8001 71.4221 19.603 75.3444 28.4512C77.4032 33.1504 79.0931 40.217 75.4113 47.2711C71.8902 54.0142 68.1806 57.1678 64.2528 60.5172C59.5099 64.5551 54.1258 69.129 48.2981 80.9722L24.5642 74.6127C25.4285 61.4396 23.063 54.7892 20.9643 48.918C19.2429 44.0328 17.6015 39.4676 17.9238 31.8673C18.2615 23.9615 23.2583 18.6865 27.402 15.6051C35.2236 9.85938 46.46 7.38444 54.7153 9.59643L54.6843 9.58813ZM54.7534 9.33015C41.0807 5.66654 18.3564 14.774 17.6396 31.8133C16.9228 48.8526 25.8584 50.6718 24.2585 74.763L48.4464 81.2442C59.0652 59.5695 67.7676 62.4654 75.6637 47.3608C83.5599 32.2562 68.4365 12.9965 54.7534 9.33015Z" fill="url(#paint1_radial_30_17066)"/>
</g>
<path style="mix-blend-mode:multiply" opacity="0.8" fill-rule="evenodd" clip-rule="evenodd" d="M50.5303 45.7696C50.5303 45.7696 48.7842 55.7535 42.4391 55.9888C37.0617 52.6124 40.5414 43.0931 40.5414 43.0931L39.0311 43.529C38.3797 54.2153 33.3566 75.0667 33.3566 75.0667L40.7657 77.052C40.7657 77.052 46.8413 56.4826 51.6204 46.9023L50.5303 45.7696Z" fill="url(#paint2_linear_30_17066)"/>
<path style="mix-blend-mode:multiply" opacity="0.8" fill-rule="evenodd" clip-rule="evenodd" d="M24.4585 69.3092C24.6996 72.537 44.4472 79.244 50.5074 77.3065L49.2019 79.7438L24.3559 73.4071L24.4585 69.3092Z" fill="url(#paint3_linear_30_17066)"/>
<path style="mix-blend-mode:screen" d="M56.6434 43.4702C64.2232 45.5012 72.0142 41.003 74.0452 33.4232C76.0762 25.8435 71.578 18.0524 63.9983 16.0214C56.4185 13.9904 48.6275 18.4886 46.5965 26.0684C44.5655 33.6481 49.0637 41.4392 56.6434 43.4702Z" fill="url(#paint4_radial_30_17066)"/>
<path style="mix-blend-mode:screen" d="M26.4476 50.4909C30.2581 50.0075 32.6006 43.7319 31.6799 36.4739C30.7591 29.216 26.9237 23.7241 23.1133 24.2075C19.3028 24.6909 16.9603 30.9665 17.881 38.2245C18.8018 45.4824 22.6372 50.9743 26.4476 50.4909Z" fill="url(#paint5_radial_30_17066)"/>
<path style="mix-blend-mode:multiply" opacity="0.3" d="M73.809 50.5691C66.4098 62.1681 58.239 61.2506 48.4466 81.2444L24.2587 74.7633C25.8115 52.0862 17.9184 49.1417 17.6055 34.6246C19.581 45.6609 29.3271 52.2982 47.0306 56.3561C64.7341 60.4141 73.809 50.5691 73.809 50.5691Z" fill="url(#paint6_linear_30_17066)"/>
<path fill-rule="evenodd" clip-rule="evenodd" d="M21.9649 73.2086L19.2237 90.7451C19.2237 90.7451 28.2997 90.8434 44.3609 97.4806L51.0162 81.8887C51.0162 81.8887 40.0194 74.4297 21.9649 73.2086Z" fill="url(#paint7_radial_30_17066)"/>
<path fill-rule="evenodd" clip-rule="evenodd" d="M19.5695 88.6698L17.8316 85.9922C17.8316 85.9922 33.8341 81.9519 50.4479 88.0957L47.2018 90.9642C47.2018 90.9642 33.9094 83.4873 19.5695 88.6698Z" fill="url(#paint8_radial_30_17066)"/>
<path fill-rule="evenodd" clip-rule="evenodd" d="M20.5999 82.1003L19.3385 80.3688C19.3385 80.3688 33.531 74.085 53.5095 81.0862L50.1465 83.9786C45.6018 81.692 40.6421 80.347 35.5649 80.0243C30.4876 79.7015 25.3975 80.4077 20.5999 82.1003Z" fill="url(#paint9_radial_30_17066)"/>
<path fill-rule="evenodd" clip-rule="evenodd" d="M19.3382 80.369L21.0816 79.0223C21.0816 79.0223 39.5562 74.2177 53.5121 81.0761C42.5369 76.939 30.4751 76.6895 19.3382 80.369Z" fill="url(#paint10_linear_30_17066)"/>
<path fill-rule="evenodd" clip-rule="evenodd" d="M17.8425 85.9511L20.2517 84.3072C29.8617 83.1077 39.6181 84.0524 48.8194 87.0734L50.4168 88.0876C50.4168 88.0876 34.9222 82.2658 17.8425 85.9511Z" fill="url(#paint11_linear_30_17066)"/>
<g style="mix-blend-mode:multiply" opacity="0.3">
<path d="M17.8427 85.9512L19.5806 88.6289L19.4267 90.0697C19.4267 90.0697 24.6756 85.8355 34.2426 87.4036C43.8095 88.9717 46.0757 93.5162 46.0757 93.5162L47.1709 90.9562L50.417 88.0877C50.417 88.0877 33.0524 82.5169 17.8427 85.9512Z" fill="#614881"/>
</g>
<g style="mix-blend-mode:multiply" opacity="0.3">
<path d="M19.3385 80.3686L20.5999 82.1001L20.2518 84.3073C20.2518 84.3073 24.808 79.1908 35.4145 80.4291C46.021 81.6674 49.2266 86.1319 49.2266 86.1319L50.1465 83.9783L53.5095 81.0859C42.5316 76.971 30.4795 76.7179 19.3385 80.3686Z" fill="#614881"/>
</g>
<defs>
<radialGradient id="paint0_radial_30_17066" cx="0" cy="0" r="1" gradientUnits="userSpaceOnUse" gradientTransform="translate(53.2409 28.4724) rotate(15) scale(38.5018 54.2876)">
<stop offset="0.25" stop-color="#FFFEAE"/>
<stop offset="0.29" stop-color="#FFF9A8"/>
<stop offset="0.48" stop-color="#FFE795"/>
<stop offset="0.68" stop-color="#FFDD89"/>
<stop offset="0.87" stop-color="#FFD985"/>
<stop offset="0.89" stop-color="#FFD385"/>
<stop offset="0.94" stop-color="#FFC884"/>
<stop offset="1" stop-color="#FFC584"/>
</radialGradient>
<radialGradient id="paint1_radial_30_17066" cx="0" cy="0" r="1" gradientUnits="userSpaceOnUse" gradientTransform="translate(45.5543 43.6617) rotate(15) scale(33.1176 33.1176)">
<stop offset="0.06" stop-color="white"/>
<stop offset="0.15" stop-color="#FEFBFD"/>
<stop offset="0.99" stop-color="#FFBEDE"/>
</radialGradient>
<linearGradient id="paint2_linear_30_17066" x1="37.0612" y1="76.0594" x2="45.5359" y2="44.4314" gradientUnits="userSpaceOnUse">
<stop offset="0.01" stop-color="#D486C2"/>
<stop offset="0.94" stop-color="#FFDDD1"/>
</linearGradient>
<linearGradient id="paint3_linear_30_17066" x1="17897.7" y1="5546.84" x2="17901.6" y2="5532.48" gradientUnits="userSpaceOnUse">
<stop offset="0.01" stop-color="#D486C2"/>
<stop offset="0.94" stop-color="#FFDDD1"/>
</linearGradient>
<radialGradient id="paint4_radial_30_17066" cx="0" cy="0" r="1" gradientUnits="userSpaceOnUse" gradientTransform="translate(60.3209 29.7458) rotate(15) scale(14.2085 14.2085)">
<stop offset="0.01" stop-color="#FFFFA9"/>
<stop offset="0.09" stop-color="#E0E095"/>
<stop offset="0.28" stop-color="#9D9D68"/>
<stop offset="0.46" stop-color="#656543"/>
<stop offset="0.62" stop-color="#393926"/>
<stop offset="0.77" stop-color="#1A1A11"/>
<stop offset="0.9" stop-color="#070705"/>
<stop offset="0.99"/>
</radialGradient>
<radialGradient id="paint5_radial_30_17066" cx="0" cy="0" r="1" gradientUnits="userSpaceOnUse" gradientTransform="translate(8782.21 7146.43) rotate(-7.23) scale(91.4126 328.527)">
<stop offset="0.01" stop-color="#FFFFA9"/>
<stop offset="0.09" stop-color="#E0E095"/>
<stop offset="0.28" stop-color="#9D9D68"/>
<stop offset="0.46" stop-color="#656543"/>
<stop offset="0.62" stop-color="#393926"/>
<stop offset="0.77" stop-color="#1A1A11"/>
<stop offset="0.9" stop-color="#070705"/>
<stop offset="0.99"/>
</radialGradient>
<linearGradient id="paint6_linear_30_17066" x1="36.2288" y1="77.9706" x2="45.8178" y2="42.1841" gradientUnits="userSpaceOnUse">
<stop offset="0.01" stop-color="#D486C2"/>
<stop offset="0.94" stop-color="white"/>
</linearGradient>
<radialGradient id="paint7_radial_30_17066" cx="0" cy="0" r="1" gradientUnits="userSpaceOnUse" gradientTransform="translate(35.6409 77.5619) rotate(15) scale(12.6488 14.9256)">
<stop stop-color="#B3B0D3"/>
<stop offset="0.46" stop-color="#B1AED1"/>
<stop offset="0.69" stop-color="#ACA6CB"/>
<stop offset="0.87" stop-color="#A399C1"/>
<stop offset="0.98" stop-color="#998CB6"/>
</radialGradient>
<radialGradient id="paint8_radial_30_17066" cx="0" cy="0" r="1" gradientUnits="userSpaceOnUse" gradientTransform="translate(33.8401 88.0798) rotate(15) scale(11.7407 21.8377)">
<stop stop-color="#9490C1"/>
<stop offset="0.45" stop-color="#938EBF"/>
<stop offset="0.68" stop-color="#8D86B9"/>
<stop offset="0.85" stop-color="#8579AE"/>
<stop offset="0.98" stop-color="#7A69A0"/>
</radialGradient>
<radialGradient id="paint9_radial_30_17066" cx="0" cy="0" r="1" gradientUnits="userSpaceOnUse" gradientTransform="translate(21248.4 8943.06) rotate(15) scale(379.721 205.827)">
<stop stop-color="#9490C1"/>
<stop offset="0.45" stop-color="#938EBF"/>
<stop offset="0.68" stop-color="#8D86B9"/>
<stop offset="0.85" stop-color="#8579AE"/>
<stop offset="0.98" stop-color="#7A69A0"/>
</radialGradient>
<linearGradient id="paint10_linear_30_17066" x1="35.3638" y1="84.663" x2="37.6283" y2="76.2117" gradientUnits="userSpaceOnUse">
<stop offset="0.02" stop-color="#B1ACC7"/>
<stop offset="1" stop-color="#CCCAE2"/>
</linearGradient>
<linearGradient id="paint11_linear_30_17066" x1="20918.3" y1="6988.19" x2="20930.3" y2="6943.48" gradientUnits="userSpaceOnUse">
<stop offset="0.02" stop-color="#B1ACC7"/>
<stop offset="1" stop-color="#CCCAE2"/>
</linearGradient>
</defs>
</svg>
