<svg width="400" height="390" viewBox="0 0 400 390" fill="none" xmlns="http://www.w3.org/2000/svg">
<path opacity="0.2" d="M309.491 290.525C252.999 354.306 205.315 358.254 168.565 310.57C117.844 244.663 24.9052 277.161 18.2233 194.549C11.5415 111.937 166.439 -15.6258 269.097 2.59746C371.754 20.8207 413.971 172.681 309.491 290.525Z" fill="url(#paint0_linear_30_17420)"/>
<path d="M75.0187 272.3C49.2024 255.292 19.7415 277.16 18.5266 295.687C17.3117 314.214 75.3224 319.073 84.434 311.784C93.2419 304.494 82.3079 277.16 75.0187 272.3Z" fill="#E1F3FF"/>
<path d="M256.644 48.4589L290.053 67.897L282.764 79.4384L251.481 58.4817L256.644 48.4589Z" fill="#FF1D9C"/>
<path d="M0 160.228L32.8018 134.411L41.0023 145.649L10.6302 169.339L0 160.228Z" fill="#A74AFF"/>
<path d="M128.778 71.8445L126.652 96.7496L118.755 95.8385L120.577 73.0594L128.778 71.8445Z" fill="#4F31E0"/>
<path d="M376.006 165.695L393.015 184.525L400 176.932L383.599 159.013L376.006 165.695Z" fill="#6877FF"/>
<path d="M231.435 298.117C231.435 300.546 229.613 302.369 227.183 302.369C224.753 302.369 222.931 300.546 222.931 298.117C222.931 295.687 224.753 293.865 227.183 293.865C229.613 293.865 231.435 295.687 231.435 298.117Z" fill="url(#paint1_linear_30_17420)"/>
<path d="M163.705 330.918C163.705 330.918 133.941 292.345 143.356 243.142C143.356 243.142 216.856 281.108 219.894 327.577L270.919 328.792C270.919 328.792 328.929 277.159 388.155 274.426C388.155 274.426 379.043 330.918 326.196 337.903L163.705 330.918Z" fill="url(#paint2_linear_30_17420)"/>
<path d="M285.801 319.681C285.801 319.681 289.142 227.046 387.851 209.127C387.851 209.127 398.178 297.813 297.95 320.288L285.801 319.681Z" fill="url(#paint3_radial_30_17420)"/>
<path d="M119.97 330.918C119.97 330.918 59.8331 302.369 56.4922 198.193C56.4922 198.193 137.586 207.912 163.706 330.918H119.97Z" fill="url(#paint4_linear_30_17420)"/>
<path d="M387.851 209.127L285.801 319.681L300.684 316.644C300.987 316.644 386.029 298.117 387.851 209.127Z" fill="#BDE0FF"/>
<path d="M61.3516 204.267L143.356 330.918L122.703 328.792C122.703 328.489 58.6181 287.486 61.3516 204.267Z" fill="#BDE0FF"/>
<path d="M150.646 324.236C150.646 324.236 108.733 273.211 59.8335 301.153C59.8335 301.457 91.1167 358.253 150.646 324.236Z" fill="url(#paint5_radial_30_17420)"/>
<path d="M59.8335 301.457L146.698 321.503C146.698 321.503 103.873 356.735 59.8335 301.457Z" fill="#BDE0FF"/>
<path d="M227.183 338.208C287.905 338.208 337.13 288.984 337.13 228.262C337.13 167.54 287.905 118.315 227.183 118.315C166.461 118.315 117.236 167.54 117.236 228.262C117.236 288.984 166.461 338.208 227.183 338.208Z" fill="url(#paint6_linear_30_17420)"/>
<path d="M224.45 127.426V118.618C224.45 118.618 272.742 114.062 308.885 155.064L301.899 160.228C301.899 160.228 273.045 125.907 224.45 127.426Z" fill="white"/>
<path d="M308.884 168.732L316.174 164.177C316.174 164.177 324.678 175.718 328.322 185.437L319.818 187.259C319.818 187.563 315.87 178.148 308.884 168.732Z" fill="white"/>
<path d="M227.184 328.793C284.886 328.793 331.663 282.016 331.663 224.313C331.663 166.61 284.886 119.833 227.184 119.833C169.481 119.833 122.704 166.61 122.704 224.313C122.704 282.016 169.481 328.793 227.184 328.793Z" fill="url(#paint7_radial_30_17420)"/>
<path d="M227.183 304.799C271.634 304.799 307.669 268.764 307.669 224.313C307.669 179.862 271.634 143.827 227.183 143.827C182.732 143.827 146.697 179.862 146.697 224.313C146.697 268.764 182.732 304.799 227.183 304.799Z" fill="url(#paint8_linear_30_17420)"/>
<path d="M227.183 301.459C267.105 301.459 299.468 269.095 299.468 229.173C299.468 189.251 267.105 156.888 227.183 156.888C187.261 156.888 154.897 189.251 154.897 229.173C154.897 269.095 187.261 301.459 227.183 301.459Z" fill="url(#paint9_linear_30_17420)"/>
<path d="M222.02 224.313L226.272 157.494H230.22L233.865 224.313H222.02Z" fill="url(#paint10_linear_30_17420)"/>
<path d="M228.094 228.261L227.183 218.238L270.615 220.364V224.313L228.094 228.261Z" fill="url(#paint11_linear_30_17420)"/>
<path d="M235.991 222.49C235.991 226.439 232.65 229.78 228.702 229.78C224.754 229.78 221.413 226.439 221.413 222.49C221.413 218.542 224.754 215.201 228.702 215.201C232.65 215.201 235.991 218.238 235.991 222.49Z" fill="url(#paint12_linear_30_17420)"/>
<path d="M163.098 226.742C165.447 226.742 167.35 224.839 167.35 222.49C167.35 220.142 165.447 218.238 163.098 218.238C160.75 218.238 158.846 220.142 158.846 222.49C158.846 224.839 160.75 226.742 163.098 226.742Z" fill="url(#paint13_linear_30_17420)"/>
<path d="M290.965 226.742C293.313 226.742 295.217 224.839 295.217 222.49C295.217 220.142 293.313 218.238 290.965 218.238C288.617 218.238 286.713 220.142 286.713 222.49C286.713 224.839 288.617 226.742 290.965 226.742Z" fill="url(#paint14_linear_30_17420)"/>
<path d="M228.702 161.747C231.051 161.747 232.954 159.843 232.954 157.494C232.954 155.146 231.051 153.242 228.702 153.242C226.354 153.242 224.45 155.146 224.45 157.494C224.45 159.843 226.354 161.747 228.702 161.747Z" fill="url(#paint15_linear_30_17420)"/>
<path opacity="0.73" d="M208.96 148.99L218.072 174.503C218.072 174.503 256.644 175.11 276.082 198.497L295.217 189.081C290.965 172.984 256.644 137.753 208.96 148.99Z" fill="white"/>
<path d="M180.714 285.057L190.129 271.997C190.129 271.997 211.39 286.88 244.191 284.754L249.051 299.029C249.051 299.029 212.908 310.266 180.714 285.057Z" fill="white"/>
<path d="M249.051 122.262C249.051 122.262 261.807 156.279 290.053 141.093C290.053 140.789 273.348 126.514 249.051 122.262Z" fill="white"/>
<path d="M109.947 380.121L106.302 322.111C106.302 322.111 223.842 316.34 344.115 321.503L337.434 382.855L109.947 380.121Z" fill="url(#paint16_linear_30_17420)"/>
<path d="M117.844 374.958L115.718 327.274C115.718 327.274 223.235 324.844 335.308 329.096L331.359 377.084L117.844 374.958Z" fill="url(#paint17_linear_30_17420)"/>
<path opacity="0.4" d="M335.308 329.4C335.308 329.4 327.411 337.601 325.285 350.357L124.829 347.624L115.718 327.578C115.718 327.578 285.801 325.756 335.308 329.4Z" fill="url(#paint18_linear_30_17420)"/>
<path d="M115.718 327.578L117.54 373.744L223.235 376.173L219.894 327.578C219.894 327.578 183.751 325.452 115.718 327.578Z" fill="url(#paint19_linear_30_17420)"/>
<path d="M116.933 368.883L147.912 326.666H157.935L124.829 373.742H117.54L116.933 368.883Z" fill="url(#paint20_linear_30_17420)"/>
<path d="M148.216 374.35L182.233 326.666H191.648L160.061 374.654L148.216 374.35Z" fill="url(#paint21_linear_30_17420)"/>
<path d="M188.914 375.262L219.894 327.578L220.501 338.512L197.722 375.262H188.914Z" fill="url(#paint22_linear_30_17420)"/>
<path d="M109.947 380.122L116.932 387.715L329.84 389.841L337.433 382.855L109.947 380.122Z" fill="#A181C9"/>
<path d="M115 325.208L115.613 344.751H221L219.775 325.208C220.081 325.208 183.931 324.179 115 325.208Z" fill="#EAE7FF"/>
<path d="M191.648 326.666C191.648 326.666 204.101 339.422 221.109 326.969L191.648 326.666Z" fill="white"/>
<path d="M208.96 319.377C208.96 319.377 215.642 326.666 231.435 326.362C247.229 326.059 252.392 319.377 252.392 319.377C252.392 319.377 215.338 319.377 208.96 319.377Z" fill="white"/>
<path d="M125 374.219C125 374.219 187.424 362.646 215 376.751L125 374.219Z" fill="#E8E3FF"/>
<path d="M331.663 377.388C331.663 377.388 326.803 375.565 324.677 362.809H222.323L223.234 376.173L331.663 377.388Z" fill="#C9C3FD"/>
<path d="M283.067 376.477C283.067 376.477 299.165 367.365 311.01 377.084L283.067 376.477Z" fill="white"/>
<path opacity="0.2" d="M373.273 24.161C371.147 2.59685 346.545 -3.47756 335.915 3.50801C325.285 10.7973 348.064 44.5103 355.961 46.0289C363.857 47.8512 373.88 30.2354 373.273 24.161Z" fill="url(#paint23_linear_30_17420)"/>
<defs>
<linearGradient id="paint0_linear_30_17420" x1="18.0142" y1="171.836" x2="369.979" y2="171.836" gradientUnits="userSpaceOnUse">
<stop stop-color="#6A11CB"/>
<stop offset="1" stop-color="#2575FC"/>
</linearGradient>
<linearGradient id="paint1_linear_30_17420" x1="227.158" y1="302.27" x2="227.158" y2="293.752" gradientUnits="userSpaceOnUse">
<stop stop-color="#1C257B"/>
<stop offset="1" stop-color="#482C83"/>
</linearGradient>
<linearGradient id="paint2_linear_30_17420" x1="264.657" y1="337.855" x2="264.657" y2="243.131" gradientUnits="userSpaceOnUse">
<stop stop-color="#1C257B"/>
<stop offset="1" stop-color="#6A2C9A"/>
</linearGradient>
<radialGradient id="paint3_radial_30_17420" cx="0" cy="0" r="1" gradientUnits="userSpaceOnUse" gradientTransform="translate(340.826 219.014) scale(78.0501 78.0501)">
<stop stop-color="#3996F7"/>
<stop offset="1" stop-color="#6840D5"/>
</radialGradient>
<linearGradient id="paint4_linear_30_17420" x1="110.009" y1="330.957" x2="110.009" y2="198.093" gradientUnits="userSpaceOnUse">
<stop stop-color="#1C257B"/>
<stop offset="1" stop-color="#6A2C9A"/>
</linearGradient>
<radialGradient id="paint5_radial_30_17420" cx="0" cy="0" r="1" gradientUnits="userSpaceOnUse" gradientTransform="translate(92.6308 298.153) scale(35.3947 35.3947)">
<stop stop-color="#3996F7"/>
<stop offset="1" stop-color="#6840D5"/>
</radialGradient>
<linearGradient id="paint6_linear_30_17420" x1="227.158" y1="338.221" x2="227.158" y2="118.585" gradientUnits="userSpaceOnUse">
<stop stop-color="#4C25A6"/>
<stop offset="0.6015" stop-color="#457AE2"/>
<stop offset="1" stop-color="#6DD9F7"/>
</linearGradient>
<radialGradient id="paint7_radial_30_17420" cx="0" cy="0" r="1" gradientUnits="userSpaceOnUse" gradientTransform="translate(234.825 138.263) scale(149.017 149.017)">
<stop stop-color="#3996F7"/>
<stop offset="1" stop-color="#6840D5"/>
</radialGradient>
<linearGradient id="paint8_linear_30_17420" x1="227.158" y1="304.67" x2="227.158" y2="143.934" gradientUnits="userSpaceOnUse">
<stop stop-color="#DDCDFF"/>
<stop offset="1" stop-color="#9F9CFF"/>
</linearGradient>
<linearGradient id="paint9_linear_30_17420" x1="227.158" y1="301.505" x2="227.158" y2="156.823" gradientUnits="userSpaceOnUse">
<stop stop-color="#EEF0FF"/>
<stop offset="1" stop-color="#DDCDFF"/>
</linearGradient>
<linearGradient id="paint10_linear_30_17420" x1="227.971" y1="224.302" x2="227.971" y2="157.608" gradientUnits="userSpaceOnUse">
<stop stop-color="#1C257B"/>
<stop offset="1" stop-color="#482C83"/>
</linearGradient>
<linearGradient id="paint11_linear_30_17420" x1="249" y1="228.331" x2="249" y2="218.291" gradientUnits="userSpaceOnUse">
<stop stop-color="#1C257B"/>
<stop offset="1" stop-color="#482C83"/>
</linearGradient>
<linearGradient id="paint12_linear_30_17420" x1="228.764" y1="229.689" x2="228.764" y2="215.052" gradientUnits="userSpaceOnUse">
<stop stop-color="#1C257B"/>
<stop offset="1" stop-color="#482C83"/>
</linearGradient>
<linearGradient id="paint13_linear_30_17420" x1="163.207" y1="226.63" x2="163.207" y2="218.111" gradientUnits="userSpaceOnUse">
<stop stop-color="#1C257B"/>
<stop offset="1" stop-color="#482C83"/>
</linearGradient>
<linearGradient id="paint14_linear_30_17420" x1="290.883" y1="226.63" x2="290.883" y2="218.111" gradientUnits="userSpaceOnUse">
<stop stop-color="#1C257B"/>
<stop offset="1" stop-color="#482C83"/>
</linearGradient>
<linearGradient id="paint15_linear_30_17420" x1="228.764" y1="161.868" x2="228.764" y2="153.349" gradientUnits="userSpaceOnUse">
<stop stop-color="#1C257B"/>
<stop offset="1" stop-color="#482C83"/>
</linearGradient>
<linearGradient id="paint16_linear_30_17420" x1="225.162" y1="382.757" x2="225.162" y2="319.397" gradientUnits="userSpaceOnUse">
<stop stop-color="#D1BBFF"/>
<stop offset="1" stop-color="#EFEAFF"/>
</linearGradient>
<linearGradient id="paint17_linear_30_17420" x1="225.553" y1="377.373" x2="225.553" y2="326.835" gradientUnits="userSpaceOnUse">
<stop stop-color="#DDCDFF"/>
<stop offset="1" stop-color="#9F9CFF"/>
</linearGradient>
<linearGradient id="paint18_linear_30_17420" x1="225.553" y1="350.181" x2="225.553" y2="327.024" gradientUnits="userSpaceOnUse">
<stop stop-color="white"/>
<stop offset="1" stop-color="#7460E0"/>
</linearGradient>
<linearGradient id="paint19_linear_30_17420" x1="169.398" y1="376.219" x2="169.398" y2="326.592" gradientUnits="userSpaceOnUse">
<stop stop-color="#B31A8F"/>
<stop offset="0.00896716" stop-color="#B51A8F"/>
<stop offset="0.1486" stop-color="#D01789"/>
<stop offset="0.3008" stop-color="#E41484"/>
<stop offset="0.4721" stop-color="#F31281"/>
<stop offset="0.6764" stop-color="#FB117F"/>
<stop offset="1" stop-color="#FE117E"/>
</linearGradient>
<linearGradient id="paint20_linear_30_17420" x1="137.381" y1="373.769" x2="137.381" y2="326.591" gradientUnits="userSpaceOnUse">
<stop stop-color="#B9ACF4"/>
<stop offset="1" stop-color="#E1D1F5"/>
</linearGradient>
<linearGradient id="paint21_linear_30_17420" x1="169.852" y1="374.758" x2="169.852" y2="326.632" gradientUnits="userSpaceOnUse">
<stop stop-color="#B9ACF4"/>
<stop offset="1" stop-color="#E1D1F5"/>
</linearGradient>
<linearGradient id="paint22_linear_30_17420" x1="204.766" y1="375.379" x2="204.766" y2="327.478" gradientUnits="userSpaceOnUse">
<stop stop-color="#B9ACF4"/>
<stop offset="1" stop-color="#E1D1F5"/>
</linearGradient>
<linearGradient id="paint23_linear_30_17420" x1="333.14" y1="23.4555" x2="373.299" y2="23.4555" gradientUnits="userSpaceOnUse">
<stop stop-color="#6A11CB"/>
<stop offset="1" stop-color="#2575FC"/>
</linearGradient>
</defs>
</svg>
