<svg width="122" height="134" viewBox="0 0 122 134" fill="none" xmlns="http://www.w3.org/2000/svg">
<path d="M3.63829 108.597L2.42725 100.78L94.3392 125.407L90.6134 133.555C90.641 133.452 44.9772 117.58 3.63829 108.597Z" fill="url(#paint0_linear_30_17122)"/>
<path d="M2.45504 100.677L39.1385 18.0557L109.04 32.7087L94.4698 125.332L2.45504 100.677Z" fill="url(#paint1_linear_30_17122)"/>
<path d="M62.6569 16.644L64.0067 11.6063C64.0067 11.6063 79.3569 12.3034 93.8988 18.0732L92.0625 22.8703C91.9872 22.74 80.2138 18.1528 62.6569 16.644Z" fill="url(#paint2_linear_30_17122)"/>
<path d="M62.657 16.6439L64.0265 18.1128L89.696 23.889L92.0626 22.8703C91.9873 22.7399 78.7544 17.4311 62.657 16.6439Z" fill="#140047"/>
<path opacity="0.86" d="M11.1449 98.2669L90.7875 120.158L105.183 36.4133L48.1933 20.0411L11.1449 98.2669Z" fill="#9ABAB3"/>
<path d="M90.7875 120.158C58.4123 103.219 7.61438 97.8719 7.61438 97.8719L43.7563 15.2158C79.7113 14.2716 110.991 24.1956 110.991 24.1956L110.936 24.4012L90.7875 120.158Z" fill="url(#paint3_linear_30_17122)"/>
<path opacity="0.62" d="M45.3047 27.5313C45.3047 27.5313 57.8662 26.7099 79.0396 31.1712L77.9377 35.2836C77.9377 35.2836 64.1686 31.1534 43.6558 30.3953L45.3047 27.5313Z" fill="url(#paint4_linear_30_17122)"/>
<path opacity="0.62" d="M31.5692 58.2306C31.5692 58.2306 46.486 60.1339 65.2525 64.942L64.3434 68.3347C64.3434 68.3347 50.5743 64.2045 29.6045 61.4507L31.5692 58.2306Z" fill="url(#paint5_linear_30_17122)"/>
<path opacity="0.62" d="M25.5313 73.362C25.5313 73.362 40.6463 75.7592 59.4128 80.5673L58.6415 83.446C58.6415 83.446 45.9206 79.9272 24.3212 76.2333L25.5313 73.362Z" fill="url(#paint6_linear_30_17122)"/>
<path opacity="0.62" d="M38.3138 42.5176C38.3138 42.5176 53.4234 43.7012 73.0473 48.1881L71.7196 51.9094C71.7196 51.9094 58.437 48.0198 36.6649 45.3815L38.3138 42.5176Z" fill="url(#paint7_linear_30_17122)"/>
<path d="M39.2082 40.0024L43.0845 32.1156L43.1873 32.1431C43.3929 32.1982 62.5215 32.3651 83.9059 38.095C84.2144 38.1777 84.42 38.2328 84.7284 38.3154L84.8312 38.343L82.3795 47.493L82.2767 47.4655C82.071 47.4104 61.6798 42.4975 39.4138 40.0575L39.2082 40.0024ZM43.1322 32.3487L39.4689 39.8519C60.8573 42.2771 80.5564 46.8944 82.1261 47.2048L84.4677 38.4659C84.2621 38.4108 83.9536 38.3282 83.748 38.2731C63.0557 32.8388 44.421 32.4737 43.1322 32.3487Z" fill="url(#paint8_linear_30_17122)"/>
<path d="M31.832 56.4278L31.8596 56.325L35.791 48.2325L35.8938 48.2601C36.0994 48.3152 57.3097 50.5826 78.5914 56.285C79.0026 56.3951 79.311 56.4778 79.7223 56.588L79.8251 56.6155L77.208 66.3825L77.1052 66.3549C76.7968 66.2723 54.6927 60.3495 32.0376 56.4829L31.832 56.4278ZM35.9415 48.4933L32.1955 56.3048C54.1034 60.0814 75.4126 65.681 77.0575 66.1217L79.5644 56.766C58.6187 51.0435 37.3331 48.6458 35.9415 48.4933Z" fill="url(#paint9_linear_30_17122)"/>
<path d="M25.2527 71.5241L25.2803 71.4213L28.8959 63.6849L28.9987 63.7125C29.2043 63.7676 52.5864 67.3882 73.7652 73.0631C74.2793 73.2008 74.6905 73.311 75.2046 73.4487L75.3074 73.4763L72.7454 83.0376L72.6426 83.0101C72.437 82.955 49.2718 75.646 25.328 71.6544L25.2527 71.5241ZM28.9711 63.8153L25.541 71.2707C48.6073 75.2475 70.9022 82.103 72.6225 82.6741L75.0742 73.524C74.663 73.4138 74.1489 73.2761 73.7377 73.1659C53.0729 67.6288 30.5408 64.1257 28.9711 63.8153Z" fill="url(#paint10_linear_30_17122)"/>
<path d="M19.1265 85.7502L19.1541 85.6474L22.7697 77.9111L22.8725 77.9386C23.1809 78.0212 50.1762 81.7285 71.017 89.0758L71.1198 89.1034L68.7783 97.8422L68.6755 97.8147C68.4698 97.7596 43.1181 89.9749 19.2018 85.8805L19.1265 85.7502ZM22.9202 78.1718L19.4901 85.6272C42.5564 89.604 66.9351 96.9076 68.6553 97.4787L70.8867 89.1511C50.6351 82.0718 24.5175 78.3794 22.9202 78.1718Z" fill="url(#paint11_linear_30_17122)"/>
<path d="M88.1863 116.706C78.3554 110.215 66.2991 107.095 66.1963 107.068L66.2514 106.862C66.3542 106.89 78.5409 109.935 88.3442 116.528L88.1863 116.706Z" fill="url(#paint12_linear_30_17122)"/>
<path opacity="0.3" d="M90.7876 120.158C58.4124 103.219 7.61443 97.8719 7.61443 97.8719L43.7563 15.2159C43.7563 15.2159 22.7577 70.9658 28.3265 86.7829C34.6608 104.678 70.1745 111.55 80.701 98.172C93.7339 81.6093 109.972 27.9997 110.833 24.3738L90.7876 120.158Z" fill="url(#paint13_linear_30_17122)"/>
<path d="M71.7399 12.356L71.9086 14.605L87.8864 17.8946L88.7935 16.1542C88.7935 16.1542 83.5301 14.4133 71.7399 12.356Z" fill="url(#paint14_linear_30_17122)"/>
<path d="M33.7093 109.051C33.7093 109.051 81.8061 119.955 94.4699 125.332L33.7093 109.051Z" fill="#9A7DF8"/>
<defs>
<linearGradient id="paint0_linear_30_17122" x1="46.187" y1="121.556" x2="48.4683" y2="113.042" gradientUnits="userSpaceOnUse">
<stop stop-color="#1C257B"/>
<stop offset="1" stop-color="#482C83"/>
</linearGradient>
<linearGradient id="paint1_linear_30_17122" x1="48.4685" y1="113.042" x2="72.598" y2="22.9894" gradientUnits="userSpaceOnUse">
<stop stop-color="#744FD8"/>
<stop offset="1" stop-color="#3996F7"/>
</linearGradient>
<linearGradient id="paint2_linear_30_17122" x1="77.4088" y1="20.5481" x2="79.2832" y2="13.5528" gradientUnits="userSpaceOnUse">
<stop stop-color="#1C257B"/>
<stop offset="1" stop-color="#482C83"/>
</linearGradient>
<linearGradient id="paint3_linear_30_17122" x1="49.2525" y1="109.03" x2="74.6043" y2="14.4156" gradientUnits="userSpaceOnUse">
<stop stop-color="#D1BBFF"/>
<stop offset="1" stop-color="white"/>
</linearGradient>
<linearGradient id="paint4_linear_30_17122" x1="44.7011" y1="26.32" x2="77.894" y2="35.214" gradientUnits="userSpaceOnUse">
<stop stop-color="#8B8BE0"/>
<stop offset="1" stop-color="#A177B7"/>
</linearGradient>
<linearGradient id="paint5_linear_30_17122" x1="30.3606" y1="58.6505" x2="64.4527" y2="67.7855" gradientUnits="userSpaceOnUse">
<stop stop-color="#8B8BE0"/>
<stop offset="1" stop-color="#A177B7"/>
</linearGradient>
<linearGradient id="paint6_linear_30_17122" x1="24.9987" y1="73.8399" x2="58.8287" y2="82.9047" gradientUnits="userSpaceOnUse">
<stop stop-color="#8B8BE0"/>
<stop offset="1" stop-color="#A177B7"/>
</linearGradient>
<linearGradient id="paint7_linear_30_17122" x1="37.5565" y1="42.1174" x2="72.2031" y2="51.401" gradientUnits="userSpaceOnUse">
<stop stop-color="#8B8BE0"/>
<stop offset="1" stop-color="#A177B7"/>
</linearGradient>
<linearGradient id="paint8_linear_30_17122" x1="40.8819" y1="33.5746" x2="82.9552" y2="44.8481" gradientUnits="userSpaceOnUse">
<stop stop-color="#8B8BE0"/>
<stop offset="1" stop-color="#A177B7"/>
</linearGradient>
<linearGradient id="paint9_linear_30_17122" x1="33.4503" y1="50.5056" x2="78.2248" y2="62.5029" gradientUnits="userSpaceOnUse">
<stop stop-color="#8B8BE0"/>
<stop offset="1" stop-color="#A177B7"/>
</linearGradient>
<linearGradient id="paint10_linear_30_17122" x1="26.6604" y1="66.0978" x2="73.872" y2="78.7481" gradientUnits="userSpaceOnUse">
<stop stop-color="#8B8BE0"/>
<stop offset="1" stop-color="#A177B7"/>
</linearGradient>
<linearGradient id="paint11_linear_30_17122" x1="20.5067" y1="80.5755" x2="69.8401" y2="93.7943" gradientUnits="userSpaceOnUse">
<stop stop-color="#8B8BE0"/>
<stop offset="1" stop-color="#A177B7"/>
</linearGradient>
<linearGradient id="paint12_linear_30_17122" x1="65.7233" y1="108.745" x2="88.7625" y2="114.918" gradientUnits="userSpaceOnUse">
<stop stop-color="#8B8BE0"/>
<stop offset="1" stop-color="#A177B7"/>
</linearGradient>
<linearGradient id="paint13_linear_30_17122" x1="49.2525" y1="109.03" x2="74.5327" y2="14.683" gradientUnits="userSpaceOnUse">
<stop stop-color="#8B8BE0"/>
<stop offset="1" stop-color="#595992"/>
</linearGradient>
<linearGradient id="paint14_linear_30_17122" x1="71.607" y1="13.0512" x2="88.4689" y2="17.5693" gradientUnits="userSpaceOnUse">
<stop stop-color="#B9ACF4"/>
<stop offset="1" stop-color="#E1D1F5"/>
</linearGradient>
</defs>
</svg>
