<svg width="400" height="463" viewBox="0 0 400 463" fill="none" xmlns="http://www.w3.org/2000/svg">
<path opacity="0.2" d="M6.60539 226.172C2.93596 143.243 119.624 39.0311 219.799 56.2775C325.846 74.6246 419.05 305.065 318.507 382.49C217.965 460.282 10.2748 310.202 6.60539 226.172Z" fill="url(#paint0_linear_30_17354)"/>
<path d="M232.275 248.189C232.275 248.189 235.211 155.353 336.487 101.779C336.487 101.779 366.21 186.91 256.861 272.041L232.275 248.189Z" fill="url(#paint1_linear_30_17354)"/>
<path d="M332.818 109.851L247.32 252.225L239.614 230.576C239.247 230.576 249.155 147.28 332.818 109.851Z" fill="#BDE0FF"/>
<path d="M155.585 261.033C155.585 261.033 179.803 178.47 97.9746 133.703C97.9746 133.703 63.1149 208.927 144.943 257.73L155.585 261.033Z" fill="url(#paint2_radial_30_17354)"/>
<path d="M97.9745 133.703L155.585 261.032L143.475 253.694C143.109 254.06 73.7562 212.596 97.9745 133.703Z" fill="#BDE0FF"/>
<path d="M261.631 235.713C261.631 235.713 277.776 181.772 338.689 186.176C338.689 186.176 331.35 240.116 268.603 237.915L261.631 235.713Z" fill="url(#paint3_radial_30_17354)"/>
<path d="M338.689 185.809L261.631 235.346L270.804 235.713C271.171 236.08 324.011 237.915 338.689 185.809Z" fill="#BDE0FF"/>
<path d="M0 147.646L24.5853 110.218L37.4283 119.025L11.3753 154.251L0 147.646Z" fill="#FF1D9C"/>
<path d="M298.325 92.6049L281.445 115.722L274.106 109.484L289.518 88.5686L298.325 92.6049Z" fill="#4F31E0"/>
<path d="M152.281 124.162L124.393 131.134L122.559 121.961L148.245 115.356L152.281 124.162Z" fill="#4F31E0"/>
<path d="M206.956 79.7617L204.021 44.9021L215.763 37.9302L225.304 80.1287L206.956 79.7617Z" fill="#6877FF"/>
<path d="M121.458 321.578L119.99 323.78L126.962 350.567C126.962 350.933 126.962 351.3 127.329 351.667C128.43 357.538 128.43 365.244 127.696 368.547L124.76 367.813L104.946 362.309L84.0297 356.805L43.6659 377.72C42.1982 375.152 40.7304 366.345 40.3635 359.373V359.006L41.4644 332.586L39.6296 330.752L9.17326 300.662C7.70549 295.892 6.60468 292.956 7.70551 288.553L51.7387 283.783L69.7189 281.948L99.8084 278.646L143.842 273.875C145.309 277.545 146.41 280.113 145.309 285.985L121.458 321.578Z" fill="url(#paint4_radial_30_17354)"/>
<path d="M121.825 321.945C121.458 322.312 120.724 323.046 120.357 323.78L125.861 356.805L127.696 368.547C126.595 368.547 125.861 368.547 124.76 368.547C124.76 368.547 124.393 368.547 124.026 368.547C122.192 368.547 119.99 368.18 118.155 367.813C117.055 367.813 115.954 367.446 114.486 367.079C113.752 366.712 112.651 366.712 111.917 366.345C110.816 365.978 110.083 365.978 108.982 365.611C107.881 365.244 107.147 365.244 106.046 364.877H105.679C105.312 364.877 104.945 364.51 104.945 364.51C97.6065 361.942 90.6345 359.006 84.3965 356.438C71.9204 365.611 60.9121 370.748 44.0327 377.353L43.2989 365.244L41.831 331.852C41.0971 331.486 40.7302 331.119 39.9963 330.752C26.7863 320.844 16.512 312.404 9.54004 300.295L15.0442 298.094L52.1055 284.15L52.4725 283.416L62.0129 264.702L72.6544 243.786L100.542 278.646L100.909 279.38L139.071 285.251L145.676 286.351C139.071 301.029 132.466 309.836 121.825 321.945Z" fill="url(#paint5_radial_30_17354)"/>
<path d="M138.704 284.884C131.366 296.259 118.889 311.671 118.889 311.671C118.889 311.671 119.99 315.707 121.458 321.578V321.945C124.027 331.119 126.962 344.695 126.962 351.667C126.962 354.236 126.595 355.704 125.861 356.438C125.861 356.438 125.494 356.805 125.127 356.805C124.394 357.172 122.926 357.172 121.458 356.805C121.458 356.805 121.458 356.805 121.091 356.805C120.357 356.805 119.623 356.438 118.889 356.438C117.789 356.071 116.688 356.071 115.587 355.704C112.284 354.97 108.615 353.869 104.579 352.768C95.405 349.833 86.2315 346.163 82.929 345.062C82.1951 344.695 81.8282 344.695 81.8282 344.695C81.8282 344.695 49.904 365.978 42.1982 365.611C41.8313 365.611 41.8313 365.611 41.4644 365.611C40.3636 365.244 39.9966 362.676 39.2627 359.006C38.5288 351.667 38.5288 339.925 38.8958 331.486V331.119C38.8958 325.247 39.2627 320.477 39.2627 320.477C39.2627 320.477 23.1172 308.368 13.9436 298.828C9.90726 294.424 6.97164 290.755 7.33858 288.92C8.43941 283.416 49.9041 272.775 49.9041 272.775C49.9041 272.775 52.8396 265.069 56.509 256.262C61.2793 245.254 67.1504 232.778 70.0859 232.411C76.324 231.677 98.3406 267.637 98.3406 267.637C98.3406 267.637 142.741 270.206 143.108 274.609C143.842 275.71 141.64 279.746 138.704 284.884Z" fill="url(#paint6_radial_30_17354)"/>
<path opacity="0.62" d="M124.76 368.546C124.76 368.546 124.393 368.546 124.026 368.546C122.926 368.546 121.091 368.546 118.155 367.813C117.054 367.813 115.954 367.446 114.486 367.079C113.752 366.712 112.651 366.712 111.917 366.345C110.816 365.978 110.083 365.978 108.982 365.611C107.881 365.244 107.147 365.244 106.046 364.877H105.679C105.312 364.877 104.945 364.877 104.945 364.51C99.0742 362.675 92.4692 360.107 84.3965 356.437L82.9287 344.328C82.9287 344.328 83.2956 344.328 84.0295 344.695C86.965 346.163 95.7718 349.832 105.312 352.768C108.982 353.869 112.651 354.97 116.321 355.703C117.421 356.07 118.522 356.07 119.623 356.437C120.357 356.437 121.091 356.804 121.825 356.804C121.825 356.804 121.825 356.804 122.192 356.804C122.559 356.804 122.559 356.804 122.926 356.804L125.127 367.446L124.76 368.546Z" fill="url(#paint7_linear_30_17354)"/>
<path opacity="0.5" d="M144.943 285.984C138.705 301.396 132.467 310.203 121.459 322.312C124.027 331.485 126.963 345.062 126.963 352.034C128.064 357.905 128.064 365.611 127.33 368.914C126.229 368.914 125.495 368.914 124.394 368.914C124.394 368.914 124.027 368.914 123.66 368.914C122.559 368.914 120.725 368.914 117.789 368.18C116.688 368.18 115.587 367.813 114.12 367.446C113.386 367.079 112.285 367.079 111.551 366.712C110.45 366.345 109.716 366.345 108.616 365.978C107.515 365.611 106.781 365.611 105.68 365.244H105.313C104.946 365.244 104.579 365.244 104.579 364.877V362.309L104.946 352.768V352.401L69.7195 281.214L61.2798 264.335L56.8765 255.161C61.6467 244.153 67.5179 231.677 70.4534 231.31C76.6915 230.576 98.708 266.536 98.708 266.536C98.708 266.536 143.108 269.105 143.475 273.508C145.31 277.178 146.044 280.113 144.943 285.984Z" fill="#361488"/>
<path d="M285.483 321.578L286.95 323.78L279.978 350.566C279.978 350.933 279.978 351.3 279.612 351.667C278.511 357.538 278.511 365.244 279.245 368.547L282.18 367.813L301.995 362.309L322.911 356.804L363.275 377.72C364.742 375.152 366.21 366.345 366.577 359.373V359.006L365.476 332.586L367.311 330.751L397.767 300.662C399.235 295.892 400.336 292.956 399.235 288.553L355.202 283.783L337.222 281.948L307.132 278.646L263.099 273.875C261.631 277.545 260.53 280.113 261.631 285.984L285.483 321.578Z" fill="url(#paint8_radial_30_17354)"/>
<path d="M285.482 321.945C285.849 322.312 286.583 323.046 286.95 323.78L281.446 356.804L279.611 368.547C280.712 368.547 281.446 368.547 282.547 368.547C282.547 368.547 282.914 368.547 283.281 368.547C285.115 368.547 287.317 368.18 289.152 367.813C290.252 367.813 291.353 367.446 292.821 367.079C293.555 366.712 294.656 366.712 295.39 366.345C296.49 365.978 297.224 365.978 298.325 365.611C299.426 365.244 300.16 365.244 301.261 364.877H301.628C301.995 364.877 302.362 364.51 302.362 364.51C309.7 361.942 316.672 359.006 322.91 356.438C335.386 365.611 346.395 370.748 363.274 377.353L364.008 365.244L365.476 331.852C366.21 331.485 366.577 331.118 367.311 330.751C380.521 320.844 390.795 312.404 397.767 300.295L392.263 298.093L355.201 284.15L354.834 283.416L345.294 264.702L334.653 243.786L306.765 278.646L306.398 279.379L268.236 285.25L261.631 286.351C268.236 301.029 274.474 309.836 285.482 321.945Z" fill="url(#paint9_radial_30_17354)"/>
<path d="M268.603 284.884C275.942 296.259 288.418 311.67 288.418 311.67C288.418 311.67 287.317 315.707 285.85 321.578V321.945C283.281 331.118 280.345 344.695 280.345 351.667C280.345 354.236 280.712 355.704 281.446 356.438C281.446 356.438 281.813 356.804 282.18 356.804C282.914 357.171 284.382 357.171 285.85 356.804C285.85 356.804 285.85 356.804 286.217 356.804C286.95 356.804 287.684 356.438 288.418 356.438C289.519 356.071 290.62 356.071 291.721 355.704C295.023 354.97 298.693 353.869 302.729 352.768C311.903 349.833 321.076 346.163 324.379 345.062C325.113 344.695 325.48 344.695 325.48 344.695C325.48 344.695 357.404 365.978 365.109 365.611C365.476 365.611 365.476 365.611 365.843 365.611C366.944 365.244 367.311 362.676 368.045 359.006C368.779 351.667 368.779 339.925 368.412 331.485V331.118C368.412 325.247 368.045 320.477 368.045 320.477C368.045 320.477 384.191 308.368 393.364 298.827C397.4 294.424 400.336 290.755 399.969 288.92C398.868 283.416 357.404 272.774 357.404 272.774C357.404 272.774 354.468 265.069 350.799 256.262C346.028 245.254 340.157 232.778 337.222 232.411C330.984 231.677 308.967 267.637 308.967 267.637C308.967 267.637 264.567 270.206 264.2 274.609C263.099 275.71 265.301 279.746 268.603 284.884Z" fill="url(#paint10_radial_30_17354)"/>
<path opacity="0.62" d="M282.18 368.546C282.18 368.546 282.547 368.546 282.914 368.546C284.015 368.546 285.849 368.546 288.785 367.812C289.886 367.812 290.987 367.446 292.454 367.079C293.188 366.712 294.289 366.712 295.023 366.345C296.124 365.978 296.858 365.978 297.958 365.611C299.059 365.244 299.793 365.244 300.894 364.877H301.261C301.628 364.877 301.995 364.877 301.995 364.51C307.866 362.675 314.471 360.107 322.544 356.437L324.011 344.328C324.011 344.328 323.644 344.328 322.911 344.695C319.975 346.163 311.168 349.832 301.628 352.768C297.958 353.869 294.289 354.969 290.62 355.703C289.519 356.07 288.418 356.07 287.317 356.437C286.583 356.437 285.849 356.804 285.115 356.804C285.115 356.804 285.115 356.804 284.748 356.804C284.382 356.804 284.382 356.804 284.015 356.804L281.813 367.445L282.18 368.546Z" fill="url(#paint11_linear_30_17354)"/>
<path d="M312.636 229.842C314.471 235.713 315.204 240.117 312.636 248.923L267.502 303.598L273.74 346.163C274.841 355.704 273.006 368.914 271.538 374.418L205.488 348.365L139.438 374.051C137.971 369.648 136.503 355.704 137.237 344.696L143.842 303.231L99.0747 248.189C97.24 240.484 96.5061 235.713 99.0747 229.108L312.636 229.842Z" fill="#981382"/>
<path d="M244.017 230.943L312.636 249.29C300.16 273.141 288.051 285.984 267.502 303.965L271.538 374.785C245.118 372.216 223.836 358.639 205.488 348.732C184.573 360.841 166.592 367.079 139.438 374.418L143.842 303.598C123.66 284.883 108.248 269.839 99.0747 248.556L167.693 230.576L206.222 171.131L244.017 230.943Z" fill="#981382"/>
<path d="M244.018 211.862C244.018 211.862 312.636 223.237 312.636 230.209C312.636 240.116 267.502 284.884 267.502 284.884C267.502 284.884 279.244 351.667 271.538 355.704C262.732 360.474 205.489 329.651 205.489 329.651C205.489 329.651 148.612 359.74 139.439 355.337C133.201 352.401 143.842 284.517 143.842 284.517C143.842 284.517 96.1394 239.383 99.075 229.475C101.644 221.035 167.693 211.495 167.693 211.495C167.693 211.495 197.049 152.05 206.223 152.05C215.763 152.05 244.018 211.862 244.018 211.862Z" fill="url(#paint12_linear_30_17354)"/>
<path d="M266.768 348.731C256.493 348.731 220.166 330.751 207.323 323.779L205.488 322.679L203.653 323.779C190.443 330.751 154.483 348.365 143.842 348.365C142.007 341.76 145.309 310.569 149.346 283.782L149.713 281.948L148.245 280.48C128.063 261.399 106.78 237.181 106.046 231.31C110.45 227.273 142.007 220.301 169.161 216.632L170.995 216.265L171.729 214.43C183.839 189.845 199.984 161.957 205.488 159.022C210.992 161.59 227.138 189.478 238.88 214.43L239.614 216.265L241.449 216.632C267.869 221.035 298.325 227.64 304.196 231.31C301.627 238.281 281.078 261.399 261.997 280.48L260.53 281.948L260.897 283.782C265.667 310.936 268.969 342.493 266.401 348.365C266.768 348.732 266.768 348.731 266.768 348.731Z" fill="url(#paint13_radial_30_17354)"/>
<path opacity="0.62" d="M205.488 348.732V329.651C205.488 329.651 241.082 350.199 265.3 355.704L267.135 374.051C267.135 374.051 245.485 372.95 205.488 348.732Z" fill="url(#paint14_linear_30_17354)"/>
<path d="M119.257 226.54C119.257 226.54 184.573 273.509 266.768 272.775C266.768 272.775 304.196 244.887 309.334 230.943C309.334 230.943 295.39 222.504 242.183 215.165C242.183 215.165 226.037 174.067 205.489 154.986C205.489 154.986 185.674 177.003 173.565 214.431C173.565 214.064 141.64 216.266 119.257 226.54Z" fill="white"/>
<path opacity="0.2" d="M63.1143 65.0843C68.9854 76.4596 165.492 50.0397 175.399 30.9586C185.307 11.8776 136.503 -3.53411 109.716 1.97005C82.9292 7.4742 55.7755 50.4066 63.1143 65.0843Z" fill="url(#paint15_linear_30_17354)"/>
<path d="M102.377 364.144C102.377 364.144 113.018 352.768 130.265 346.163C130.265 346.163 201.085 332.586 288.05 346.163C288.05 346.163 303.462 354.603 308.599 364.144H102.377Z" fill="url(#paint16_radial_30_17354)"/>
<path d="M235.578 341.393L241.082 356.438C241.082 356.438 266.401 357.539 281.813 359.74L273.006 344.329C273.006 343.962 248.421 341.393 235.578 341.393Z" fill="white"/>
<path d="M117.422 448.907C117.422 448.907 102.377 421.386 102.377 364.143C102.377 364.143 193.746 342.86 308.599 364.143C308.599 364.143 308.599 421.386 287.683 462.851L273.74 448.907H117.422Z" fill="url(#paint17_linear_30_17354)"/>
<path d="M143.842 381.757L145.677 392.032H259.062L260.897 381.023L143.842 381.757Z" fill="white"/>
<path d="M146.41 397.536L148.245 406.342H200.718V397.536H146.41Z" fill="white"/>
<path d="M148.245 411.846L150.079 421.02H224.569V411.846H148.245Z" fill="white"/>
<path opacity="0.81" d="M273.74 448.908L286.216 436.065C286.216 436.065 203.287 453.311 113.752 440.468L117.422 448.908H273.74Z" fill="url(#paint18_linear_30_17354)"/>
<defs>
<linearGradient id="paint0_linear_30_17354" x1="6.521" y1="229.285" x2="361.57" y2="229.285" gradientUnits="userSpaceOnUse">
<stop stop-color="#6A11CB"/>
<stop offset="1" stop-color="#2575FC"/>
</linearGradient>
<linearGradient id="paint1_linear_30_17354" x1="220.534" y1="224.384" x2="362.511" y2="155.031" gradientUnits="userSpaceOnUse">
<stop stop-color="#1C257B"/>
<stop offset="1" stop-color="#6A2C9A"/>
</linearGradient>
<radialGradient id="paint2_radial_30_17354" cx="0" cy="0" r="1" gradientUnits="userSpaceOnUse" gradientTransform="translate(136.615 156.26) rotate(-161.657) scale(72.4242 72.4242)">
<stop stop-color="#3996F7"/>
<stop offset="1" stop-color="#6840D5"/>
</radialGradient>
<radialGradient id="paint3_radial_30_17354" cx="0" cy="0" r="1" gradientUnits="userSpaceOnUse" gradientTransform="translate(309.565 184.468) rotate(14.5184) scale(47.5733 47.5733)">
<stop stop-color="#3996F7"/>
<stop offset="1" stop-color="#6840D5"/>
</radialGradient>
<radialGradient id="paint4_radial_30_17354" cx="0" cy="0" r="1" gradientUnits="userSpaceOnUse" gradientTransform="translate(80.8177 326.871) rotate(-6.18265) scale(59.0323)">
<stop stop-color="#A157FF"/>
<stop offset="1" stop-color="#63399A"/>
</radialGradient>
<radialGradient id="paint5_radial_30_17354" cx="0" cy="0" r="1" gradientUnits="userSpaceOnUse" gradientTransform="translate(78.7915 308.352) rotate(-6.18264) scale(66.7045 66.7045)">
<stop stop-color="#A157FF"/>
<stop offset="1" stop-color="#63399A"/>
</radialGradient>
<radialGradient id="paint6_radial_30_17354" cx="0" cy="0" r="1" gradientUnits="userSpaceOnUse" gradientTransform="translate(67.4764 256.199) rotate(-6.18264) scale(76.847 76.8469)">
<stop stop-color="#FF81FF"/>
<stop offset="1" stop-color="#9552FF"/>
</radialGradient>
<linearGradient id="paint7_linear_30_17354" x1="84.0352" y1="358.568" x2="123.19" y2="354.326" gradientUnits="userSpaceOnUse">
<stop stop-color="#8B8BE0"/>
<stop offset="1" stop-color="#A177B7"/>
</linearGradient>
<radialGradient id="paint8_radial_30_17354" cx="0" cy="0" r="1" gradientUnits="userSpaceOnUse" gradientTransform="translate(326.263 326.871) rotate(-173.817) scale(59.0323 59.0323)">
<stop stop-color="#A157FF"/>
<stop offset="1" stop-color="#63399A"/>
</radialGradient>
<radialGradient id="paint9_radial_30_17354" cx="0" cy="0" r="1" gradientUnits="userSpaceOnUse" gradientTransform="translate(328.288 308.352) rotate(-173.817) scale(66.7044 66.7045)">
<stop stop-color="#A157FF"/>
<stop offset="1" stop-color="#63399A"/>
</radialGradient>
<radialGradient id="paint10_radial_30_17354" cx="0" cy="0" r="1" gradientUnits="userSpaceOnUse" gradientTransform="translate(369.798 269.325) rotate(-173.817) scale(76.8473 76.8473)">
<stop stop-color="#FF81FF"/>
<stop offset="1" stop-color="#9552FF"/>
</radialGradient>
<linearGradient id="paint11_linear_30_17354" x1="323.045" y1="358.568" x2="283.89" y2="354.326" gradientUnits="userSpaceOnUse">
<stop stop-color="#8B8BE0"/>
<stop offset="1" stop-color="#A177B7"/>
</linearGradient>
<linearGradient id="paint12_linear_30_17354" x1="112.955" y1="209.556" x2="285.905" y2="335.974" gradientUnits="userSpaceOnUse">
<stop stop-color="#971A8F"/>
<stop offset="0.4678" stop-color="#EF22AC"/>
<stop offset="1" stop-color="#FE4CCE"/>
</linearGradient>
<radialGradient id="paint13_radial_30_17354" cx="0" cy="0" r="1" gradientUnits="userSpaceOnUse" gradientTransform="translate(222.443 213.052) rotate(36.1651) scale(110.298 110.298)">
<stop stop-color="#FE117E"/>
<stop offset="1" stop-color="#B31A8F"/>
</radialGradient>
<linearGradient id="paint14_linear_30_17354" x1="205.347" y1="351.812" x2="266.993" y2="351.812" gradientUnits="userSpaceOnUse">
<stop stop-color="#8B8BE0"/>
<stop offset="1" stop-color="#A177B7"/>
</linearGradient>
<linearGradient id="paint15_linear_30_17354" x1="61.8975" y1="34.3361" x2="176.706" y2="34.3361" gradientUnits="userSpaceOnUse">
<stop stop-color="#6A11CB"/>
<stop offset="1" stop-color="#2575FC"/>
</linearGradient>
<radialGradient id="paint16_radial_30_17354" cx="0" cy="0" r="1" gradientUnits="userSpaceOnUse" gradientTransform="translate(238.558 348.189) scale(94.8546 94.8545)">
<stop stop-color="#3996F7"/>
<stop offset="1" stop-color="#744FD8"/>
</radialGradient>
<linearGradient id="paint17_linear_30_17354" x1="205.672" y1="462.975" x2="205.672" y2="354.604" gradientUnits="userSpaceOnUse">
<stop stop-color="#1C257B"/>
<stop offset="1" stop-color="#4F3BBA"/>
</linearGradient>
<linearGradient id="paint18_linear_30_17354" x1="200.083" y1="449.034" x2="200.083" y2="436.091" gradientUnits="userSpaceOnUse">
<stop stop-color="#7460E0"/>
<stop offset="1" stop-color="white"/>
</linearGradient>
</defs>
</svg>
