<svg width="19" height="19" viewBox="0 0 19 19" fill="none" xmlns="http://www.w3.org/2000/svg">
<path opacity="0.5" d="M17.625 11.219L13.6211 8.56624L16.1935 4.68371C16.5955 4.07706 16.4317 3.2702 15.825 2.86826L13.1558 1.09975C12.5492 0.69781 11.7423 0.861577 11.3404 1.46822L8.68758 5.47208L4.68372 2.81931C4.07708 2.41737 3.27021 2.58114 2.86827 3.18779L1.09976 5.85703C0.69782 6.46367 0.86159 7.27054 1.46824 7.67247L5.4721 10.3252L2.81932 14.3291C2.41738 14.9358 2.58115 15.7426 3.1878 16.1446L5.85704 17.9131C6.46368 18.315 7.27055 18.1512 7.67248 17.5446L10.486 13.2981L14.4899 15.9509C15.0965 16.3528 15.9034 16.189 16.3053 15.5824L17.9935 13.0345C18.2741 12.3474 18.2316 11.621 17.625 11.219Z" fill="url(#paint0_linear_30_17470)"/>
<defs>
<linearGradient id="paint0_linear_30_17470" x1="4.53918" y1="16.9779" x2="14.4864" y2="1.96441" gradientUnits="userSpaceOnUse">
<stop stop-color="#FFD328"/>
<stop offset="1" stop-color="#FFA700"/>
</linearGradient>
</defs>
</svg>
